<svg width="157" height="100" viewBox="0 0 157 100" fill="none" xmlns="http://www.w3.org/2000/svg">
<path fill-rule="evenodd" clip-rule="evenodd" d="M42.2222 0.719734V19.2842H47.3156C49.0227 19.2842 50.4051 18.8204 51.4627 17.8926C52.5389 16.9463 53.077 15.6753 53.077 14.0795C53.077 12.8734 52.7338 11.8436 52.0472 10.9901C51.3607 10.1365 50.4236 9.61697 49.2361 9.43142C50.6834 8.54077 51.4071 7.18624 51.4071 5.36782C51.4071 3.95762 50.9524 2.83503 50.0432 2.00005C49.134 1.1465 47.8816 0.719734 46.2858 0.719734H42.2222ZM43.4469 9.12526V1.83305H45.8126C47.2043 1.83305 48.2341 2.09282 48.9021 2.61237C49.7371 3.29891 50.1546 4.26378 50.1546 5.50699C50.1546 6.73163 49.7464 7.67795 48.9299 8.34594C48.299 8.86548 47.4548 9.12526 46.3971 9.12526H43.4469ZM43.4469 18.1709V10.2386H46.3415C47.863 10.2386 49.0227 10.4148 49.8206 10.7674C51.138 11.3797 51.7967 12.5301 51.7967 14.2187C51.7967 15.4062 51.3978 16.3525 50.5999 17.0576C50.2102 17.4102 49.7464 17.6699 49.2083 17.8369C48.6887 18.0039 48.2619 18.106 47.9279 18.1431C47.594 18.1617 47.1394 18.1709 46.5641 18.1709H43.4469ZM67.1098 0.469238C64.4007 0.469238 62.1184 1.397 60.2629 3.25252C58.4074 5.10805 57.4796 7.37179 57.4796 10.0437C57.4796 12.7157 58.4074 14.9794 60.2629 16.835C62.1184 18.6719 64.4007 19.5904 67.1098 19.5904C69.8188 19.5904 72.1011 18.6719 73.9567 16.835C75.8122 14.9794 76.74 12.7157 76.74 10.0437C76.74 7.37179 75.8122 5.10805 73.9567 3.25252C72.1011 1.397 69.8188 0.469238 67.1098 0.469238ZM67.1098 18.4771C64.7347 18.4771 62.7493 17.6699 61.1536 16.0556C59.5578 14.4228 58.7599 12.4188 58.7599 10.0437C58.7599 7.65012 59.5578 5.64615 61.1536 4.03184C62.7493 2.39898 64.7347 1.58255 67.1098 1.58255C69.4849 1.58255 71.4703 2.39898 73.066 4.03184C74.6618 5.64615 75.4596 7.65012 75.4596 10.0437C75.4596 12.4188 74.6618 14.4228 73.066 16.0556C71.4703 17.6699 69.4849 18.4771 67.1098 18.4771ZM90.7623 0.469238C88.0532 0.469238 85.7709 1.397 83.9154 3.25252C82.0599 5.10805 81.1321 7.37179 81.1321 10.0437C81.1321 12.7157 82.0599 14.9794 83.9154 16.835C85.7709 18.6719 88.0532 19.5904 90.7623 19.5904C93.4713 19.5904 95.7536 18.6719 97.6092 16.835C99.4647 14.9794 100.392 12.7157 100.392 10.0437C100.392 7.37179 99.4647 5.10805 97.6092 3.25252C95.7536 1.397 93.4713 0.469238 90.7623 0.469238ZM90.7623 18.4771C88.3872 18.4771 86.4018 17.6699 84.806 16.0556C83.2103 14.4228 82.4124 12.4188 82.4124 10.0437C82.4124 7.65012 83.2103 5.64615 84.806 4.03184C86.4018 2.39898 88.3872 1.58255 90.7623 1.58255C93.1373 1.58255 95.1227 2.39898 96.7185 4.03184C98.3142 5.64615 99.1121 7.65012 99.1121 10.0437C99.1121 12.4188 98.3142 14.4228 96.7185 16.0556C95.1227 17.6699 93.1373 18.4771 90.7623 18.4771ZM107.011 9.45925V0.719734H105.787V19.2842H107.011V10.9066L107.512 10.4334L116.252 19.2842H117.922L108.403 9.59842L117.393 0.719734H115.779L107.011 9.45925ZM85.3584 73.9201H90.1734V72.8068H79.3186V73.9201H84.1337V91.3713H85.3584V73.9201ZM103.087 72.5563C100.378 72.5563 98.0956 73.4841 96.2401 75.3396C94.3846 77.1951 93.4568 79.4589 93.4568 82.1308C93.4568 84.8028 94.3846 87.0665 96.2401 88.9221C98.0956 90.759 100.378 91.6775 103.087 91.6775C105.796 91.6775 108.078 90.759 109.934 88.9221C111.789 87.0665 112.717 84.8028 112.717 82.1308C112.717 79.4589 111.789 77.1951 109.934 75.3396C108.078 73.4841 105.796 72.5563 103.087 72.5563ZM103.087 90.5642C100.712 90.5642 98.7265 89.757 97.1308 88.1427C95.535 86.5099 94.7372 84.5059 94.7372 82.1308C94.7372 79.7372 95.535 77.7332 97.1308 76.1189C98.7265 74.4861 100.712 73.6696 103.087 73.6696C105.462 73.6696 107.447 74.4861 109.043 76.1189C110.639 77.7332 111.437 79.7372 111.437 82.1308C111.437 84.5059 110.639 86.5099 109.043 88.1427C107.447 89.757 105.462 90.5642 103.087 90.5642ZM119.336 72.8068H118.111V84.4131C118.111 85.5636 118.176 86.482 118.306 87.1686C118.436 87.8551 118.724 88.5231 119.169 89.1725C120.319 90.8425 122.073 91.6775 124.429 91.6775C126.786 91.6775 128.539 90.8425 129.69 89.1725C130.135 88.5231 130.423 87.8551 130.553 87.1686C130.682 86.482 130.747 85.5636 130.747 84.4131V72.8068H129.523V84.4131C129.523 85.3966 129.467 86.1852 129.356 86.7789C129.263 87.3541 129.059 87.9015 128.743 88.4211C128.261 89.2004 127.612 89.757 126.795 90.091C125.997 90.4065 125.209 90.5642 124.429 90.5642C123.65 90.5642 122.852 90.4065 122.036 90.091C121.238 89.757 120.598 89.2004 120.115 88.4211C119.8 87.9015 119.586 87.3541 119.475 86.7789C119.382 86.1852 119.336 85.3966 119.336 84.4131V72.8068ZM144.936 91.3713H146.328L140.26 82.604C141.077 82.604 141.838 82.4834 142.543 82.2422C143.619 81.8711 144.407 81.2866 144.908 80.4887C145.409 79.6723 145.66 78.7538 145.66 77.7332C145.66 75.9705 145.02 74.6438 143.74 73.7532C142.812 73.1223 141.504 72.8068 139.815 72.8068H137.143V91.3713H138.368V82.604H138.924L144.936 91.3713ZM138.368 81.4907V73.9201H139.899C141.142 73.9201 142.088 74.1057 142.738 74.4768C143.832 75.0706 144.38 76.1468 144.38 77.7054C144.38 78.8929 143.999 79.8207 143.239 80.4887C142.496 81.1567 141.466 81.4907 140.149 81.4907H138.368ZM18.6306 40.8323L18.5527 40.391L19.0052 40.3763C19.0607 40.6915 18.8938 40.8509 18.6306 40.8323ZM18.6306 40.8323C18.4525 40.9287 18.4117 41.0659 18.4229 41.129C18.612 41.0956 18.6639 41.0215 18.6306 40.8323ZM18.1632 41.4998C18.1387 41.3606 18.2005 41.3118 18.3014 41.2321C18.3376 41.2036 18.3788 41.1711 18.4229 41.129C18.3932 41.3292 18.3524 41.4664 18.1632 41.4998ZM18.1632 41.4998C17.963 41.4701 17.8369 41.4923 17.8702 41.6814C18.0594 41.6481 18.1855 41.6258 18.1632 41.4998ZM17.6736 42.0411C17.7046 41.9707 17.7227 41.9097 17.7378 41.8589C17.768 41.7572 17.7862 41.6962 17.8702 41.6814C17.9036 41.8706 17.8628 42.0078 17.6736 42.0411ZM17.3102 42.5602C17.3176 42.2339 17.3584 42.0967 17.6736 42.0411C17.7126 42.2618 17.732 42.3721 17.6866 42.437C17.6411 42.5019 17.5308 42.5213 17.3102 42.5602ZM17.3102 42.5602C17.3324 42.6863 17.3027 42.8866 17.0728 43.0571C17.0808 43.0029 17.0742 42.9464 17.0677 42.8917C17.0503 42.7443 17.0344 42.6089 17.3102 42.5602ZM33.2357 55.0929C33.1955 55.0809 33.1616 55.0734 33.1336 55.0672C33.066 55.0522 33.0322 55.0447 33.0243 55.0001C33.0243 55.0001 33.0873 54.989 33.1912 54.8407C33.1578 54.6516 33.1356 54.5255 33.3136 54.4291C33.5759 54.3364 33.6489 54.1113 33.722 53.8861C33.7512 53.7961 33.7804 53.706 33.8218 53.6244C34.0545 53.292 33.9237 52.9715 33.8087 52.6896C33.7954 52.6571 33.7823 52.625 33.77 52.5935C33.707 52.6046 33.7367 52.4044 33.7886 52.3302C33.8294 52.193 34.0074 52.0966 34.1854 52.0002C34.3523 51.8408 34.3412 51.7778 34.2559 51.6628C34.0965 51.4959 34.1262 51.2957 34.23 51.1473C34.2435 51.1207 34.2566 51.0947 34.2693 51.0694C34.3927 50.8234 34.484 50.6415 34.6454 50.5541C34.7164 50.4528 34.6735 50.3177 34.6366 50.2012C34.5925 50.0619 34.5568 49.9493 34.7345 49.9533C34.8525 49.9325 34.9199 49.769 34.9918 49.5949C35.0352 49.4898 35.0802 49.3808 35.1388 49.297C35.2538 49.2117 35.3465 49.0004 35.3651 48.7371C35.35 48.6516 35.3888 48.5699 35.4268 48.4896C35.473 48.3923 35.5181 48.297 35.4653 48.1994C35.3501 47.9867 35.4918 47.9143 35.6173 47.8502C35.7019 47.807 35.7792 47.7675 35.7658 47.6914C35.7538 47.6235 35.7905 47.5471 35.8289 47.4673C35.8974 47.3248 35.9709 47.1719 35.7807 47.0387C35.7065 46.9868 35.6843 46.8607 35.6732 46.7977C35.8468 46.6318 35.9231 46.4128 36.0018 46.1871C36.0743 45.9788 36.1489 45.7647 36.3038 45.5814C36.4484 45.2959 36.53 45.0215 36.5375 44.6952C36.4567 44.4485 36.5674 44.3177 36.6877 44.1755C36.7772 44.0697 36.872 43.9575 36.8973 43.7867L36.8751 43.6606C36.8195 43.3454 36.8381 43.0821 36.8567 42.8189V42.8188C36.9902 42.4703 37.1238 42.1217 37.2276 41.9734L37.4539 41.4134C37.6649 40.8627 37.6723 40.3074 37.6789 39.8077C37.6806 39.6749 37.6824 39.546 37.6878 39.4221C38.0143 38.3245 38.2369 37.3752 37.9108 36.2626C37.9405 36.0624 37.9702 35.8622 38.0629 35.6508L38.0926 35.4506C37.8479 35.1687 37.8331 34.7163 37.8294 34.3269C37.7702 33.6223 37.4996 32.825 37.1474 32.3021C37.0143 32.1487 36.9624 32.0195 36.917 31.9068C36.879 31.8122 36.8457 31.7292 36.773 31.653C36.5584 31.1982 36.2505 30.9141 35.9475 30.6346L35.9475 30.6346L35.9474 30.6345C35.8107 30.5084 35.675 30.3832 35.5494 30.2437C35.0933 29.8691 34.5445 29.7059 33.9957 29.5426C33.8517 29.5325 33.7037 29.5278 33.5536 29.5232H33.5535C33.1548 29.5107 32.7405 29.4978 32.3418 29.3792L32.1527 29.4126C31.7754 29.6353 31.41 29.6891 31.0526 29.7417L31.0526 29.7417C30.9639 29.7548 30.8757 29.7677 30.788 29.7832L29.5419 30.458C28.9967 30.6841 28.5146 30.8991 28.0436 31.1772C28.0014 31.2085 27.9583 31.241 27.9145 31.2741C27.6 31.5112 27.2415 31.7816 26.8087 31.9149C26.6752 31.8952 26.6175 31.9776 26.5444 32.0819C26.5078 32.1341 26.4674 32.1918 26.4118 32.2449C26.3392 32.4104 26.1825 32.5509 26.0377 32.6806L26.0377 32.6806C25.9976 32.7166 25.9585 32.7517 25.9222 32.7863C25.8844 32.8726 25.7773 32.8736 25.6691 32.8745C25.5123 32.876 25.3533 32.8774 25.3993 33.1385C25.2213 33.2349 24.8764 33.4907 24.9097 33.6798C24.8059 33.8282 24.6279 33.9246 24.4388 33.9579C24.0716 34.0876 23.812 34.4584 23.5004 34.9034C23.3966 35.0517 23.1147 35.2964 22.8328 35.5411C22.591 35.7918 22.3457 36.0222 22.1003 36.2527L22.1003 36.2527C21.7322 36.5985 21.3641 36.9442 21.0081 37.358C20.4777 38.0365 19.7693 38.8115 19.2167 39.3639C18.831 39.7569 18.6752 39.9794 18.5527 40.391C18.3636 40.4244 18.1745 40.4577 18.1967 40.5838C18.1689 40.7713 18.0387 40.8629 17.9096 40.9537C17.7629 41.0568 17.6177 41.159 17.6255 41.3996C17.3926 41.4758 17.3054 41.6217 17.2096 41.7817C17.1284 41.9174 17.0412 42.0632 16.8541 42.1856C16.728 42.2078 16.55 42.3042 16.5945 42.5564C16.4967 42.8851 16.3297 43.0861 16.1358 43.3196C16.006 43.4759 15.8641 43.6467 15.7228 43.8802C15.6183 44.1184 15.4832 44.3 15.3314 44.5041C15.2138 44.6623 15.0862 44.8338 14.955 45.0556C14.8544 45.3939 14.6608 45.6251 14.4689 45.8543C14.3494 45.9969 14.2306 46.1388 14.1353 46.3052C14.0111 46.5221 13.91 46.6861 13.809 46.8502L13.8089 46.8502C13.7078 47.0143 13.6068 47.1784 13.4825 47.3953C13.4528 47.5956 13.4231 47.7958 13.2043 48.0294L12.5515 49.1196C12.195 49.6287 12.0523 50.2014 11.9079 50.7809C11.8209 51.1299 11.7333 51.4813 11.5981 51.8228C11.5868 52.8648 11.7869 53.9996 12.458 54.8563L13.0104 55.409C13.7076 55.6761 14.5308 55.9209 15.2762 55.7245C15.4428 55.6951 15.6136 55.6372 15.7833 55.5797L15.7833 55.5797C16.0631 55.4848 16.3397 55.391 16.589 55.428C16.6628 55.415 16.7074 55.3625 16.7444 55.319C16.7705 55.2883 16.7928 55.262 16.8189 55.2574C16.8331 55.2457 16.8471 55.234 16.861 55.2224C16.8802 55.2064 16.8992 55.1906 16.9179 55.175L16.9179 55.175C17.2643 54.8862 17.5279 54.6663 17.8536 54.49C18.0219 54.3651 18.0551 54.2641 18.0972 54.136C18.1126 54.0891 18.1292 54.0386 18.1541 53.982C18.269 53.8967 18.2468 53.7706 18.2357 53.7076C18.191 53.7154 18.1529 53.714 18.1172 53.7127H18.1171C18.0519 53.7102 17.9947 53.7081 17.9205 53.7631C17.4384 53.9782 16.934 54.0671 16.4297 54.156L16.4297 54.156C15.6082 54.5224 14.8675 54.5442 14.0676 54.5678L14.0672 54.5678C13.9284 54.5719 13.7878 54.5761 13.6447 54.5821C13.3294 54.6377 13.0959 54.4188 12.8511 54.137L12.7919 53.4324C12.8614 53.3053 12.9151 53.1809 12.9675 53.0597L12.9675 53.0597C13.0634 52.8379 13.1547 52.6265 13.3298 52.4275C13.5818 51.9565 13.8266 51.444 14.0763 50.9212C14.3593 50.3286 14.6485 49.7229 14.9619 49.1496C15.0954 48.801 15.2809 48.3783 15.5516 48.0705C16.1117 47.1917 16.6718 46.313 17.5063 45.5158L17.9625 44.7853C18.1072 44.4998 18.3038 44.1401 18.5745 43.8323C19.3043 43.0194 20.0018 42.1692 20.6986 41.3199C21.9213 39.8296 23.1419 38.3419 24.531 37.0618C25.1875 36.361 25.9589 35.5749 26.6376 35.0002C27.2125 34.5739 27.7243 34.1586 28.225 33.6803C28.5159 33.3788 28.8952 33.152 29.2836 32.9197C29.7024 32.6693 30.1319 32.4125 30.4725 32.049L30.7988 32.0564C31.3031 31.9675 31.7964 31.8155 32.2043 31.5486C32.4115 31.4478 32.6423 31.3905 32.8657 31.335L32.8657 31.335C33.0941 31.2783 33.3149 31.2235 33.4949 31.126L33.9992 31.0371C34.6408 30.989 35.2118 31.2783 35.3452 32.0348C35.382 32.2437 35.3756 32.4602 35.3681 32.7139V32.7139C35.3672 32.7433 35.3663 32.7732 35.3655 32.8037C35.3648 32.8277 35.3642 32.8519 35.3636 32.8766C35.4104 32.9965 35.4358 33.1101 35.46 33.2178L35.46 33.2179C35.497 33.3832 35.5309 33.5347 35.6342 33.6739C35.7195 33.7889 35.7528 33.978 35.7231 34.1783C35.6941 34.2197 35.6643 34.2562 35.6379 34.2884L35.6379 34.2884C35.5698 34.3716 35.525 34.4264 35.5785 34.4638C35.6937 35.4543 35.483 36.448 35.2844 37.3851C35.2659 37.4724 35.2475 37.5592 35.2295 37.6455C35.2394 37.7022 35.224 37.7633 35.2069 37.8307C35.186 37.9131 35.1628 38.0049 35.1812 38.109C35.2667 38.3867 35.1854 38.6526 35.1098 38.8995C35.0512 39.0911 34.9961 39.2713 35.0252 39.4366C35.0511 39.952 34.8657 40.3748 34.6802 40.7975C34.6802 40.7975 34.6394 40.9347 34.6505 40.9977C34.6908 41.5358 34.5095 42.113 34.3536 42.609L34.3536 42.609C34.3236 42.7044 34.2946 42.7967 34.2683 42.8852C34.1495 43.6862 33.9974 44.298 33.6561 44.9432C33.6691 45.0171 33.6211 45.124 33.5813 45.2126C33.5531 45.2753 33.5291 45.3287 33.5337 45.3548C33.5907 45.6782 33.4831 45.9771 33.3829 46.2555C33.3268 46.4114 33.273 46.5609 33.2517 46.7046C33.1478 46.853 33.0143 47.2015 33.0476 47.3906C32.684 49.0148 32.109 50.5463 31.4709 52.0889C31.2595 52.5487 31.0749 53.0687 30.8904 53.5888L30.8903 53.5888L30.8903 53.5889C30.7058 54.1089 30.5212 54.629 30.3098 55.0887C30.1355 55.6747 29.945 56.1687 29.7267 56.7347C29.6894 56.8314 29.6513 56.9301 29.6124 57.0318C29.0077 58.7635 28.3807 60.3691 27.6277 61.997C27.6187 62.0576 27.6186 62.1345 27.6184 62.2185C27.618 62.412 27.6175 62.6428 27.5089 62.798C27.4323 62.9493 27.29 63.0391 27.1594 63.1216C27.0436 63.1948 26.9369 63.2622 26.8933 63.3615C26.7264 63.521 26.5706 63.7434 26.489 64.0178L26.7411 63.9734C26.9303 63.94 26.9414 64.0031 26.8375 64.1514C26.5508 64.775 26.1872 65.472 25.8476 66.1232L25.8473 66.1236C25.6862 66.4325 25.5305 66.7311 25.3909 67.0066C25.3762 67.0558 25.3712 67.1118 25.3658 67.1701C25.3563 67.2743 25.3462 67.3862 25.2796 67.4813L25.3946 67.396C25.4127 67.4987 25.4179 67.5282 25.4064 67.5379C25.4018 67.5417 25.3944 67.5424 25.3842 67.5434C25.3573 67.5458 25.3103 67.5501 25.2388 67.6185L25.1868 67.6926C25.1953 67.7408 25.2114 67.7781 25.2251 67.81C25.2473 67.8616 25.2634 67.899 25.2313 67.9448C25.2016 68.145 25.1497 68.2192 24.9939 68.4417L25.0161 68.5678C24.867 68.8498 24.7624 69.1737 24.6539 69.51C24.5141 69.9429 24.3678 70.3963 24.111 70.8075C24.0727 71.3505 23.8293 71.8088 23.5836 72.2712C23.3529 72.7055 23.1203 73.1435 23.0537 73.659C22.474 74.5559 22.0723 75.6196 21.713 76.5712C21.6609 76.7094 21.6096 76.8452 21.5588 76.9778C21.12 77.7931 20.7937 78.5886 20.4612 79.3991C20.2373 79.945 20.0106 80.4977 19.7449 81.0678L18.2463 83.9971C18.201 84.0308 18.1671 84.0725 18.1351 84.1121C18.0859 84.1728 18.0408 84.2284 17.9644 84.2419C17.5788 84.2665 17.4765 84.5879 17.3743 84.9093C17.3232 85.07 17.2721 85.2306 17.1855 85.3542L17.2707 86.5743C17.2762 86.6058 17.3346 86.6605 17.393 86.7152C17.4514 86.7699 17.5098 86.8246 17.5154 86.8562C17.4894 86.8932 17.5265 86.9192 17.5728 86.9517C17.6192 86.9841 17.6748 87.023 17.6859 87.0861C17.7312 87.3431 17.9067 87.4871 18.1145 87.6578C18.2126 87.7383 18.3178 87.8247 18.42 87.9317C18.4272 87.9353 18.4343 87.9389 18.4413 87.9425C18.4511 87.9475 18.4608 87.9525 18.4703 87.9574C18.7242 88.0876 18.8747 88.1648 19.1988 87.9244C19.2606 87.8361 19.3301 87.7579 19.4 87.6792C19.5649 87.4936 19.7326 87.3047 19.8108 86.9714C19.7897 86.8515 19.8028 86.7778 19.8124 86.7239C19.818 86.6927 19.8223 86.6682 19.8183 86.6451C20.1854 86.5154 20.2781 86.304 20.1706 86.0629C20.167 85.6736 20.1856 85.4103 20.3413 85.1878C20.7864 84.3943 21.1277 83.7491 21.4356 82.9148C21.4544 82.8515 21.4687 82.7821 21.4833 82.7113C21.5319 82.4752 21.5837 82.2236 21.8177 82.1323C21.8223 82.1585 21.8466 82.17 21.8751 82.1834C21.9154 82.2024 21.9641 82.2254 21.9771 82.2992L22.0179 82.162C22.0179 82.162 21.9438 82.1101 21.8177 82.1323L22.4557 80.5898C22.4854 80.3895 22.5782 80.1782 22.7673 80.1448C23.2625 79.9517 23.3791 79.5667 23.4774 79.2422C23.4999 79.1681 23.5214 79.0972 23.5462 79.0324C23.7872 78.9249 23.7317 78.6097 23.7094 78.4836L24.1174 78.2167L24.084 78.0276C24.0154 78.0072 23.9496 78.0025 23.8838 77.9979C23.818 77.9932 23.7521 77.9886 23.6835 77.9682L23.9209 77.4713C23.9803 77.0708 24.0508 76.7333 24.4736 76.9188C24.6627 76.8855 24.8482 76.4627 24.6776 76.2328C24.6748 76.2171 24.6628 76.1948 24.6492 76.1698C24.6086 76.0947 24.5543 75.9945 24.6962 75.9695C24.9261 75.799 24.915 75.7359 24.7445 75.506C24.7493 75.293 24.8221 75.1511 24.9092 74.9813C24.9556 74.891 25.006 74.7927 25.0524 74.6717C25.4232 74.9313 25.4937 74.5938 25.5234 74.3936C25.6903 74.2342 25.5419 74.1303 25.3306 74.0376C25.3158 73.5852 25.4605 73.2996 25.6682 73.003C25.7374 72.9041 25.8726 72.8514 26.0077 72.7987C26.0753 72.7723 26.1429 72.746 26.2022 72.7138C26.1985 72.6928 26.1606 72.6417 26.1164 72.5821C26.028 72.4629 25.9143 72.3096 25.9983 72.2948C26.0394 72.2136 26.0515 72.1166 26.0632 72.0225C26.0927 71.7855 26.1198 71.5672 26.6029 71.6681C26.6502 71.6598 26.6787 71.5451 26.7072 71.4304C26.7167 71.3921 26.7262 71.3539 26.7364 71.3196C26.7338 71.3046 26.7228 71.2838 26.7099 71.2594C26.6686 71.1813 26.6081 71.0667 26.7439 70.9932C26.9648 70.9152 27.0555 70.7659 27.1428 70.6223C27.2006 70.5272 27.2568 70.4345 27.3484 70.3666C27.532 70.1044 27.4319 69.8922 27.3418 69.7013C27.3045 69.6222 27.2689 69.5467 27.2558 69.4729C27.2225 69.2838 27.2744 69.2096 27.4747 69.2393C27.4969 69.3654 27.5599 69.3543 27.6007 69.2171C27.8553 69.1722 27.868 68.9581 27.8792 68.7718C27.8818 68.7274 27.8844 68.6846 27.8901 68.646C27.9531 68.6349 28.057 68.4866 28.057 68.4866C28.057 68.4866 28.0459 68.4236 27.9198 68.4458C27.9233 68.4658 27.9257 68.4795 27.926 68.4932C27.9268 68.5226 27.9179 68.5524 27.8901 68.646C27.6898 68.6163 27.5304 68.4494 27.6343 68.3011C27.6639 68.1009 27.8717 67.8042 28.1127 67.6967C28.383 67.5291 28.385 67.4088 28.3896 67.1349L28.3896 67.1345C28.3899 67.1117 28.3903 67.0877 28.3909 67.0627C28.2514 66.8377 28.3415 66.6105 28.4278 66.393C28.4539 66.3272 28.4796 66.2623 28.4986 66.1986L28.6877 66.1653C28.888 66.195 28.8768 66.1319 28.8435 65.9428C28.8954 65.8686 28.8213 65.8167 28.8213 65.8167C28.799 65.6906 28.736 65.7017 28.736 65.7017C28.7249 65.6387 28.8287 65.4904 28.8287 65.4904C28.8454 65.4342 28.8478 65.3588 28.85 65.2928C28.853 65.1977 28.8554 65.1223 28.8992 65.1529C28.9633 65.0997 29.0277 65.048 29.0911 64.9972C29.4203 64.733 29.7238 64.4895 29.8264 64.1444C29.8117 63.692 29.9452 63.3434 30.2901 63.0876C30.2971 63.0405 30.3006 62.9941 30.304 62.9485C30.3152 62.8001 30.3257 62.6607 30.4534 62.5388C30.4423 62.4757 30.5461 62.3274 30.6611 62.2421C30.5833 61.8008 30.7057 61.3892 30.9134 61.0926C30.7243 61.1259 30.702 60.9999 30.8059 60.8515C30.8875 60.5771 31.0211 60.2286 31.251 60.058C31.3549 59.9097 31.3215 59.7206 31.2993 59.5945C31.4773 59.4981 31.5812 59.3498 31.6108 59.1495C31.4736 59.1087 31.3773 58.9307 31.3661 58.8677C31.4997 58.5191 31.6963 58.1594 31.967 57.8517C31.9791 57.7705 32.0434 57.7442 32.1113 57.7164C32.211 57.6756 32.3183 57.6317 32.2786 57.4067C32.1413 57.2485 32.2433 57.171 32.3515 57.0888C32.4361 57.0245 32.5244 56.9574 32.5049 56.8468C32.4702 56.3045 32.8069 55.9252 33.0722 55.6264L33.0902 55.6061C33.1018 55.5931 33.1132 55.5802 33.1243 55.5675C33.1767 55.5287 33.1721 55.4728 33.1664 55.4026C33.1595 55.3186 33.1509 55.214 33.2357 55.0929ZM33.2357 55.0929L33.2023 54.9037C33.2134 54.9668 33.2765 54.9557 33.4026 54.9334C33.3689 54.9584 33.3397 54.977 33.3155 54.9924C33.257 55.0297 33.2278 55.0483 33.2357 55.0929ZM31.2993 59.5945C31.2753 59.5777 31.2621 59.5453 31.2497 59.5146C31.2237 59.4506 31.2008 59.394 31.0879 59.5018C31.0879 59.5018 31.2251 59.5426 31.2993 59.5945ZM25.3306 74.0376C25.3167 74.0574 25.2974 74.0736 25.2796 74.0886C25.2308 74.1295 25.1923 74.1618 25.3009 74.2378C25.3009 74.2378 25.2787 74.1117 25.3306 74.0376ZM23.4573 78.5281L23.7094 78.4836L23.6835 77.9682C23.4927 78.0533 23.4808 78.2291 23.4694 78.398C23.4664 78.4424 23.4634 78.4864 23.4573 78.5281ZM23.4573 78.5281C23.3219 78.682 23.2542 78.7589 23.2653 78.822C23.2764 78.885 23.3663 78.9341 23.5462 79.0324L23.4573 78.5281ZM25.0381 70.904C24.9574 71.0192 24.9394 71.1931 24.9206 71.3736C24.9032 71.5417 24.8852 71.7156 24.8154 71.8533C24.6708 72.1388 24.6633 72.4652 24.6967 72.6543C24.4964 72.6246 24.4037 72.836 24.3109 73.0473C24.0783 73.895 23.6922 74.6588 23.2974 75.44L23.2973 75.4401C23.0876 75.855 22.8755 76.2748 22.6825 76.7146C22.5192 77.2634 22.2818 77.7603 21.9703 78.2053C21.9752 78.2332 21.9408 78.2553 21.8974 78.2832C21.8429 78.3182 21.7742 78.3624 21.7514 78.4389C21.7181 78.2497 21.6736 77.9976 21.7664 77.7862L22.167 76.7405C22.3192 76.5231 22.3771 76.2777 22.4363 76.0266C22.4781 75.8495 22.5206 75.6695 22.5973 75.4946C22.8612 75.3309 22.9777 74.9297 23.0877 74.5508C23.0999 74.5091 23.1119 74.4675 23.1241 74.4266L23.7139 73.3476L24.0143 72.8396C24.1553 72.1647 24.2963 71.4898 24.4707 71.0041C24.9118 70.621 25.0555 70.1312 25.2002 69.6378C25.2405 69.5007 25.2808 69.3633 25.3275 69.2279C25.5427 68.6049 25.7579 67.9819 26.1103 67.3998C26.1554 67.3353 26.1662 67.2152 26.1778 67.0871C26.1927 66.9208 26.2089 66.7408 26.3032 66.6507C26.3503 66.5835 26.4229 66.4716 26.5105 66.3367L26.5107 66.3364C26.8095 65.8763 27.2821 65.1486 27.5086 65.0081L27.1524 66.306C27.0974 66.4314 27.0489 66.5614 27.0008 66.6903C26.8869 66.9957 26.7753 67.2947 26.5849 67.5111C26.4168 67.71 26.3805 67.9563 26.3461 68.19C26.3144 68.4051 26.2843 68.6096 26.1546 68.757C26.0099 68.8827 25.916 69.1021 25.8152 69.3376C25.7197 69.5608 25.618 69.7985 25.4609 69.9844C25.3301 70.098 25.3063 70.2628 25.2828 70.4261C25.2556 70.6144 25.2288 70.8007 25.0381 70.904ZM18.9768 84.4534C18.8656 83.8229 19.1141 83.3891 19.4146 82.8811C19.7565 82.5968 19.8561 82.307 19.9887 81.9215C20.01 81.8596 20.0321 81.7952 20.0563 81.7279C20.2281 81.0192 20.553 80.3941 20.8869 79.7518C21.0648 79.4094 21.2453 79.0621 21.4065 78.6947C21.3991 78.6526 21.5038 78.5909 21.6085 78.5291C21.6608 78.4982 21.7131 78.4673 21.7514 78.4389C21.8181 78.8171 21.7587 79.2176 21.603 79.4401C21.1996 80.0681 20.9429 80.7268 20.6936 81.3661C20.5647 81.6969 20.4377 82.0226 20.2935 82.3361C20.1081 82.7588 19.3106 84.1345 18.9768 84.4534ZM18.9768 84.4534C18.9804 84.8427 18.8691 85.3174 18.5242 85.5732C18.4834 85.7104 18.4204 85.7215 18.2943 85.7438L18.2609 85.5546C18.3882 85.404 18.448 85.2147 18.5047 85.0352C18.5917 84.7596 18.6714 84.5072 18.9768 84.4534ZM25.0119 72.5987L25.0674 72.9139C25.1464 73.1832 25.1871 73.3221 25.1366 73.4064C25.0828 73.4962 24.9254 73.524 24.6001 73.5814C24.5901 73.5247 24.6056 73.4635 24.6226 73.3962C24.6435 73.3137 24.6667 73.2219 24.6484 73.1178C24.7003 73.0437 24.73 72.8434 24.6967 72.6543L25.0119 72.5987ZM25.1751 72.0499C25.1729 72.1458 25.1851 72.2279 25.1955 72.2975C25.2204 72.4647 25.2345 72.5595 25.0119 72.5987C25.0072 72.5723 25.0011 72.5448 24.9949 72.5168L24.9948 72.5167C24.9565 72.3445 24.9136 72.1519 25.1751 72.0499ZM25.1751 72.0499C25.1418 71.8608 25.0973 71.6086 25.4236 71.6161C25.3916 71.6891 25.391 71.7644 25.3904 71.8313C25.3894 71.958 25.3887 72.0548 25.1751 72.0499ZM30.3354 57.8144C29.9644 58.6598 29.7604 59.3458 29.5155 60.169C29.2373 60.8031 27.8054 64.1107 27.6014 64.7968L26.9338 65.4345C26.9338 65.4345 28.0282 62.0564 28.0912 62.0452C28.4881 61.7153 28.6736 61.2925 28.7218 60.829C28.7848 60.4913 28.9355 60.215 29.1078 59.8991C29.2098 59.712 29.3195 59.5111 29.4229 59.2753L29.9349 57.755L30.3317 57.425C30.3539 57.5511 30.3873 57.7402 30.3354 57.8144ZM31.2035 54.9962L31.2591 55.3114C31.1603 55.4524 31.1376 55.5801 31.1209 55.6735C31.1113 55.7274 31.1037 55.77 31.0847 55.7971C30.9934 56.0053 30.9281 56.2018 30.866 56.3884C30.739 56.7705 30.6257 57.1111 30.3317 57.425C30.33 57.3714 30.3272 57.3172 30.3244 57.2624C30.3034 56.8546 30.2811 56.4204 30.6768 56.0641C30.7733 55.961 30.8222 55.8031 30.8754 55.6314C30.9428 55.4139 31.017 55.1744 31.2035 54.9962ZM31.2035 54.9962C31.2003 54.9781 31.198 54.9652 31.1989 54.9525C31.2009 54.9209 31.2222 54.8906 31.2962 54.7848L31.3185 54.9109C31.2411 54.9245 31.2112 54.9298 31.2022 54.9464C31.1966 54.9568 31.1992 54.9718 31.2035 54.9962ZM28.3021 65.4532C28.2132 65.6036 28.1418 65.7565 28.0718 65.9065C27.9054 66.2633 27.7467 66.6032 27.3786 66.8511C27.3452 66.662 27.3527 66.3357 27.5085 66.1132C27.6929 65.895 27.7949 65.6912 27.8969 65.4875C27.9735 65.3347 28.05 65.182 28.1613 65.023C28.1613 65.023 28.2132 64.9489 28.2763 64.9378C28.2243 65.0119 28.2985 65.0639 28.2985 65.0639C28.3318 65.253 28.3541 65.3791 28.3021 65.4532ZM27.3786 66.8511C27.4105 66.8941 27.439 66.9309 27.4641 66.9632C27.5729 67.1035 27.6157 67.1587 27.5825 67.2702C27.4564 67.2924 27.3998 67.4324 27.3432 67.5724C27.2867 67.7124 27.2301 67.8524 27.104 67.8746C26.9224 67.5816 27.0448 67.17 27.3786 66.8511ZM19.8619 39.7052C19.7469 39.7904 19.6839 39.8016 19.4947 39.8349C19.6394 39.4771 19.8839 39.2343 20.153 38.9673C20.3049 38.8166 20.4646 38.6581 20.6186 38.4667L20.9449 38.4742C20.7313 38.8957 20.4531 39.1515 20.1669 39.4147L20.1668 39.4147C20.0653 39.5081 19.9628 39.6023 19.8619 39.7052ZM21.0895 38.1886C21.0265 38.1997 20.9226 38.3481 20.9449 38.4742C21.0599 38.3889 21.1118 38.3147 21.0895 38.1886ZM19.287 40.1315C19.3142 40.0696 19.3315 40.015 19.3458 39.9698C19.3804 39.8606 19.3977 39.806 19.4947 39.8349C19.5281 40.024 19.4131 40.1093 19.287 40.1315ZM19.0682 40.3651C19.109 40.2279 19.224 40.1427 19.287 40.1315C19.3093 40.2576 19.1943 40.3429 19.0682 40.3651ZM22.5264 79.1472C22.5077 79.1611 22.4877 79.1769 22.4672 79.1931C22.3611 79.2767 22.2409 79.3715 22.2223 79.2659C22.2144 79.2212 22.1893 79.1714 22.1658 79.1248C22.1229 79.0397 22.0853 78.965 22.1667 78.9507C22.2312 78.8891 22.2669 78.7744 22.3069 78.6456C22.3706 78.4411 22.4452 78.2013 22.6637 78.083C22.8162 78.3963 22.7323 78.606 22.6291 78.8639C22.5943 78.9509 22.5573 79.0434 22.5264 79.1472ZM31.0176 58.7341C30.9808 58.7867 30.9612 58.8443 30.9429 58.8984C30.9094 58.9969 30.8801 59.0834 30.7579 59.1049C30.6949 59.116 30.6727 58.9899 30.6727 58.9899C30.5355 58.9491 30.5132 58.823 30.5132 58.823C30.6359 58.7166 30.6406 58.5694 30.6455 58.4142C30.652 58.2126 30.6589 57.9975 30.925 57.8404L31.0176 58.7341ZM30.925 57.8404C31.281 57.6476 31.4257 57.3621 31.359 56.9838C31.0141 57.2397 30.9213 57.451 30.925 57.8404ZM31.3998 56.8466L31.359 56.9838C31.359 56.9838 31.5481 56.9505 31.3998 56.8466ZM26.7293 69.4357L26.2583 69.7138C26.2546 69.3244 26.377 68.9128 26.67 68.7311C26.7117 68.7603 26.7369 68.8129 26.7662 68.8737L26.7662 68.8737C26.789 68.9212 26.8143 68.9737 26.8517 69.0241C26.9481 69.2021 26.8962 69.2763 26.7293 69.4357ZM26.67 68.7311C26.6144 68.4159 26.6849 68.0785 27.1263 68.0007L27.1596 68.1898C27.1627 68.2071 27.1761 68.2276 27.19 68.2487C27.2268 68.3046 27.267 68.3659 27.1299 68.3901L26.67 68.7311ZM23.5465 76.8223C23.4985 76.8908 23.4572 76.9582 23.4176 77.0229C23.2858 77.238 23.1723 77.4233 22.89 77.5231C22.8469 77.2785 22.9325 77.1471 23.0344 76.9905C23.0901 76.905 23.1507 76.8119 23.1979 76.6887C23.3759 76.5923 23.502 76.5701 23.5131 76.6331C23.5225 76.6864 23.5412 76.7265 23.5549 76.7558C23.5736 76.7958 23.5829 76.8159 23.5465 76.8223ZM24.498 34.6625C24.1197 34.7292 23.8379 34.9739 23.6635 35.4597C24.1678 35.3707 24.4275 34.9999 24.498 34.6625ZM23.6635 35.4597C23.4744 35.493 23.4113 35.5041 23.4447 35.6933C23.5819 35.7341 23.6857 35.5858 23.6635 35.4597ZM23.415 35.8935C23.415 35.8935 23.3928 35.7674 23.4447 35.6933C23.3816 35.7044 23.1925 35.7377 23.415 35.8935ZM25.3028 34.0656C24.9876 34.1211 24.6204 34.2509 24.498 34.6625C24.9916 34.6377 25.0976 34.4428 25.2783 34.1105L25.3028 34.0656ZM25.5105 33.7689C25.3733 33.7281 25.2694 33.8764 25.3028 34.0656C25.3568 34.0139 25.4012 33.9845 25.4353 33.9618C25.5064 33.9145 25.533 33.8968 25.5105 33.7689ZM25.5105 33.7689C25.4883 33.6428 25.5402 33.5687 25.7293 33.5353C25.6885 33.6725 25.5735 33.7578 25.5105 33.7689ZM25.7293 33.5353C25.8178 33.3045 25.885 33.277 25.9872 33.2351C26.0393 33.2138 26.1004 33.1888 26.1781 33.1312C26.0445 33.4798 25.9184 33.502 25.7293 33.5353ZM26.2619 70.1032C26.2843 70.2303 26.2977 70.3061 26.2685 70.358C26.2252 70.4347 26.0887 70.4587 25.7501 70.5184C25.6834 70.1402 25.9134 69.9696 26.2063 69.788L26.2619 70.1032ZM25.7501 70.5184L25.776 71.0339C25.6336 70.9342 25.5595 70.8823 25.551 70.8213C25.5418 70.7553 25.6093 70.6784 25.7501 70.5184ZM30.0605 61.048C30.0088 61.0973 29.955 61.1346 29.903 61.1707C29.7868 61.2512 29.6792 61.3257 29.6229 61.5152L29.634 61.5782C29.6284 61.5467 29.5913 61.5207 29.5543 61.4948C29.5172 61.4688 29.4801 61.4428 29.4745 61.4113C29.4271 61.1421 29.5419 60.9865 29.6735 60.8082C29.6959 60.7778 29.7189 60.7466 29.7416 60.7142L29.9641 60.87C30.0383 60.9219 30.0605 61.048 30.0605 61.048ZM21.8364 80.764C21.7951 80.7946 21.7443 80.8185 21.6913 80.8434C21.5967 80.888 21.495 80.9358 21.4285 81.0309C21.3951 80.8418 21.3729 80.7157 21.4878 80.6304C21.5287 80.4932 21.6325 80.3449 21.8736 80.2374C21.9255 80.1632 21.9403 80.6157 21.8364 80.764ZM21.4285 81.0309L21.4321 81.4203L21.243 81.4537C21.2492 81.4119 21.2526 81.3706 21.2559 81.331C21.2684 81.1813 21.2788 81.0573 21.4285 81.0309ZM26.8679 32.6195C27.0014 32.271 27.1794 32.1746 27.5577 32.1079C27.4872 32.4453 27.2053 32.69 26.8679 32.6195ZM33.0802 53.1052L32.7464 53.424L32.5981 53.3202C32.6413 53.2585 32.6608 53.1897 32.6808 53.1189C32.7089 53.0196 32.738 52.9164 32.8355 52.8233C32.8132 52.6972 32.8985 52.8122 32.8985 52.8122C32.9724 52.7992 33.0068 52.8154 33.0353 52.8289C33.0554 52.8384 33.0726 52.8465 33.0988 52.8419L33.0802 53.1052ZM30.2534 60.2989L30.0013 60.3434C30.0336 60.2697 30.0479 60.1835 30.0625 60.0951C30.0899 59.9299 30.1186 59.7574 30.2684 59.6463L30.3944 59.624C30.4686 59.676 30.4908 59.802 30.4908 59.802L30.2534 60.2989ZM36.1227 40.8681C36.1283 40.8997 36.1153 40.9182 36.1023 40.9367C36.0893 40.9553 36.0763 40.9738 36.0819 41.0053C36.0708 40.9423 35.9447 40.9645 35.9447 40.9645C35.9308 40.8856 35.9118 40.8104 35.8937 40.7384C35.8251 40.4656 35.7683 40.2399 36.0412 40.0375L36.1227 40.8681ZM24.0696 75.365C24.0458 75.4449 23.9755 75.511 23.9003 75.5816C23.8465 75.6321 23.7902 75.685 23.7469 75.7469C23.7247 75.6208 23.6913 75.4317 23.8582 75.2722C23.8879 75.072 24.192 74.9534 24.2365 75.2055C24.2476 75.2686 24.2587 75.3316 24.0696 75.365ZM36.1043 40.0263L36.0673 39.4478C36.0673 39.4478 36.2045 39.4887 36.1823 39.3626C36.2045 39.4887 36.2675 39.4775 36.2675 39.4775C36.262 39.5557 36.2732 39.6309 36.2833 39.6994C36.3074 39.8619 36.326 39.9873 36.1043 40.0263ZM27.6319 32.1598C27.5727 31.8241 27.8231 31.7922 27.9683 31.7737C27.9867 31.7714 28.0034 31.7693 28.0176 31.7668C28.0101 32.0931 27.821 32.1265 27.6319 32.1598ZM28.2475 31.5962C28.2618 31.677 28.2365 31.6847 28.1697 31.7052C28.1322 31.7166 28.0816 31.7321 28.0176 31.7668C28.0584 31.6296 28.1734 31.5443 28.2475 31.5962ZM28.2475 31.5962C28.2761 31.5554 28.3008 31.5175 28.323 31.4833C28.4219 31.3315 28.4713 31.2556 28.5924 31.3404L28.5925 31.3404C28.6698 31.3268 28.6997 31.3215 28.7138 31.334C28.7227 31.3419 28.7253 31.3569 28.7296 31.3812L28.5627 31.5407L28.2475 31.5962ZM24.3108 74.1524C24.2885 74.0263 24.296 73.7 24.6112 73.6444C24.6061 73.679 24.6032 73.7151 24.6002 73.7514C24.5862 73.9258 24.5716 74.1064 24.3108 74.1524ZM24.3108 74.1524L24.3775 74.5306C24.3255 74.6048 24.2625 74.6159 24.2625 74.6159C24.2625 74.6159 24.1364 74.6382 24.1883 74.564C24.155 74.3749 24.1328 74.2488 24.3108 74.1524ZM22.9143 36.3718C22.7993 36.4571 22.6102 36.4904 22.4841 36.5127L22.7437 36.1419L22.8809 36.1827L22.9143 36.3718ZM35.9742 41.8694C35.9569 41.8941 35.9314 41.913 35.9058 41.932C35.8547 41.9699 35.8036 42.0078 35.8185 42.0918C35.8091 42.0386 35.7924 42.0098 35.7802 41.9887C35.7635 41.9599 35.7551 41.9455 35.7851 41.9027L35.7629 41.7766C35.7445 41.6725 35.7554 41.6223 35.7651 41.5772C35.7731 41.5404 35.7803 41.507 35.7703 41.4503C35.8556 41.51 35.8919 41.5354 35.9115 41.5702C35.926 41.5958 35.9314 41.6267 35.9409 41.6802L35.9742 41.8694ZM31.6264 54.0766C31.6289 53.9678 31.6128 53.8767 31.5992 53.7997C31.5721 53.6456 31.5548 53.5475 31.7155 53.4758C31.7377 53.6019 31.7933 53.9171 31.6264 54.0766ZM31.7785 53.4647C31.7452 53.2756 31.7007 53.0234 31.9529 52.9789C31.9496 53.0256 31.9479 53.0699 31.9464 53.1114C31.9391 53.3043 31.9341 53.4373 31.7785 53.4647ZM31.9529 52.9789C31.9888 52.897 31.9852 52.8123 31.982 52.7367C31.9769 52.6172 31.9728 52.5204 32.1272 52.4932C32.1606 52.6823 32.1939 52.8714 31.9529 52.9789ZM21.0686 81.9394C21.0774 81.8802 21.0697 81.824 21.0628 81.7743C21.0465 81.6557 21.0353 81.5745 21.2652 81.5797C21.2874 81.7058 21.3208 81.895 21.0686 81.9394ZM21.861 37.4026C21.7571 37.5509 21.6719 37.4359 21.6719 37.4359L21.6496 37.3098C21.6711 37.2791 21.7162 37.2554 21.769 37.2276C21.8436 37.1883 21.9337 37.1409 21.9945 37.054C21.9648 37.2543 21.9129 37.3284 21.861 37.4026ZM21.9945 37.054C21.9834 36.991 22.0984 36.9057 22.2875 36.8723C22.2681 36.9001 22.2527 36.9248 22.2392 36.9466L22.2392 36.9466C22.1804 37.041 22.1573 37.0782 21.9945 37.054ZM31.5559 54.414C31.5559 54.414 31.4928 54.4251 31.504 54.4882C31.4928 54.4251 31.3668 54.4473 31.3668 54.4473C31.3334 54.2582 31.3112 54.1321 31.5003 54.0988L31.5559 54.414ZM32.2608 52.1446C32.2471 52.0672 32.2419 52.0374 32.2544 52.0232C32.2623 52.0143 32.2772 52.0117 32.3016 52.0074L32.3238 52.1335C32.4202 52.3115 32.3052 52.3968 32.1161 52.4301C32.105 52.3671 32.1458 52.2299 32.2608 52.1446ZM22.7898 78.0608C22.7843 78.0295 22.7768 77.9969 22.7692 77.9639C22.7308 77.7974 22.6906 77.6232 22.9011 77.5861C22.8916 77.6503 22.8951 77.7122 22.8983 77.7699C22.905 77.8921 22.9108 77.9953 22.7898 78.0608ZM20.2896 84.1569L20.1746 84.2422C20.1004 84.1902 20.004 84.0122 20.0782 84.0641C20.0671 84.0011 20.119 83.9269 20.2451 83.9047L20.2896 84.1569ZM33.9669 50.0237C33.863 50.172 33.8111 50.2462 33.6739 50.2053C33.6628 50.1423 33.7778 50.057 33.7778 50.057C33.7641 49.9797 33.7589 49.9498 33.7714 49.9357C33.7793 49.9268 33.7942 49.9241 33.8186 49.9198L33.9669 50.0237ZM20.8238 82.7626C20.8349 82.8257 20.731 82.974 20.668 82.9851L20.6235 82.7329C20.6754 82.6588 20.7385 82.6477 20.7385 82.6477C20.8646 82.6254 20.8238 82.7626 20.8238 82.7626ZM23.7394 76.0732C23.745 76.1047 23.7478 76.1205 23.7413 76.1298C23.7348 76.139 23.719 76.1418 23.6875 76.1474C23.6875 76.1474 23.5503 76.1066 23.5281 75.9805L23.758 75.8099C23.7626 75.836 23.7564 75.8641 23.7491 75.8969C23.7388 75.9433 23.7264 75.9994 23.7394 76.0732ZM32.7129 54.34L32.3977 54.3956C32.4607 54.3845 32.5126 54.3103 32.6165 54.162C32.6165 54.162 32.7018 54.277 32.839 54.3178L32.7129 54.34ZM31.615 56.2237C31.6108 56.2002 31.5907 56.1886 31.5693 56.1761C31.5331 56.1551 31.493 56.1318 31.5186 56.0457C31.5186 56.0457 31.6335 55.9604 31.6113 55.8343L31.6743 55.8232C31.6874 55.897 31.6609 56.0002 31.6391 56.0856C31.6236 56.146 31.6104 56.1976 31.615 56.2237ZM24.277 77.2785C24.277 77.2785 24.2992 77.4046 24.4253 77.3824L24.5403 77.2971L24.3919 77.1932C24.3919 77.1932 24.2659 77.2155 24.277 77.2785ZM28.1727 62.8759C28.1727 62.8759 28.1319 63.0131 28.143 63.0762C28.2061 63.065 28.3952 63.0317 28.1727 62.8759ZM28.143 63.0762C28.1311 63.1164 28.1236 63.1502 28.1174 63.1782C28.1024 63.2458 28.0949 63.2797 28.0503 63.2875C27.8908 63.1206 28.08 63.0873 28.143 63.0762ZM26.8441 70.4555L26.8738 70.2553C26.9368 70.2442 26.9683 70.2386 26.9869 70.2516C27.0054 70.2646 27.011 70.2961 27.0221 70.3592L26.8441 70.4555ZM26.2522 33.1831C26.249 33.165 26.2468 33.1522 26.2476 33.1395C26.2496 33.1079 26.2709 33.0776 26.345 32.9718C26.4414 33.1498 26.3783 33.1609 26.2522 33.1831ZM20.234 83.8417C20.2618 83.748 20.2707 83.7183 20.27 83.6888C20.2696 83.6751 20.2672 83.6614 20.2637 83.6414C20.4862 83.7972 20.297 83.8306 20.234 83.8417ZM29.2 62.4348C29.1369 62.4459 29.1258 62.3828 29.1258 62.3828C29.1258 62.3828 29.1036 62.2568 29.1666 62.2456C29.1666 62.2456 29.1889 62.3717 29.3261 62.4125C29.1889 62.3717 29.2 62.4348 29.2 62.4348ZM29.0512 65.6462C28.914 65.6053 28.9029 65.5423 28.9029 65.5423L28.8621 65.6795L28.799 65.6906L28.8843 65.8056L28.8621 65.6795L29.0512 65.6462ZM19.685 84.7835L19.6109 84.7316C19.6109 84.7316 19.6739 84.7205 19.6517 84.5944C19.6739 84.7205 19.8 84.6982 19.8 84.6982C19.8111 84.7613 19.685 84.7835 19.685 84.7835ZM21.2156 38.1664L21.2342 37.9031C21.3573 38.032 21.3102 38.0746 21.2584 38.1214C21.2432 38.1353 21.2275 38.1495 21.2156 38.1664ZM26.8493 32.8828L26.701 32.779C26.6899 32.7159 26.7529 32.7048 26.816 32.6937L26.8493 32.8828ZM21.4543 81.5464C21.5804 81.5242 21.6435 81.513 21.6546 81.5761C21.55 81.6327 21.5465 81.6266 21.5337 81.6037C21.5246 81.5876 21.5109 81.5632 21.4543 81.5464ZM20.5864 83.2595C20.4269 83.0926 20.553 83.0704 20.6902 83.1112C20.6272 83.1223 20.5956 83.1279 20.5827 83.1464C20.5697 83.1649 20.5752 83.1965 20.5864 83.2595ZM33.6034 50.5428C33.507 50.3648 33.6331 50.3426 33.6961 50.3314L33.6034 50.5428ZM25.9132 71.0747L26.0615 71.1786C25.9577 71.3269 25.9354 71.2008 25.9132 71.0747ZM16.8428 43.2277C16.8291 43.1497 16.8522 43.1398 16.884 43.1261C16.9038 43.1176 16.9268 43.1077 16.9467 43.0793C16.9578 43.1424 16.917 43.2796 16.8428 43.2277ZM16.7321 43.3174C16.7553 43.3099 16.7806 43.3017 16.8017 43.2864L16.687 43.4501C16.6326 43.3496 16.6764 43.3354 16.7321 43.3174ZM33.4624 51.2177C33.4216 51.3549 33.3994 51.2288 33.3994 51.2288C33.3882 51.1658 33.4513 51.1547 33.4513 51.1547C33.5774 51.1324 33.5885 51.1955 33.4624 51.2177ZM32.3161 54.67C32.0416 54.5884 32.2938 54.5439 32.2938 54.5439L32.3161 54.67ZM34.4233 48.1881C34.4233 48.1881 34.3491 48.1362 34.4752 48.114L34.453 47.9879L34.5382 48.1029C34.4863 48.177 34.4233 48.1881 34.4233 48.1881ZM25.4125 71.553C25.4125 71.553 25.3903 71.4269 25.4533 71.4158L25.5386 71.5308L25.4125 71.553ZM20.9128 82.1619C20.8654 82.1286 20.8741 82.1121 20.8973 82.0685C20.9103 82.044 20.9279 82.011 20.9425 81.9616C20.9648 82.0877 20.9759 82.1508 20.9128 82.1619ZM29.0745 31.1254L29.0634 31.0623C29.1895 31.0401 29.2006 31.1032 29.2006 31.1032C29.13 31.1556 29.1027 31.1758 29.0897 31.1689C29.0815 31.1646 29.0788 31.1497 29.0745 31.1254ZM21.933 79.8369L21.9107 79.7108L22.059 79.8147L21.933 79.8369ZM32.8988 50.602L32.8766 50.4759L33.0027 50.4537L32.8988 50.602ZM36.5017 35.276L36.4795 35.15L36.5314 35.0758L36.5425 35.1388C36.5425 35.1388 36.5648 35.2649 36.5017 35.276ZM32.4126 53.7429L32.4348 53.869C32.4105 53.8733 32.3955 53.8759 32.3851 53.8703C32.3685 53.8613 32.3632 53.8314 32.3496 53.754L32.4126 53.7429ZM22.3283 36.7351C22.3172 36.6721 22.3691 36.5979 22.4322 36.5868C22.4433 36.6499 22.3914 36.724 22.3283 36.7351ZM33.9929 49.4341C33.9874 49.4025 33.9846 49.3868 33.9911 49.3775C33.9976 49.3682 34.0133 49.3655 34.0449 49.3599L34.056 49.423C34.0671 49.486 34.0041 49.4971 33.9929 49.4341ZM16.2086 44.0545L16.3235 43.9692L16.3347 44.0323L16.2086 44.0545ZM33.2917 52.0928L33.1953 51.9148L33.2695 51.9668L33.2917 52.0928ZM32.6392 50.9728L32.7133 51.0248L32.6503 51.0359L32.6392 50.9728ZM79.2236 51.7942C79.1659 51.777 79.1023 51.7264 79.0331 51.6712C78.9377 51.5953 78.8316 51.5109 78.7157 51.4937C78.555 51.358 78.3249 51.3495 78.0898 51.3409C77.7658 51.3289 77.4324 51.3166 77.2584 50.9706C76.7948 50.9224 76.2052 50.8963 75.8195 51.2894C75.3877 51.6758 74.95 52.0541 74.5114 52.4331L74.5111 52.4334C73.2959 53.4836 72.0745 54.5391 70.9572 55.7869C69.9904 56.8987 69.0021 57.9554 68.0122 59.0137L68.0121 59.0138C66.6781 60.44 65.3415 61.8691 64.0513 63.4399C62.7717 65.0306 61.1658 66.6138 59.6007 68.0598C58.4435 69.2389 57.0119 70.3364 55.5434 70.8554C54.2565 71.6673 53.9376 71.3335 54.0083 69.891C54.2161 68.4893 54.487 67.0764 55.0434 65.8083C55.1108 65.6415 55.1756 65.4926 55.2362 65.3531L55.2362 65.3529C55.3793 65.0239 55.4995 64.7473 55.5776 64.414C55.6111 64.2842 55.6438 64.1506 55.677 64.0153L55.677 64.0153C55.8352 63.3704 56.0024 62.6889 56.2936 62.2076C56.6244 61.5697 56.8623 60.9124 57.1032 60.2469C57.3215 59.6436 57.5423 59.0336 57.8368 58.4254C57.8952 58.273 57.9189 58.0646 57.9435 57.8483C57.9751 57.5698 58.0082 57.278 58.1189 57.0756C58.4526 56.7567 58.5973 56.4712 58.4342 55.9149C58.4342 55.9149 58.3898 55.6627 58.4528 55.6516C58.9727 55.4679 59.1784 54.9812 59.3793 54.506L59.3794 54.506C59.4622 54.31 59.5442 54.116 59.6471 53.946C59.9752 53.2706 60.2897 52.5977 60.6007 51.9322L60.601 51.9318C61.2394 50.5658 61.8632 49.2313 62.559 47.9723C62.9653 47.3472 63.2593 46.6791 63.5549 46.0074L63.555 46.0073C63.7802 45.4956 64.0064 44.9816 64.2838 44.483C64.9144 43.2667 65.5747 41.8503 66.12 40.519C66.2506 40.3326 66.3951 40.1385 66.5427 39.9403L66.5428 39.9401C66.9235 39.429 67.325 38.8898 67.5628 38.3795C68.2731 36.6063 69.4594 34.9975 70.6561 33.3747C70.8283 33.1413 71.0006 32.9075 71.1718 32.6729C71.3065 32.4806 71.4454 32.2739 71.5881 32.0617L71.5885 32.061C71.8857 31.6188 72.1987 31.153 72.5219 30.7448C72.8965 30.2887 73.0079 29.8141 72.6779 29.4172C72.5073 29.1873 72.4295 28.746 72.5111 28.4716C72.5408 28.2713 72.4852 27.9561 72.4297 27.6409C72.2332 26.8955 71.1134 26.4429 70.468 27.2068C70.347 27.3597 70.2145 27.5188 70.0769 27.684C69.6709 28.1717 69.2205 28.7127 68.888 29.3055C68.3427 30.6367 67.523 31.8863 66.681 33.0098C66.2571 33.7101 65.7648 34.4224 65.2614 35.1509L65.2613 35.1511C64.9277 35.6337 64.5893 36.1234 64.2627 36.6213C64.1588 36.7697 64.1403 37.0329 64.1625 37.159C64.3729 38.0148 64.0423 38.5844 63.6035 39.3405C63.5631 39.4102 63.5217 39.4814 63.4798 39.5545C63.3894 39.7267 63.2979 39.9015 63.2053 40.0783L63.2041 40.0807C62.4497 41.5214 61.6224 43.1013 60.7275 44.59C60.6321 44.7994 60.5391 45.0106 60.4463 45.2216C60.0379 46.1498 59.6317 47.0728 59.0213 47.816C58.7249 48.1324 58.4626 48.4725 58.1917 48.8238L58.1916 48.8239C58.0624 48.9914 57.9313 49.1614 57.7936 49.3326C57.3565 50.4362 56.6963 51.3633 56.0459 52.2769L56.0459 52.2769C55.6255 52.8673 55.2091 53.4521 54.8597 54.0751L54.5147 54.3309C54.2528 54.4933 54.1569 54.4187 54.0865 54.3639C54.0824 54.3607 54.0784 54.3576 54.0745 54.3546C54.0704 54.3515 54.0663 54.3485 54.0623 54.3457C53.914 54.2418 53.7546 54.0749 53.8362 53.8005C53.9809 53.515 53.9253 53.1998 53.8475 52.7585C53.8329 52.7793 53.8151 52.811 53.7945 52.8476C53.7417 52.9414 53.6705 53.068 53.5878 53.1293C53.3579 53.2998 53.2429 53.3851 53.1168 53.4074C52.9908 53.4296 52.8535 53.3888 52.5791 53.3072C52.2582 53.0825 51.9019 52.9385 51.5417 52.793C51.3192 52.7032 51.0952 52.6127 50.8771 52.5022C49.933 52.2457 49.0821 52.2738 48.1348 52.3051H48.1347C47.9175 52.3123 47.6952 52.3196 47.4655 52.3237C46.3938 52.5127 45.359 53.2802 44.5246 54.0774C43.5915 55.1026 42.7687 56.3055 41.9597 57.4882C41.73 57.824 41.5014 58.1581 41.2718 58.4861C40.5745 59.3241 39.8697 60.4884 39.3949 61.4822C38.3007 63.7552 37.5327 66.0357 36.9872 68.472C36.7238 69.5585 36.5345 70.697 36.9126 71.7353C37.2313 73.1742 38.5921 74.6244 40.246 74.7878C40.6984 74.773 41.1508 74.7582 41.5699 74.5543C41.6863 74.4821 41.8009 74.4125 41.9138 74.344C42.6526 73.8954 43.3148 73.4933 43.9101 72.7116C43.9775 72.6751 44.0311 72.6131 44.0916 72.543C44.1909 72.4281 44.3088 72.2917 44.5369 72.2111C45.2156 71.6364 45.6829 70.9689 46.0539 70.1235C46.1757 70.0575 46.3115 69.8976 46.4553 69.7284C46.5215 69.6505 46.5894 69.5705 46.6584 69.4969C47.938 67.9062 49.2362 66.0522 50.3341 64.1685C50.8497 63.0376 51.4506 62.0216 52.1145 60.9944C52.3749 60.5596 52.6707 60.1496 52.9715 59.7326L52.9716 59.7325C53.4249 59.104 53.8897 58.4596 54.2621 57.6906L54.2622 57.6906C54.5737 57.2456 54.8853 56.8007 55.2932 56.5338C55.3488 56.849 55.1744 57.3348 55.0186 57.5572C54.6735 58.3439 54.3811 59.1463 54.0911 59.9422C53.9136 60.4294 53.7369 60.9142 53.5496 61.3914C53.4074 61.8696 53.262 62.3523 53.1159 62.8371L53.1157 62.8378C52.675 64.3006 52.2284 65.7828 51.8467 67.217C51.7131 67.5655 51.7279 68.018 51.7724 68.2701C51.709 70.4914 52.6246 72.7351 55.1796 73.5846C55.6653 73.759 55.9805 73.7034 56.4218 73.6256C56.9169 73.2584 57.577 73.0067 58.1392 72.7924C58.1866 72.7743 58.2332 72.7566 58.279 72.739C58.3208 72.7229 58.3619 72.7071 58.4022 72.6914C59.0215 72.5172 59.4406 72.3133 59.8263 71.9202C60.3956 71.4624 60.9277 70.9785 61.4599 70.4947L61.46 70.4946C61.9922 70.0107 62.5245 69.5269 63.0938 69.069C63.5536 68.7279 64.1804 68.2273 64.67 67.686C65.8729 66.3559 66.949 65.0481 68.0938 63.6567L68.0939 63.6566L68.0959 63.6542C68.3481 63.3476 68.6038 63.037 68.8648 62.7211C69.0908 62.5176 69.2763 62.2718 69.4688 62.0168C69.6585 61.7654 69.855 61.5051 70.1036 61.2677C70.6673 60.7782 71.0419 60.3222 71.5204 59.7178C72.2318 59.0009 72.9401 58.2659 73.6454 57.5339L73.6468 57.5324L73.6469 57.5324C74.8014 56.3342 75.948 55.1444 77.0873 54.0559C77.1333 54.016 77.1788 53.9762 77.2241 53.9366C77.7344 53.4904 78.2125 53.0722 78.8972 52.8918C78.9602 52.8807 79.2421 52.636 79.3459 52.4876C79.4609 52.4024 79.3608 51.835 79.2236 51.7942ZM43.5607 67.5022L43.5604 67.5026L43.5602 67.5029C43.0537 68.1428 42.562 68.7639 42.0787 69.3294L39.794 71.4873C39.6791 71.5725 39.553 71.5948 39.3639 71.6281L39.3639 71.6281L39.3638 71.6281C39.2897 71.5762 39.1191 71.3463 39.2119 71.1349C39.254 70.8511 39.2913 70.5609 39.3289 70.2685L39.3289 70.2681L39.3289 70.2681C39.4505 69.3228 39.575 68.355 39.8725 67.5083C40.5921 65.6913 41.2524 64.2748 42.2687 62.6655C42.3491 62.4973 42.4583 62.324 42.5712 62.145C42.7917 61.7953 43.0258 61.4239 43.0848 61.0266C43.1083 60.9651 43.1311 60.8998 43.1547 60.8325C43.2648 60.5175 43.3904 60.1583 43.6745 59.9475C44.2977 59.0576 45.0358 58.0824 45.9333 57.2741C46.9755 56.1803 48.0102 55.4128 50.1017 55.1091L51.5517 54.8534C51.8039 54.8089 51.9003 54.9869 51.8928 55.3133C51.3327 56.1921 50.8876 56.9856 50.4017 57.9163C50.1842 58.227 49.9587 58.4925 49.7101 58.7852C49.5433 58.9815 49.3662 59.1901 49.1741 59.4328C48.1528 61.2298 46.8532 63.0758 45.5867 64.875L45.5866 64.8752C45.3765 65.1736 45.1673 65.4707 44.9605 65.7661C44.4789 66.342 44.0139 66.9296 43.5607 67.5022ZM53.1238 56.3963L52.7715 56.9784C52.6437 57.1858 52.517 57.3995 52.3888 57.6159L52.3887 57.6161C52.1112 58.0843 51.8263 58.5651 51.5066 59.0215C51.2561 59.3794 51.01 59.7432 50.763 60.1087L50.7629 60.1088C49.9346 61.3337 49.0948 62.5758 48.035 63.6639C47.9432 63.795 47.7998 63.8901 47.6399 63.9961L47.6399 63.9961C47.5284 64.07 47.409 64.1492 47.2933 64.2497C47.3845 64.0417 47.5089 63.8437 47.6277 63.6546L47.6278 63.6546C47.7504 63.4593 47.8671 63.2736 47.935 63.0965C48.1427 62.7998 48.2985 62.5774 48.3393 62.4402L51.6886 57.1044C51.8111 56.6927 52.0596 56.2589 52.3822 55.877C52.538 55.6545 52.8013 55.6731 52.8866 55.7881C53.0571 56.018 53.1758 56.3221 53.1238 56.3963ZM54.8006 52.2654C55.2415 51.8442 55.4753 51.3745 55.7148 50.8936C55.8378 50.6464 55.9624 50.3962 56.1173 50.1482L56.0951 50.0221C56.2212 49.9998 56.3473 49.9776 56.3361 49.9146C57.0742 48.9394 57.6232 47.9975 58.213 46.9185C58.4837 46.6108 58.7433 46.24 59.003 45.8692L59.003 45.8691C59.2626 45.4984 59.5223 45.1276 59.793 44.8198C60.3149 44.4327 60.3325 43.9203 60.3508 43.388C60.3514 43.3686 60.3521 43.3491 60.3528 43.3297C60.354 43.2949 60.3554 43.2601 60.3569 43.2253C60.3569 43.2253 60.2197 43.1845 60.1864 42.9954C60.1864 42.9954 60.1233 43.0065 60.1567 43.1956C60.0052 43.2776 59.9611 43.4348 59.9011 43.6489C59.8905 43.6864 59.8795 43.7257 59.8673 43.7667C59.844 43.8451 59.7105 43.9004 59.6024 43.9453C59.5214 43.9789 59.4546 44.0066 59.4594 44.0336C59.3184 44.7085 58.9326 45.1015 58.4839 45.5057C58.294 45.7304 58.1773 45.9873 58.0711 46.2211C57.9968 46.3846 57.9277 46.5368 57.8422 46.6589C57.6478 46.9365 57.4508 47.1996 57.2579 47.4571C56.8842 47.9561 56.5261 48.4344 56.2324 48.9578C55.9506 49.2025 55.8801 49.54 56.0951 50.0221C55.8773 50.0605 55.7144 50.0582 55.6137 50.0567C55.5687 50.0561 55.5361 50.0556 55.5166 50.0591L54.159 52.3135C54.2028 52.32 54.2506 52.332 54.3002 52.3444L54.3003 52.3445C54.4779 52.3889 54.6788 52.4393 54.8006 52.2654ZM70.6231 58.3159C70.5186 58.3863 70.4266 58.4546 70.3411 58.518C69.9989 58.7718 69.7598 58.9492 69.2287 58.8868C69.414 58.5807 69.6813 58.332 69.9536 58.0787L69.9536 58.0787C70.1991 57.8503 70.4486 57.6182 70.6455 57.3369C70.6787 57.2895 70.7114 57.2422 70.7439 57.1951C71.0674 56.7265 71.3755 56.2803 72.0326 55.9873C72.6261 55.2976 73.2825 54.5968 74.0243 54.011C74.5138 53.4697 74.996 53.2547 75.5003 53.1657C75.1257 53.6218 74.688 54.089 74.2282 54.4301C73.008 55.6203 71.7581 57.0107 70.6231 58.3159ZM67.3149 61.3043C67.5745 60.9336 67.8453 60.6258 68.2866 60.548C68.1122 61.0338 67.8304 61.2785 67.3149 61.3043ZM68.8578 59.7322C68.8022 59.417 68.9469 59.1315 69.2621 59.0759C69.3141 59.3707 69.339 59.5124 69.2803 59.5929C69.226 59.6673 69.1001 59.6895 68.8578 59.7322ZM100.787 54.3623C100.866 54.1923 100.956 54.0167 101.05 53.8373C100.447 54.2229 99.8432 54.5922 99.2452 54.9579L99.245 54.958C98.6512 55.3212 98.0632 55.6808 97.4877 56.0491C97.4145 56.119 97.3249 56.1668 97.244 56.21C97.1403 56.2653 97.0507 56.3131 97.0278 56.3902C96.3982 57.0622 95.6239 57.5231 94.853 57.9818C94.2841 58.3204 93.7171 58.6578 93.2115 59.0782C91.9247 59.8901 90.6489 60.7651 89.4361 61.629C87.7338 63.0342 85.7868 64.1576 83.6359 64.8618C83.5562 64.905 83.4818 64.9407 83.412 64.9741C83.1698 65.0903 82.9837 65.1795 82.8311 65.4588C81.7278 66.1429 80.6444 65.9593 79.5714 65.7775C79.5046 65.7662 79.4379 65.7549 79.3712 65.7438C78.6443 65.677 78.0844 65.4507 77.5653 65.0872C76.7087 64.6532 76.249 63.8892 75.8635 63.1772C75.3667 61.8347 75.3223 61.5825 75.3743 60.4033L75.6711 59.5059C76.2796 57.0585 77.4703 54.9635 79.0948 53.1169C80.571 51.1666 82.1436 49.3942 84.0869 47.8815C84.5765 47.3401 85.3924 46.8063 86.1897 46.5357C86.4512 46.3596 86.7683 46.2224 87.0854 46.0852C87.4024 45.9481 87.7195 45.8109 87.981 45.6348C88.7005 44.9229 89.3717 44.6745 90.2172 45.0455C90.2969 45.1289 90.3757 45.115 90.4703 45.0984C90.5648 45.0817 90.6752 45.0622 90.8179 45.1346C90.8643 45.1378 90.9145 45.1404 90.9664 45.1431H90.9664C91.2089 45.1555 91.4856 45.1697 91.5559 45.2645C92.0478 45.5622 92.4285 46.0188 92.6823 46.3233C92.7289 46.3791 92.7712 46.4298 92.8091 46.4735C93.4691 47.2672 93.6247 48.1498 93.1165 48.9545C92.9552 49.2445 92.8151 49.539 92.6772 49.8289C92.2669 50.6917 91.8758 51.5141 90.9987 52.058L90.2161 52.781C88.7585 54.4681 86.7892 55.4654 84.7644 56.1474C84.3266 56.4423 83.7614 56.5318 83.2561 56.6119C83.1578 56.6274 83.0618 56.6426 82.9695 56.6589C82.581 56.7274 82.1425 56.7609 81.6812 56.7962C81.1694 56.8353 80.6297 56.8765 80.0992 56.97C79.9101 57.0034 79.784 57.0256 79.5763 57.3223C79.3717 57.7645 79.1469 58.2006 78.9224 58.6363C78.3204 59.8044 77.7202 60.9688 77.5175 62.2355C77.4395 62.8993 77.7584 63.2331 78.233 63.3444C78.3615 63.3562 78.495 63.3732 78.6307 63.3905L78.631 63.3906C79.2633 63.4713 79.9458 63.5584 80.4099 63.1556C81.5555 62.9535 82.648 62.4504 83.6728 61.9785C83.8887 61.8791 84.1015 61.7811 84.3112 61.6876C84.9304 61.4621 85.5404 61.0534 86.1341 60.6556C86.536 60.3862 86.9304 60.1219 87.3152 59.9229C88.3579 59.1834 89.1831 58.5408 90.0958 57.8301L90.0961 57.8299L90.2414 57.7168C90.4323 57.8782 90.5278 57.9588 90.6066 57.9449C90.6854 57.931 90.7476 57.8226 90.8718 57.6057C91.2353 57.0865 91.7471 56.6713 92.3331 56.3079C92.3928 56.1071 92.5777 56.0235 92.8122 55.9174C92.8981 55.8786 92.9905 55.8368 93.0859 55.7852C94.0342 55.1696 94.9896 54.5055 95.9315 53.8508C96.9014 53.1767 97.8568 52.5125 98.775 51.9219C99.1331 51.611 99.4882 51.4318 99.8498 51.2493C100.057 51.1445 100.267 51.0386 100.481 50.9061C100.952 50.628 101.527 50.2016 101.913 49.8086C102.535 49.4902 102.99 49.4107 103.469 49.7043C103.819 49.1997 104.173 48.7067 104.519 48.2237C104.802 47.8286 105.081 47.4402 105.349 47.0576C106.248 45.774 107.277 44.7323 108.382 43.6148L108.382 43.6148C108.618 43.3764 108.857 43.1346 109.099 42.8862C110.267 41.7702 111.702 41.0621 113.137 40.354C113.942 39.7571 115.989 40.3062 116.564 40.9849C116.957 41.3706 116.983 41.8861 116.519 41.8378C115.163 41.6688 114.183 42.2745 113.363 42.7813L113.363 42.7813C113.139 42.9201 112.927 43.0514 112.722 43.1574C111.481 44.1087 110.652 45.1827 109.763 46.3358C109.626 46.513 109.488 46.692 109.347 46.8727C109.063 47.4332 108.661 47.9588 108.228 48.5253L108.228 48.5254L108.228 48.5256C108 48.8247 107.762 49.1352 107.529 49.4683C106.837 50.1949 106.354 50.9707 105.864 51.7575C105.617 52.1551 105.367 52.5554 105.089 52.9538C104.84 53.1382 104.832 53.3943 104.824 53.641C104.818 53.8505 104.812 54.0533 104.658 54.1997L104.658 54.1998C103.905 55.2756 103.698 55.571 103.774 55.7031C103.803 55.7531 103.873 55.7797 103.968 55.8164C104.347 55.7497 104.639 55.5248 104.932 55.2999C105.078 55.1874 105.224 55.0749 105.381 54.9822C107.054 53.7773 108.619 52.3312 110.047 50.8444C111.675 49.3874 113.218 47.8153 114.761 46.2433L114.761 46.2432L114.761 46.243C115.918 45.0639 117.034 44.0221 118.214 42.9691C118.37 42.8721 118.487 42.7636 118.59 42.6687C118.679 42.5859 118.757 42.5135 118.841 42.4685C118.944 42.3202 119.133 42.2869 119.197 42.2757C119.604 42.7021 120.016 42.7034 120.422 42.7048C120.653 42.7055 120.881 42.7063 121.106 42.7841C121.167 42.8659 121.28 42.8726 121.413 42.8804L121.413 42.8804C121.467 42.8835 121.523 42.8868 121.581 42.8954C121.416 43.2207 121.611 43.3138 121.824 43.4153C121.985 43.4919 122.155 43.5733 122.189 43.7632C122.16 43.9031 122.212 44.062 122.263 44.2177C122.336 44.4376 122.406 44.6508 122.241 44.7941C122.121 45.1972 122.139 45.6209 122.157 46.0236C122.169 46.3062 122.181 46.5785 122.144 46.8263C121.847 47.7236 121.636 48.736 121.465 49.6111C121.302 50.1599 121.139 50.7087 121.112 51.2984C121.157 51.5481 121.053 51.7482 120.958 51.9323C120.838 52.1664 120.73 52.3747 120.957 52.6259C121.557 52.715 121.999 52.6372 122.566 52.5371C124.142 52.2592 125.651 51.6031 127.116 50.6947L130.254 48.5814C131.196 48.0175 132.126 47.4448 133.051 46.8747C135.302 45.4881 137.529 44.1166 139.852 42.9239C140.085 42.8201 140.338 42.7194 140.6 42.6152L140.6 42.6152C141.153 42.3956 141.744 42.1606 142.262 41.8488C142.451 41.8154 142.578 41.7932 142.744 41.6338L142.904 41.8007C142.852 41.8748 142.885 42.064 142.885 42.064C142.87 42.0863 142.848 42.1097 142.825 42.1352L142.825 42.1355C142.771 42.1945 142.706 42.2649 142.678 42.3606C141.543 42.5607 140.423 43.2132 139.481 43.7693L139.492 43.8324C139.826 43.8946 140.151 43.9082 140.461 43.9211H140.461C140.65 43.929 140.833 43.9367 141.009 43.9549C141.009 43.9549 140.957 44.0291 140.864 44.2405C140.434 44.3813 139.9 44.6705 139.61 45.2415C138.876 45.501 138.324 46.0535 137.982 46.6987C136.799 47.3623 134.748 48.634 134.288 48.9751C134.217 49.1372 134.201 49.1749 134.202 49.2122C134.202 49.2235 134.204 49.2348 134.207 49.2495C134.333 49.2272 134.492 49.3941 134.492 49.3941C134.664 49.3012 134.841 49.2006 135.024 49.0966L135.025 49.0961C135.411 48.8765 135.825 48.6414 136.273 48.4302L136.284 48.4933L136.221 48.5044C135.486 48.7639 135.082 49.4202 134.793 49.9912L134.604 50.0246C134.124 50.0685 133.967 50.3597 133.818 50.6372C133.728 50.8042 133.64 50.9662 133.487 51.0665L131.77 52.0193C130.643 52.9981 129.471 53.7248 128.139 54.2845C127.795 54.414 127.45 54.5356 127.102 54.6582L127.101 54.6583C126.463 54.8831 125.815 55.1111 125.15 55.3966L124.52 55.5078C123.85 56.1902 123.086 56.0565 122.371 55.9317C122.263 55.9127 122.156 55.8939 122.05 55.8783L121.982 55.8664C121.264 55.7405 120.497 55.6063 120.051 54.8656C120.004 54.7603 119.948 54.6691 119.888 54.5745L119.888 54.5743C119.812 54.4524 119.733 54.3247 119.666 54.1536C118.172 53.052 118.094 51.5056 118.142 49.937C118.124 49.3627 118.215 48.8213 118.31 48.2654C118.364 47.9454 118.419 47.6206 118.454 47.2819L118.432 47.1558C118.299 47.063 118.246 47.0255 118.216 47.0393C118.195 47.0486 118.185 47.0817 118.169 47.1372L114.248 51.0786C113.455 51.7386 112.672 52.4616 112.005 53.0993C111.759 53.3555 111.522 53.6218 111.285 53.8875C110.726 54.5143 110.169 55.1379 109.523 55.6169C108.852 56.3477 108.096 56.9908 107.346 57.6295C107.06 57.8723 106.776 58.1145 106.497 58.3607C106.43 58.3967 106.358 58.4519 106.284 58.5087C106.16 58.6037 106.029 58.7031 105.911 58.724C105.68 58.7648 105.45 58.8125 105.22 58.8603C104.76 58.9558 104.3 59.0514 103.831 59.0908C102.073 59.0758 101.276 58.2413 100.69 56.3945C100.505 55.7121 100.623 54.9111 100.787 54.3623ZM80.6409 55.2494L82.054 53.3102C82.2558 53.0947 82.4569 52.875 82.6597 52.6534C83.5562 51.6736 84.4861 50.6574 85.6627 49.8137C86.7271 48.846 88.0474 48.2232 89.4121 47.8526C89.7903 47.7859 90.0944 47.6672 90.113 47.404C90.1427 47.2037 90.3504 46.9071 90.5729 47.0629C90.625 47.0993 90.6764 47.1319 90.725 47.1627L90.7251 47.1628C90.9534 47.3075 91.1205 47.4134 91.0104 47.7007C91.066 48.016 91.1327 48.3942 90.9769 48.6167C90.7951 49.4288 90.3611 50.2854 89.7343 50.7859C88.5882 52.028 87.3347 53.0291 85.7215 53.8336C84.9686 54.3563 84.4346 54.6455 83.7225 55.0311C83.4698 55.1438 83.1448 55.2514 82.8141 55.3608C82.514 55.4602 82.2093 55.5611 81.9499 55.6687L81.9276 55.5426C81.6124 55.5982 81.3602 55.6426 81.1303 55.8132C81.073 55.8233 81.0015 55.8538 80.9234 55.8871C80.7435 55.9637 80.5289 56.0552 80.3738 55.9466C80.2774 55.7686 80.589 55.3236 80.6409 55.2494ZM128.522 52.3971L128.332 52.4304C127.464 52.1305 126.868 52.4772 126.295 52.8103C126.046 52.9551 125.801 53.0974 125.54 53.1828C125.414 53.205 125.403 53.142 125.403 53.142C125.277 53.1642 125.266 53.1012 125.266 53.1012L125.243 52.9751C125.373 52.8786 125.443 52.7928 125.49 52.7345C125.527 52.6897 125.55 52.6611 125.577 52.6562C126.065 52.4509 126.528 52.2501 126.979 52.0547C127.756 51.7173 128.497 51.396 129.267 51.0955C129.591 50.9511 129.906 50.9255 130.212 50.9006L130.213 50.9006C130.362 50.8885 130.509 50.8765 130.654 50.851C130.355 51.3249 129.86 51.5852 129.391 51.832C129.064 52.0043 128.749 52.17 128.522 52.3971ZM136.822 45.2782L136.811 45.2152C137.615 44.6183 138.42 44.0213 139.525 44.0215L139.462 44.0326C138.594 44.6406 137.756 45.0484 136.822 45.2782ZM136.822 45.2782C136.639 45.8083 136.367 45.8363 136.135 45.8603C136.094 45.8645 136.055 45.8685 136.017 45.8752C135.995 45.7491 136.002 45.4227 136.065 45.4116L136.822 45.2782ZM134.385 46.9429C134.011 47.399 133.413 47.6993 132.887 47.6621C133.228 47.0169 133.658 46.8761 134.363 46.8168L134.385 46.9429ZM134.352 46.7538C134.778 46.2236 135.175 45.8936 135.828 45.9085C135.55 46.5426 135.056 46.6946 134.352 46.7538ZM117.368 44.8083C116.789 44.8453 116.697 45.0566 116.533 45.6054C116.912 45.5387 117.268 45.346 117.368 44.8083ZM115.699 46.4026C116.14 46.3248 116.348 46.0282 116.533 45.6054C116.04 45.7574 115.747 45.9391 115.699 46.4026ZM115.636 46.4137C115.132 46.5027 114.913 46.7363 114.813 47.274C115.254 47.1961 115.473 46.9625 115.636 46.4137ZM114.019 47.9339C114.271 47.8895 114.827 47.7264 114.813 47.274C114.371 47.3518 114.004 47.4815 114.019 47.9339ZM117.357 44.7452C117.405 44.2817 117.698 44.1 118.139 44.0222C118.154 44.4746 117.809 44.7305 117.357 44.7452ZM113.081 48.8794C113.255 48.3937 113.537 48.1489 113.852 48.0934C113.867 48.5458 113.659 48.8424 113.081 48.8794ZM132.512 48.1182L131.945 48.2183C132.018 47.905 132.277 47.8421 132.493 47.7898C132.604 47.7628 132.704 47.7386 132.761 47.6844C132.805 47.9365 132.764 48.0737 132.512 48.1182ZM112.235 49.6135C112.38 49.328 112.639 48.9572 112.955 48.9016C112.958 49.291 112.676 49.5357 112.235 49.6135ZM140.897 43.3245C140.787 43.542 140.871 43.5745 141.043 43.6415C141.097 43.6625 141.159 43.6869 141.227 43.7214L141.291 43.7102C141.268 43.5841 141.361 43.3728 141.465 43.2245C141.402 43.2356 141.35 43.2302 141.299 43.2249C141.196 43.2141 141.093 43.2034 140.897 43.3245ZM132.334 50.4248L131.83 50.5137C131.796 50.3246 131.963 50.1651 132.215 50.1207C132.247 50.1151 132.268 50.1438 132.29 50.1726C132.311 50.2013 132.332 50.2301 132.364 50.2245C132.386 50.3506 132.334 50.4248 132.334 50.4248ZM130.784 49.008C130.784 49.008 130.721 49.0191 130.562 48.8522L130.688 48.83C130.751 48.8188 130.877 48.7966 130.91 48.9857L130.784 49.008ZM112.038 49.9732C112.027 49.9102 112.109 49.6358 112.172 49.6247C112.228 49.9399 112.164 49.951 112.038 49.9732ZM131.915 48.4185L131.704 48.3258L131.893 48.2924L131.915 48.4185ZM131.548 50.7584C131.451 50.5804 131.514 50.5693 131.577 50.5582C131.59 50.632 131.574 50.6664 131.561 50.6949C131.551 50.7151 131.543 50.7323 131.548 50.7584ZM111.831 50.2699L111.808 50.1438L111.935 50.1215L111.831 50.2699ZM141.632 43.065C141.569 43.0762 141.537 43.0817 141.524 43.1003C141.511 43.1188 141.517 43.1503 141.528 43.2134C141.521 43.1744 141.543 43.1553 141.572 43.1288C141.59 43.1125 141.612 43.0934 141.632 43.065ZM138.19 45.297L138.316 45.2747L138.327 45.3378L138.19 45.297ZM118.295 43.7997L118.284 43.7367L118.347 43.7256L118.295 43.7997ZM0.579484 12.326H36.7622V12.8827H0.579484V99.1645H156.443V12.8827H120.261V12.326H156.443H157V12.8827V99.1645V99.7212H156.443H0.579484H0.0228271V99.1645V12.8827V12.326H0.579484Z" fill="white"/>
</svg>
