<svg width="23" height="23" viewBox="0 0 23 23" fill="none" xmlns="http://www.w3.org/2000/svg">
<path fill-rule="evenodd" clip-rule="evenodd" d="M9.73155 8.43203C10.2917 8.14137 10.9291 8.03473 11.5533 8.12731C12.1901 8.22173 12.7795 8.51846 13.2346 8.97365C13.6898 9.42884 13.9864 10.0183 14.0808 10.6551C14.1734 11.2793 14.0668 11.9169 13.7762 12.477C13.4856 13.0372 13.0257 13.4914 12.4621 13.7752C11.8984 14.0589 11.2597 14.1577 10.6367 14.0574C10.0137 13.9571 9.43813 13.663 8.99194 13.2167C8.54576 12.7705 8.25163 12.1949 8.15138 11.5718C8.05114 10.9488 8.14988 10.31 8.43357 9.74628C8.71726 9.18259 9.17145 8.7227 9.73155 8.43203ZM11.4066 9.11649C10.9905 9.05477 10.5656 9.12586 10.1922 9.31963C9.81877 9.5134 9.51597 9.82 9.32683 10.1958C9.13769 10.5717 9.07185 10.9976 9.13869 11.413C9.20552 11.8284 9.40163 12.2121 9.69909 12.5096C9.99656 12.8072 10.3802 13.0033 10.7956 13.0701C11.2109 13.1369 11.6367 13.0711 12.0124 12.882C12.3882 12.6928 12.6948 12.39 12.8885 12.0165C13.0823 11.643 13.1534 11.218 13.0917 10.8018C13.0287 10.3772 12.8309 9.98418 12.5275 9.68071C12.2241 9.37724 11.8311 9.17943 11.4066 9.11649Z" fill="#E2A271"/>
<path d="M15.2734 7.18457C14.9973 7.18457 14.7734 7.40843 14.7734 7.68457C14.7734 7.96071 14.9973 8.18457 15.2734 8.18457H15.2797C15.5558 8.18457 15.7797 7.96071 15.7797 7.68457C15.7797 7.40843 15.5558 7.18457 15.2797 7.18457H15.2734Z" fill="#E2A271"/>
<path fill-rule="evenodd" clip-rule="evenodd" d="M3.11328 7.34473C3.11328 4.99752 5.01607 3.09473 7.36328 3.09473H14.8633C17.2105 3.09473 19.1133 4.99752 19.1133 7.34473V14.8447C19.1133 17.1919 17.2105 19.0947 14.8633 19.0947H7.36328C5.01607 19.0947 3.11328 17.1919 3.11328 14.8447V7.34473ZM7.36328 4.09473C5.56836 4.09473 4.11328 5.5498 4.11328 7.34473V14.8447C4.11328 16.6397 5.56836 18.0947 7.36328 18.0947H14.8633C16.6582 18.0947 18.1133 16.6397 18.1133 14.8447V7.34473C18.1133 5.5498 16.6582 4.09473 14.8633 4.09473H7.36328Z" fill="#E2A271"/>
</svg>
