<svg width="23" height="23" viewBox="0 0 23 23" fill="none" xmlns="http://www.w3.org/2000/svg">
<path fill-rule="evenodd" clip-rule="evenodd" d="M20.0642 2.59209C20.053 2.47916 20.0035 2.37112 19.9202 2.28782C19.8315 2.19916 19.7179 2.15076 19.6019 2.14261C19.5718 2.14047 19.5414 2.14106 19.511 2.14445C19.4703 2.14899 19.43 2.15852 19.3911 2.17307L2.49477 8.08678C2.30127 8.1545 2.16872 8.33349 2.16036 8.53833C2.152 8.74317 2.26954 8.93235 2.45688 9.01561L9.88915 12.3188L13.1924 19.7511C13.2756 19.9385 13.4648 20.056 13.6697 20.0476C13.8745 20.0393 14.0535 19.9067 14.1212 19.7132L20.0348 2.81716C20.0487 2.78013 20.058 2.74179 20.0628 2.70299C20.0674 2.66596 20.0678 2.62877 20.0642 2.59209ZM17.6638 3.8371L4.01548 8.61401L10.1572 11.3437L17.6638 3.8371ZM10.8643 12.0508L18.3709 4.54422L13.594 18.1925L10.8643 12.0508Z" fill="#E2A271"/>
</svg>
