<svg id="logo-tez-tour.svg" xmlns="http://www.w3.org/2000/svg" width="138" height="40" viewBox="0 0 138 40">
  <defs>
    <style>
      .cls-1 {
        fill: #fff;
      }

      .cls-1, .cls-2, .cls-3, .cls-4, .cls-5 {
        fill-rule: evenodd;
      }

      .cls-2 {
        fill: #3fbaec;
      }

      .cls-3 {
        fill: #f8da04;
      }

      .cls-4 {
        fill: #009548;
      }

      .cls-5 {
        fill: #0e71b5;
      }
    </style>
  </defs>
  <path id="logo-5" class="cls-1" d="M165.68,139.222c-1.232,1.883,3.645,3.053,3.284,5.264-0.562,3.453-1.562,7.369-1.964,9.4-0.377,1.908-3.554,2.347-3.961,4.248-0.315,1.473,1.608,2.361,3.162,2.979,3.241,1.293.456,6.433,4.289,7.762,4.83,1.675,8.053-2.207,13.152-1.733,5.932,0.551,12.879,3.58,18.766,2.675,3.386-.521,5.511-3.952,7.189-6.892,0.822-1.44-1.349-2.609-.909-4.2,0.422-1.53,4.322-1.68,4.322-3.266,0-1.888-3.4-2.292-3.841-4.13-0.574-2.378,1.572-4.786.159-7.633-2.448-4.933,5.187-12.558-6.045-10.78-3.99.631-8.813,5.386-12.719,4.365-2.093-.547,5.471-5.951,1.129-7.006-6.659-1.617-22.845,4.1-26.013,8.952" transform="translate(-163 -130)"/>
  <path id="logo-4" class="cls-2" d="M168.984,138.2c2.011-2.767,13.848-5.821,20.577-5.555,2.919,0.115-4.035,6.294-.994,6.968,2.948,0.653,10.909-4.154,13.651-4.315,2.253-.133,5.72.812,4.631,5.1-0.417,1.646.647,2.457,1.082,4.718,1.189,6.166-2.055,3.623-4.518,1.724-2.022-1.56-4.051-3.145-5.419-4.039-4.391-2.869-8.561,6.359-10.637,6.706-3.132.525-6.828-6.336-9.365-4.454-2.982,2.656.194-.409-6.68,5.776-2.956,2.659-3.01.643-2.2-2.136,0.594-2.046,1.217-2.982,1.4-5.292,0.116-1.436-2.378-4.033-1.527-5.205m10.519-2.827c2.349,0,4.975,1.89,4.975,3.948s-2.828,3.949-5.178,3.949a4.024,4.024,0,0,1-3.862-4.16,3.849,3.849,0,0,1,4.065-3.737" transform="translate(-163 -130)"/>
  <path id="logo-3" class="cls-3" d="M182.925,139.355a3.253,3.253,0,1,1-3.235-2.911,3.086,3.086,0,0,1,3.235,2.911" transform="translate(-163 -130)"/>
  <path id="logo-2" class="cls-4" d="M166.236,156.92c0.5-1.047,6.805-5.821,12.519-10.06,2.537-1.882,6.845,6.18,9.976,5.655,2.076-.347,3.956-11.227,8.346-8.358,5.911,3.862,15.748,11.106,12.164,12.112-6.888,1.934-13.705,3.87-21.706,4.363-1.86.114-3.045,0.2-2.729-1.889,0.209-1.378.319-3.287-2.423-3.175-6.805.276-18.513,6.327-16.147,1.352" transform="translate(-163 -130)"/>
  <path id="logo-1" class="cls-5" d="M207.428,160.294c0.068,2.679-1.483,6.133-3.328,6.886-5.515,2.069-12.014-1.945-17.931-1.854s-7.435,2.135-13.062,1.2a5.494,5.494,0,0,1-4.353-3.147c-1.371-3.236-.712-2.837,2.2-3.61,3.454-.916,7.524-2.669,10.7-2.1,0.943,0.342-.936,4.162,1.119,3.954,7.072-.2,14.162-0.346,21.218-2.291,1.482-.409,3.386-0.959,3.434.961" transform="translate(-163 -130)"/>
  <path id="text" class="cls-5" d="M273.005,140v2.983h14.337l-14.337,9.08v2.94h27.989v-2.984H287.166l13.828-8.992V140H273.005Zm-28.008,15H271.01v-2.832H256.5v-3.437h14.057v-2.617H256.5v-3.286H271.01V140H245v15Zm-28.991-15v2.983h7.721v12.02h11.458v-12.02h7.8V140H216.006Zm-0.015,16.982H301v10.022H215.991V156.984Zm40.821,5.835c0,0.746-.651,1.325-1.949,1.723a20.134,20.134,0,0,1-5.61.6,20.428,20.428,0,0,1-5.649-.6q-1.961-.6-1.961-1.726v-1.7q0-1.125,1.961-1.726a20.433,20.433,0,0,1,5.649-.6,20.172,20.172,0,0,1,5.61.6c1.3,0.4,1.949.977,1.949,1.723v1.7Zm-11.245-1.56v1.424a1.1,1.1,0,0,0,.873,1.032,8.665,8.665,0,0,0,2.783.325,8.885,8.885,0,0,0,2.809-.322,1.11,1.11,0,0,0,.882-1.035v-1.424a1.111,1.111,0,0,0-.882-1.035,8.885,8.885,0,0,0-2.809-.322,8.665,8.665,0,0,0-2.783.325A1.1,1.1,0,0,0,245.567,161.259Zm-15.344,3.885v-5.265h-5.63v-1.086h15.146v1.086h-5.6v5.265h-3.912Zm29.154-6.343H263.3V162.7a1.1,1.1,0,0,0,.874,1.032,8.665,8.665,0,0,0,2.783.325,8.853,8.853,0,0,0,2.808-.322,1.109,1.109,0,0,0,.883-1.035V158.8h3.9v4.03q0,1.124-1.949,1.723a20.1,20.1,0,0,1-5.61.6,20.394,20.394,0,0,1-5.649-.6q-1.962-.6-1.962-1.726V158.8ZM281,161.55h5.019c0.5,0,2.438-.019,2.438-0.806,0-.741-1.769-0.9-2.259-0.9H281v1.7Zm-3.894,3.6V158.8h9.623c3.835,0,5.132,1.078,5.132,1.805a1.655,1.655,0,0,1-1.479,1.381q1.9,0.6,1.9,1.709v1.469H288.39v-1.385a1.123,1.123,0,0,0-.881-0.983,6.24,6.24,0,0,0-1.935-.182H281v2.542h-3.894Z" transform="translate(-163 -130)"/>
</svg>
