<?xml version="1.0" encoding="utf-8"?>
<!-- Generator: Adobe Illustrator 21.1.0, SVG Export Plug-In . SVG Version: 6.00 Build 0)  -->
<svg version="1.1" id="Layer_1" xmlns="http://www.w3.org/2000/svg" xmlns:xlink="http://www.w3.org/1999/xlink" x="0px" y="0px"
	 viewBox="0 0 163 85.1" style="enable-background:new 0 0 163 85.1;" xml:space="preserve">
<style type="text/css">
	.st0{fill:#ED1C24;}
	.st1{fill:#2E3192;}
	.st2{fill:#F7941D;}
</style>
<title>Монтажная область 1</title>
<path class="st0" d="M101.1,33.6c1.8,0.9,3.9,1.4,5.9,1.4c2.4,0,4.7-0.6,6.7-1.8c2-1.3,3.6-3,4.7-5.2l0.9-1.6l7.5,4.2l-0.8,1.6
	c-1.8,3.4-4.5,6.2-7.8,8.2c-8.5,5.2-19.4,3.9-26.4-3.2c-4.1-4-6.5-9.5-6.4-15.2c-0.1-5.8,2.2-11.3,6.4-15.3
	c6.8-6.8,17.3-8.3,25.7-3.5c3.1,1.7,5.7,4.1,7.6,7.1l0.8,1.3 M95.2,27.4L113.8,11c-6-3.8-14-2-17.8,4c-1.3,2.1-2,4.5-2,7
	C94,23.9,94.4,25.7,95.2,27.4"/>
<path class="st0" d="M35.9,37.7c-3.9,3.6-9,5.5-14.3,5.5c-5.7,0-11.2-2.3-15.2-6.4C2.3,32.8,0,27.3,0,21.6
	c-0.1-5.8,2.2-11.3,6.4-15.3c4-4.1,9.5-6.4,15.2-6.3C26.9-0.1,32,1.9,35.9,5.5L43.2,0v43 M21.6,8.6c-7-0.1-12.9,5.5-13,12.5
	c0,0.2,0,0.3,0,0.5c-0.1,7,5.5,12.9,12.5,13c0.2,0,0.3,0,0.5,0c3.4,0.1,6.8-1.3,9.2-3.8c2.5-2.4,3.8-5.7,3.8-9.2
	c0.1-3.4-1.3-6.8-3.8-9.2c-2.4-2.5-5.7-3.8-9.2-3.8"/>
<path class="st0" d="M53.7,4.9c3-2.6,6.8-4,10.7-3.9C73.5,0.9,81,8.2,81.1,17.3c0,0.1,0,0.3,0,0.4V43h-8.6V17.7
	c0.1-2.2-0.8-4.3-2.3-5.8c-1.5-1.5-3.6-2.3-5.8-2.3c-2.2,0-4.2,0.8-5.7,2.4c-1.6,1.5-2.4,3.6-2.4,5.7V43h-8.6V0"/>
<polyline class="st0" points="148.9,19.5 162.9,44.1 152.7,44.1 143.8,28.4 134.8,44.1 124.6,44.1 138.7,19.5 128.1,1 138.3,1 
	143.8,10.5 149.2,1 159.4,1 "/>
<path class="st1" d="M139.4,81.2c-2,1.7-4.6,2.6-7.2,2.6c-6.2,0.1-11.4-4.9-11.5-11.1c0-0.1,0-0.2,0-0.3V55h6.2v17.3
	c0,1.4,0.6,2.8,1.6,3.8c1,1,2.3,1.6,3.7,1.6c1.4,0,2.8-0.5,3.8-1.6c1-1,1.5-2.3,1.5-3.7V55h6.1v29.6"/>
<path class="st1" d="M150.6,56.8c2-1.7,4.5-2.6,7.1-2.5c1.3,0,2.6,0.2,3.9,0.7l1.4,0.6l-2.7,5.4l-1.1-0.4c-0.4-0.1-0.9-0.2-1.4-0.2
	c-1.4,0-2.7,0.5-3.7,1.5c-1,1-1.5,2.3-1.4,3.6v17.4h-6.1V53.5"/>
<path class="st0" d="M103.3,59.9c0.2-0.1-0.1-0.3,0.1-0.2C103.5,59.9,103.4,60,103.3,59.9"/>
<path class="st0" d="M104.2,59.7c0.3-0.4,0.8-0.5,1.2-0.3c0.4,0.2,0.8,0.3,1.3,0.2c0.1,0-0.2,0.5,0,0.4c0.5-0.2,1-0.1,1.4,0.2
	c0.4,0.4,0.8,0.8,0.9,1.3l-0.1,0.1c0.1,0.2,0.5-0.1,0.6,0.1c-0.1,0.1-0.1,0.1-0.2,0.2c0.2-0.2,0.3,0.1,0.5,0c0,0.1-0.2,0.3-0.2,0.5
	l0.3-0.2c0.4-0.2,0.5,0,0.6,0.1s0.1,0.4,0.4,0.4c-0.1,0-0.2,0-0.2,0.1c0.8,0.2,1.2,0.9,1.7,1.5c-0.2,0-0.3,0.1-0.4,0.2
	c0.2-0.1,0.5,0,0.7,0.2c-0.3,0.2,0.4,0.2,0.3,0.5h-0.1c0.4,0-0.1,0.3,0.4,0.3l-0.2,0.2c0.5-0.1-0.2,0.3,0.1,0.4h0.1
	c0.2,0.1-0.1,0.2,0,0.3h-0.1c0.2,0.3-0.1,0.5,0.3,0.4c-0.3,0.2-0.2-0.3-0.6,0c0.3,0.4,0.4,0.9,0.5,1.4c0,0.5,0,1,0,1.5
	c-0.2,0.1-0.2,0.2-0.4,0.2c0.1,0.1,0,0.4,0.2,0.5c0,0-0.2,0-0.2,0.1c-0.2,0.1,0.4,0.3,0.2,0.4c-0.1-0.1-0.2-0.2-0.4-0.2
	c0.3,0.2,0.2,0.4,0.2,0.6c-0.1-0.1-0.1-0.1-0.2-0.1c0.3,0.3-0.2,0.3,0,0.6l-0.2-0.1c-0.4,0.2,0.4,0.2,0.2,0.4c0-0.1-0.1-0.1-0.2-0.1
	c0.3,0.4,0,0.7,0.1,1c0,0-0.1,0-0.1,0c-0.1,0.3-0.3,0.4-0.3,0.8c-0.2,0-0.5-0.3-0.6,0c0.4,0.2-0.1,0.5,0.4,0.7
	c-0.2,0.2-0.6,0.4-0.6,0.6c-0.1-0.2-0.5-0.3-0.4-0.4l-0.3-0.1c-0.1-0.1,0.1-0.1-0.1-0.2c0,0.1-0.1,0.4-0.2,0.4
	c0.1,0.3,0.4,0.8,0.2,1.1c0-0.2-0.4-0.3-0.4-0.4l0.2,0.5l0.2,0.5c-0.1,0.1-0.3-0.2-0.3-0.1c0.1,0.1,0.1,0.2,0.1,0.3
	c-0.1,0-0.2,0.4-0.6,0.1c-0.2-0.1,0.1-0.2-0.1-0.2c-0.1,0.1,0,0.2-0.2,0.4l0,0c-0.1,0-0.2,0.4,0.1,0.5c0.1,0-0.2-0.2,0-0.2
	c0.1,0.2,0,0.5-0.2,0.6c0-0.1-0.1-0.2-0.1-0.3c0,0.4-0.1,0.7-0.4,1c0.1,0.2-0.1-0.4,0-0.3c-0.2,0-0.4,0.2-0.5,0.3s-0.3,0.3-0.5,0.2
	c0-0.1,0.2,0.3,0.1,0.2c-0.2,0.1-0.3-0.2-0.4-0.1c-0.1-0.2-0.1,0.1-0.2,0.2s-0.1-0.1,0-0.1c-0.1,0.2-0.7,0.7-1.2,0.6
	c0,0.1-0.1,0.5-0.2,0.5v-0.3c-0.1-0.2-0.3,0.1-0.4-0.2c-0.1,0.2,0.1,0.1,0.3,0s0.3-0.3,0.2-0.1c-0.1-0.2-0.3,0.5-0.3,0.1
	c-0.2,0.1-0.3,0.4-0.5,0.2c0.1,0,0.1-0.4-0.1-0.4s0,0.2-0.2,0.3l-0.1,0.1c0,0.3-0.2,0-0.1,0.3c-0.1-0.2-0.4,0.2-0.4-0.3v-0.4
	c-0.1,0-0.2,0.4-0.2,0.6c0-0.1,0-0.1-0.1-0.2c0,0.6-0.3,0-0.4,0.4c-0.2-0.2-0.6,0-0.7-0.4c-0.2,0.2-0.4,0.4-0.6,0.2
	c0-0.1,0.1-0.1,0.1-0.2s-0.2,0-0.3,0.1c0-0.1-0.2-0.4-0.3-0.6c-0.2,0.2-0.2,0.5-0.2,0.6c0-0.3-0.2-0.2-0.3-0.1s-0.3,0.2-0.4-0.1
	c0.1-0.1,0.3-0.2,0.2-0.4c0-0.6-0.4,0.3-0.6,0v0.5c0-0.3-0.5,0.2-0.3-0.3c-0.1,0.1-0.3-0.2-0.4,0.2c-0.2-0.2-0.4-0.3-0.7-0.4
	c-0.3-0.1-0.5-0.4-0.4-0.7c-0.1,0-0.2-0.1-0.3,0.1s0.2-0.1,0.2,0.1c-0.1,0-0.1,0.1-0.2,0.2c-0.1-0.2-0.2-0.2,0.1-0.5
	c-0.1-0.4-0.6,0.5-0.9,0.2c0.1-0.2,0.1-0.2,0-0.3l-0.4,0.2c-0.2-0.2,0.1-0.4,0.3-0.7c-0.1,0-0.3-0.1-0.4,0l0.1-0.4
	c-0.1,0.3-0.2,0.1-0.3,0.1h0.1c0.1-0.1-0.1-0.2-0.2-0.2C97,77.7,97,77.9,97,78c-0.1,0.1-0.2,0-0.4,0.1c0.2-0.2,0-0.3-0.1-0.4
	s-0.3,0.1-0.3,0.1s-0.1-0.2,0.1-0.3c0.1,0,0,0.2,0.1,0.1s0.2-0.3-0.1-0.3S96,77.8,96,77.4c0.1,0,0.2-0.1,0.3-0.2L96.2,77L96,77
	c0-0.1,0.1-0.1,0.1-0.1c-0.1,0.1-0.2,0.1-0.3,0c-0.1,0-0.1,0-0.3,0s0-0.3-0.1-0.4l0,0c0-0.2-0.2-0.3-0.4-0.2h0.1
	c-0.1-0.1-0.2-0.2-0.4-0.1c0-0.3,0.8-0.7,0.4-0.7c-0.1-0.1-0.6,0.1-0.7,0.3c-0.1-0.4-0.7-0.5-0.5-1c-0.1,0-0.2,0.1-0.3,0
	c-0.1-0.2-0.3-0.5-0.4-0.7c-0.2-0.2-0.2-0.5,0-0.8c0.2,0.1,0.3-0.1,0.4-0.2c-0.3,0,0.2-0.2-0.2-0.1c-0.2,0.1-0.4,0.1-0.4,0.3
	c-0.2-0.2-0.4-0.7-0.2-0.9c-0.1,0.1-0.2,0.1-0.3,0c0.4-0.1,0.4-0.3,0.2-0.4h-0.2l0.2-0.2c-0.1,0-0.5,0.1-0.3-0.2
	c0.1,0,0.2-0.1,0.2-0.1c-0.2-0.1-0.6-0.3-0.4-0.5l0.3-0.2c-0.1-0.1-0.3-0.2-0.4,0c0.2-0.4,0.2-0.6,0.5-0.7c-0.4-0.2-0.6-0.5-0.7-0.9
	c0-0.1,0-0.2-0.1-0.2v-0.3c0-0.2,0-0.3,0-0.5H92c0.2-0.2-0.3-0.1-0.2-0.2c0.2,0.1,0.4-0.1,0.6,0c0.2-0.2-0.3-0.3-0.4-0.5
	c-0.2-0.1,0.1,0.2-0.2,0.1c-0.1,0,0.2-0.3-0.1-0.4c0.2,0,0.4,0,0.6,0.1l-0.2,0c0.2-0.1,0.4,0.1,0.6,0.2c0.2,0.2,0.4,0.2,0.7,0.2
	v-0.1c0.4-0.1,0.4,0.4,0.6,0.1c-0.2-0.2-0.7-0.4-0.9-0.3c-0.1-0.3-0.8-0.3-0.8-0.6c0.2-0.1,0,0.3,0.3,0.3s-0.1-0.3,0-0.5
	c-0.2,0.1-0.5-0.1-0.6-0.2c0.2-0.1,0.3,0.2,0.4,0c-0.2-0.1-0.3-0.4-0.5-0.2c-0.4-0.2,0.2-0.2-0.1-0.5c0.3,0,0.7,0.5,0.9,0.2
	c-0.3,0-0.3-0.5-0.8-0.5c0.1-0.1,0.4,0,0.5,0.1c0.2-0.1-0.4-0.6,0.2-0.4l-0.3-0.2c0.1,0,0.2-0.1,0.4-0.1s-0.2-0.6,0.2-0.4
	c0-0.1,0.1-0.3-0.2-0.4s0.1,0.3-0.3,0.2c0.4,0,0.1-0.3,0-0.5l0.2,0.1c0-0.1,0.1-0.2-0.1-0.4c0.1,0.1,0.2,0.1,0.3,0.1l-0.2-0.2
	c0-0.3,0.5,0.2,0.6-0.1l0.1,0.3c0-0.1,0.3,0,0.2-0.2c-0.2-0.2-0.4-0.4-0.6-0.6s0.3,0.1,0.1-0.2l0.2,0.3c0.1,0.1,0.5,0.1,0.6-0.1
	s-0.2-0.5-0.5-0.5c0.1-0.1,0.3-0.1,0.4,0c0,0,0,0,0,0.1c0-0.2-0.3-0.1-0.3-0.4c0.2,0,0.6,0,0.9,0l0.2,0.4l0.1-0.1
	c0.2,0.3,0.3,0.1,0.5,0.4c0.1,0,0.1-0.2,0-0.3c-0.7-0.2-0.5-0.8-1-1c0.1-0.4,1.2,0.7,0.8-0.2c-0.2,0-0.3-0.5-0.4-0.2
	c0.2-0.1-0.3-0.5,0.1-0.6c0,0.3,0.6,0.2,0.6,0.7c-0.1-0.1-0.2,0-0.2,0.1c0.2,0.1,0.4,0.4,0.6,0.2s0.2-0.3-0.1-0.5s-0.1,0.2-0.3-0.1
	c0-0.1,0.1-0.1,0.1-0.1h0.1c0.1,0,0.1-0.1-0.1-0.3c0,0.1-0.1,0.1-0.2,0l0,0l0,0l0,0l0,0L95,60.4l-0.1-0.1l0,0l0,0l0,0l0,0v-0.1v-0.1
	l0.1,0.2c0.4-0.1-0.2-0.3,0.1-0.5l0.4,0.2c0.2,0.3-0.5,0.2,0,0.6c0.2-0.1,0-0.4,0.3-0.4c0,0.1,0,0.1,0,0.2s0.6,0.5,0.6,0
	c0-0.2-0.1-0.2-0.2-0.4c0.2-0.3,0.2-0.5,0.3-0.7c0.2,0.4,0.3-0.2,0.4,0.3c-0.2-0.2-0.6,0.2-0.5,0.6c0.4,0.3-0.2,0.1,0,0.5
	c0.2-0.2,0.5,0.2,0.8,0.5c0.1,0,0-0.2,0-0.2c-0.2-0.3-0.2-0.2-0.4-0.5c0.3-0.1,0.4-0.5,0.3-0.8c0.2,0.1,0.3,0.3,0.2,0.4
	c0.2-0.3,0.5-0.4,0.9-0.5c-0.4-0.3,0.3-0.3-0.1-0.6c-0.3,0-0.5-0.2-0.6-0.5c0.1,0,0.1,0.2,0.2,0.3c0-0.3,0.4,0.3,0.3-0.2
	c-0.2,0.3,0.2,0.6,0.4,1c0.1-0.3,0.1,0.2,0.3,0.2c0.1-0.3,0.3-0.5,0.5-0.7c0.4,0.2,0.7-0.3,1-0.4c0.2,0.2,0.2,0.6,0.4,0.7
	s-0.2-0.4,0.1-0.3V59c0.1-0.1,0.5,0.2,0.5-0.5V59c0.1,0,0.1-0.1,0.1-0.1c0,0.2,0.1,0.3,0.1,0.4c0.2,0.3,0.3-0.1,0.5-0.2l-0.2-0.3
	c0.3-0.3,0.5,0,0.8-0.1V59l0.2-0.2c0,0.3,0.1,0.4,0.2,0.2c-0.1,0.2-0.2,0.5-0.4,0.7c-0.1-0.2,0.1-0.3,0-0.6s-0.3-0.1-0.3,0.1
	c0.1,0,0.1,0,0.2-0.2c0.1,0.4-0.1,0.4-0.1,0.7c0,0,0.1,0.1,0.1,0c0,0.1-0.2,0.3-0.3,0.3c0.1-0.2-0.1-0.2-0.1-0.3
	c0,0.3-0.1,0.5-0.3,0.4c-0.2-0.4-0.3,0.3-0.5,0.3c0-0.3,0-0.6,0.2-0.8c-0.2-0.1-0.2,0-0.3-0.1c0,0.3,0,0.6-0.1,0.9l-0.1-0.2
	c-0.1,0.2,0,0.5-0.2,0.5c-0.3,0-0.7,0.1-1,0.2l-0.1-0.2c0.1,0.6-0.4,0.4-0.4,0.7c-0.4,0-0.5,0.6-0.9,0.3c-0.3,0.5-0.7,1-1.1,1.4
	l-0.2-0.3c0.1,0.3-0.2-0.1-0.2,0c0.3,0.1,0.2,0.4,0.3,0.6c-0.4,0-0.4,0.5-0.3,0.8l-0.2-0.1c0.3,0.5-0.2,0.5-0.4,0.7
	c-0.1,0-0.3-0.1-0.4,0c0.3,0.3,0.2,0.4,0.4,0.7c-0.1,0.2-0.3,0.4-0.5,0.5c0.1,0.3,0.2,0.7,0.1,1c-0.1,0.3-0.1,0.7,0,1h-0.3
	c0.6,0.7,0,1.4,0.4,2h-0.5c-0.1,0.2,0.2,0.4,0.6,0.3c-0.1,0.2,0.3,0.3-0.1,0.5C95.5,71,95.9,70.9,96,71c-0.1,0.3,0,0.5,0.2,0.7v-0.1
	c-0.1,0-0.3,0.1-0.3,0.2c0.2,0.1,0,0.5,0.6,0.1c-0.1,0.2,0,0.4,0.2,0.5s0.3,0.3,0.1,0.5c0.1-0.1,0.2-0.1,0.3-0.1
	c0.2,0.2,0.1,0.7,0.4,0.7c0,0.1-0.3,0.1-0.2,0.2s0.2-0.1,0.3-0.1s0.4,0.3,0.4,0.5l0,0l0,0l0,0v0.1l0.1,0.2c0,0.1,0.1,0.2,0.2,0.2
	c0.4,0.1,0.7,0.3,1,0.5c0.3,0.2,0.6,0.4,1,0.5l-0.1,0.1c0.2-0.2,0.3,0,0.4,0.1s0.2,0.2,0.4-0.1c0,0.1,0.2,0.1,0.1,0.3
	c0.1-0.1,0.2,0,0.4,0.1s0.3,0.2,0.4,0c0,0,0,0-0.1,0.1c0.2,0.3,0.5,0,0.8,0.2c-0.1,0.1-0.1,0.1-0.1,0.2c0.1,0.2,0.3-0.5,0.4,0.1
	c0.1,0,0.1-0.3,0-0.3c0.7,0.1,1.4,0,2-0.4c0.6,0.2,0.3,1,0.5,0.4c0.1,0.1,0-0.2,0-0.1c0.1-0.2,0.4,0.6,0.4,0.2
	c-0.2-0.3,0-0.2-0.1-0.4c0.4,0.1,0.6,0.4,0.7,0.1l0.1,0.2c0.1-0.2,0.3-0.4,0.5-0.6c0.1-0.2,0.2-0.4,0.1-0.6c0.6-0.4,1.1-1,1.5-1.6
	c0.4-0.6,0.7-1.2,1-1.8c0.3-0.6,0.6-1.2,0.6-1.8c0.1-0.3,0.1-0.7,0.1-1V69v-0.1l0,0l0,0l0,0l0,0v-0.2c0-0.1,0-0.2,0-0.2v-0.3
	c0.5-0.4,0.5-0.4,0.2-0.8c0.1,0,0.1,0,0.2,0c-0.4,0.1-0.1-0.2-0.5-0.2c-0.1-0.5-0.3-1-0.5-1.4c0.1,0.1,0.4,0,0.3-0.1h-0.3l0.1-0.1
	c-0.1,0-0.3,0-0.4,0.1c-0.4-0.5-0.7-1-1-1.6l-0.1-0.2v-0.1l0,0l0,0l0,0l0,0l0,0l-0.1-0.1c0-0.1-0.1-0.1-0.1-0.2l-0.2-0.2
	c-0.2-0.3-0.5-0.5-0.8-0.6c-0.2-0.3-0.7-0.4-1-0.4c-0.3-0.5-0.7-0.8-1.2-1.1c-0.5-0.2-1.1-0.3-1.6-0.1
	C103.4,61.1,103.6,60,104.2,59.7"/>
<path class="st0" d="M103.1,60c0-0.2-0.2-0.3-0.1-0.6C103,59.6,103.1,59.8,103.1,60"/>
<path class="st0" d="M98.3,59c0,0.1-0.1,0-0.1-0.1s0-0.2,0.1-0.2S98.3,58.9,98.3,59"/>
<path class="st0" d="M97.2,59.5c-0.1-0.2,0.1-0.4,0.2-0.5C97.3,59.1,97.3,59.3,97.2,59.5"/>
<path class="st0" d="M95.8,59.6c-0.2,0-0.2-0.1-0.1-0.2C95.8,59.4,95.8,59.5,95.8,59.6"/>
<path class="st0" d="M96,60c-0.1,0.1-0.2,0-0.3,0C95.8,60.1,95.8,59.8,96,60"/>
<path class="st0" d="M93.8,61.5c0,0.1,0,0.3-0.2,0.2C93.8,61.6,93.6,61.2,93.8,61.5"/>
<path class="st0" d="M93.3,62.6C93.3,62.6,93.2,62.6,93.3,62.6c-0.1,0.1-0.2,0-0.2-0.1c0,0,0,0,0,0"/>
<polyline class="st0" points="100.9,79.6 100.7,79.7 100.8,79.5 "/>
<path class="st0" d="M109.6,78.1c0-0.2,0.2,0.1,0.2,0.1S109.7,78,109.6,78.1"/>
<polyline class="st0" points="112.2,74.1 112.2,74.1 111.9,73.9 "/>
<path class="st0" d="M103.7,55.2c-0.3,0.1,0.2,0.3-0.2,0.1C103.5,55.2,103.6,55.1,103.7,55.2"/>
<path class="st0" d="M102.5,55.5c-0.4,0.4-1,0.7-1.6,0.7c-0.6,0-1.1,0.2-1.6,0.6c-0.1,0.1-0.1-0.5-0.4-0.3c-0.4,0.5-0.9,0.9-1.6,1.1
	c-0.7,0.2-1.4,0.4-2.1,0.6V58c-0.3,0.1-0.2,0.7-0.4,0.8c-0.1-0.1,0-0.2-0.2-0.2c0.2,0.3-0.3,0.4-0.2,0.7c-0.2,0-0.3-0.2-0.5-0.2
	l0.1,0.3c0.1,0.3,0,0.6-0.3,0.7c0,0,0,0,0,0c-0.2,0.2-0.5,0.3-0.5,0.6c0-0.1-0.1-0.2-0.1-0.2c-0.2,1-0.9,1.8-1.1,2.8
	c-0.1-0.1-0.3-0.2-0.4-0.2c0.3,0.2,0.2,0.5,0.2,0.8c-0.4,0,0.1,0.5-0.2,0.7l-0.1-0.1c0.3,0.3-0.3,0.2,0.1,0.6h-0.3
	c0.5,0.2-0.3,0.2-0.1,0.5h0.1c0.1,0.2-0.2,0.2-0.2,0.4h-0.1c0.1,0.4-0.3,0.6,0.1,0.6c-0.3,0.1-0.1-0.4-0.6-0.3
	c0.1,0.6,0.1,1.3,0.1,1.9c0,0.6,0,1.3,0.1,1.9c-0.2,0.2-0.2,0.2-0.3,0.3c0.1,0.1,0.1,0.5,0.4,0.6c0,0-0.2,0.1-0.2,0.2
	c-0.1,0.3,0.5,0.2,0.4,0.4c-0.1-0.1-0.3-0.1-0.4,0c0.4,0.2,0.4,0.4,0.5,0.7c-0.1,0-0.1-0.1-0.2,0c0.4,0.2,0.1,0.5,0.4,0.7h-0.2
	c-0.1,0.5,0.5,0,0.5,0.3c-0.1,0-0.2,0-0.3,0c0.5,0.2,0.6,0.7,0.8,0.9c0,0-0.1,0-0.1,0c0.2,0.3,0.2,0.7,0.6,0.9
	c0,0.2-0.5,0.3-0.2,0.5c0.4-0.3,0.5,0.4,0.8-0.1c0.1,0.3,0.2,0.8,0.5,0.8c-0.2,0-0.4,0.5-0.6,0.3L93,77c-0.2,0.1-0.1-0.2-0.2,0
	c0.1,0.1,0.5,0.3,0.5,0.4c0.4,0,0.9-0.2,1.2,0c-0.3,0-0.3,0.4-0.4,0.4l0.5-0.1l0.5-0.1c0.1,0.1-0.2,0.3,0,0.3s0.2-0.1,0.3-0.1
	s0.5,0.2,0.2,0.6c-0.1,0.2-0.2-0.1-0.2,0.2c0.2,0.2,0.3,0,0.5,0.2v0.1c0.1,0.2,0.5,0.1,0.5-0.2c-0.1-0.1-0.1,0.2-0.2,0
	c0.2-0.1,0.5-0.1,0.7,0.1c-0.1,0-0.2,0.1-0.3,0.2c0.4-0.1,0.8-0.1,1.1,0c0.1-0.2-0.3,0.3-0.3,0.2c0.1,0.2,0.3,0.3,0.6,0.3
	s0.4,0,0.5,0.3c-0.1,0,0.1-0.3,0.1-0.2c0.2,0.1,0,0.4,0.2,0.3c-0.1,0.2,0.2,0,0.3,0s0,0.1-0.1,0.1c0.2,0,0.4,0,0.7,0
	c0.3,0,0.5,0.1,0.7,0.3c0-0.1,0.4-0.4,0.5-0.3l-0.1,0.3c0,0.2,0.3,0.1,0.3,0.3c0.1-0.2-0.1-0.1-0.3-0.1s-0.4,0.1-0.2,0
	c0,0.3,0.5-0.3,0.3,0c0.2,0,0.4-0.2,0.6,0.1c0-0.1-0.2,0.4-0.1,0.4s0.1-0.1,0.3-0.2l0.2-0.1c0-0.3,0.2,0.1,0.2-0.3
	c0,0.2,0.4-0.1,0.3,0.4l-0.1,0.4c0.1,0,0.2-0.4,0.3-0.5c0,0.1,0,0.1,0,0.2c0.1-0.6,0.3,0.1,0.4-0.4c0.3,0.2,0.7,0,0.8,0.4
	c0.2-0.2,0.4-0.4,0.6-0.3c0,0.1-0.1,0.1-0.1,0.2c0.2,0.2,0.2,0,0.3-0.1c0,0.1,0.3,0.3,0.5,0.5c0.2-0.2,0.1-0.5,0.1-0.7
	c0.1,0.3,0.3,0.2,0.4,0s0.2-0.2,0.4,0c0,0.1-0.2,0.3,0,0.4c0.3,0.5,0.3-0.5,0.6-0.3l-0.2-0.4c0.2,0.2,0.3-0.4,0.4,0.1
	c0-0.2,0.4,0,0.2-0.4c0.3,0.1,0.5,0,0.8-0.1c0.3-0.1,0.6-0.1,0.8,0.2c0-0.1,0.2-0.1,0.1-0.3s-0.1,0.2-0.2,0.1c0,0,0-0.2,0-0.2
	c0.2,0,0.3,0,0.3,0.4c0.4,0.1-0.1-0.8,0.4-0.9c0.1,0.2,0.1,0.2,0.2,0.1v-0.4c0.3-0.1,0.4,0.3,0.5,0.5c0.1-0.1,0.2-0.2,0.2-0.4
	l0.4,0.2c-0.3-0.2,0-0.2,0-0.3v0.1c0.1,0.1,0.2-0.1,0.2-0.2c-0.1-0.1-0.3-0.1-0.4-0.1c0-0.2,0.1-0.2,0.1-0.4c0.2,0.3,0.3,0,0.4,0
	s-0.1-0.3,0-0.3s0.2-0.1,0.2,0.1c0,0.1-0.2-0.1-0.2,0.1s0.3,0.2,0.3,0s-0.4-0.4-0.1-0.5c0,0.1,0.1,0.2,0.1,0.3h0.3l-0.2-0.2
	c0.1,0,0.1,0.1,0.1,0.1c-0.1-0.1-0.1-0.2,0-0.3c0.1-0.1,0.1-0.2,0-0.3c0-0.1,0.3,0,0.4-0.1l0,0c0.2,0,0.3-0.2,0.2-0.4l0,0
	c0.1-0.1,0.1-0.3,0.1-0.4c0.3,0,0.9,0.6,0.7,0.2c0.1-0.2-0.2-0.6-0.4-0.6c0.4-0.2,0.2-0.8,0.8-0.8c-0.1-0.1-0.2-0.1-0.2-0.2
	c0.2-0.2,0.3-0.4,0.3-0.7c0.1-0.3,0.3-0.5,0.6-0.5c0.1,0.2,0.3,0.1,0.4,0.2c-0.2-0.2,0.3,0-0.1-0.2s-0.3-0.2-0.5-0.1
	c0-0.3,0.1-0.7,0.4-0.8c-0.1,0-0.2,0-0.2-0.1c0.4,0.2,0.5-0.1,0.4-0.3l-0.2-0.1h0.3c-0.1-0.1-0.5-0.2-0.2-0.3c0.1,0,0.2,0,0.3,0
	c-0.2-0.2-0.4-0.5-0.2-0.7l0.4-0.1c0-0.1-0.2-0.3-0.3-0.1c0.3-0.3,0.3-0.5,0.6-0.6c-0.3-0.3-0.5-0.6-0.6-1c0-0.1,0-0.2-0.1-0.3l0,0
	l0,0l0,0v-0.2c0-0.2,0-0.3,0-0.5h0.2c0.2-0.2-0.3-0.1-0.2-0.2c0.2,0,0.4-0.2,0.6,0c0.2-0.3-0.3-0.3-0.4-0.4c-0.2,0,0.2,0.1-0.1,0.1
	c-0.1,0,0.2-0.4-0.2-0.3c0.2-0.1,0.4-0.1,0.6-0.1l-0.2-0.1c0.2-0.1,0.4-0.1,0.6,0c0.2,0.1,0.5,0.1,0.7,0l-0.1-0.1
	c0.4-0.2,0.5,0.4,0.6-0.1c-0.2-0.2-0.8-0.2-0.9,0c-0.2-0.3-0.9,0-0.9-0.3c0.2-0.1,0.1,0.3,0.4,0.1s-0.2-0.3-0.2-0.5
	c-0.1,0.2-0.5,0.1-0.6,0.1c0.1-0.2,0.4,0,0.3-0.2c-0.2,0-0.4-0.2-0.5,0.1c-0.5,0,0.1-0.3-0.3-0.3c0.3-0.2,0.8,0,0.9-0.3
	c-0.3,0.1-0.5-0.2-1,0.1c0.1-0.1,0.3-0.2,0.5-0.2c0.2-0.2-0.7-0.1-0.1-0.4l-0.3,0.1c0.1-0.1,0.1-0.2,0.3-0.3c0-0.1-0.6-0.2-0.1-0.4
	c-0.1,0-0.2-0.3-0.4,0c-0.1,0.2,0.3,0.1-0.1,0.4c0.3-0.3-0.2-0.2-0.3-0.2l0.2-0.1c-0.1,0-0.1-0.2-0.3-0.1c0.1,0,0.2-0.1,0.2-0.2
	l-0.3,0.1c-0.2-0.1,0.4-0.3,0.2-0.5l0.3,0c-0.1,0,0.1-0.2,0-0.3c-0.3,0.1-0.6,0.2-0.8,0.3s0.2-0.2-0.1-0.2h0.4
	c0.1,0,0.3-0.3,0.2-0.5s-0.6,0-0.6,0.2c-0.1-0.1,0-0.3,0.2-0.3c-0.2-0.1-0.2,0.2-0.5,0.1c0.1-0.3,0.2-0.5,0.3-0.8l0.5-0.1l-0.1-0.1
	c0.4-0.1,0.2-0.2,0.5-0.4c0-0.1-0.2-0.1-0.3-0.1c-0.3,0.6-0.9,0.3-1.2,0.7c-0.3-0.2,0.9-1.1,0-0.8c-0.1,0.1-0.5,0.3-0.2,0.4
	c-0.1-0.2-0.5,0.3-0.5-0.1c0.3,0,0.3-0.5,0.7-0.6c-0.2,0.1,0,0.2,0.1,0.2c0.1-0.2,0.4-0.4,0.3-0.5s-0.3-0.2-0.5,0s0.2,0.2-0.1,0.3
	c-0.1,0-0.1-0.1-0.1-0.1V61l0,0l0,0l0,0c0-0.1-0.1-0.1-0.3,0.1c0.1,0,0.1,0.1,0,0.2l0,0l0,0l0,0l0,0l0,0l-0.1,0.1l-0.1,0.1l0,0l0,0
	h-0.1h-0.1l0.2-0.1c-0.1-0.3-0.3,0.2-0.5,0l0.2-0.4c0.3-0.2,0.2,0.4,0.6,0c-0.1-0.2-0.4,0-0.4-0.2c0.1,0,0.1,0,0.2,0
	s0.4-0.7-0.1-0.6c-0.2,0-0.2,0.1-0.3,0.3c-0.3-0.2-0.5,0-0.7-0.1c0.3-0.3-0.3-0.2,0.2-0.5c-0.1,0.3,0.3,0.5,0.7,0.3
	c0.2-0.5,0.2,0.2,0.6-0.1c-0.2-0.2,0.1-0.6,0.3-0.9c-0.1-0.1-0.2,0-0.3,0c-0.2,0.2-0.1,0.3-0.3,0.5c-0.2-0.3-0.6-0.3-0.9-0.2
	c0-0.2,0.2-0.4,0.3-0.4c-0.3-0.2-0.7-0.4-0.9-0.7c-0.1,0.5-0.4-0.1-0.5,0.4c0.1,0.3,0,0.5-0.2,0.7c-0.1-0.1,0.1-0.2,0.1-0.3
	c-0.3,0.2,0-0.5-0.3-0.2c0.4,0,0.3-0.5,0.6-0.8c-0.3,0.1,0.1-0.2-0.1-0.4c-0.3,0.1-0.7,0.1-1,0.1c-0.2-0.5-0.8-0.3-1.1-0.4
	c-0.1-0.2,0.1-0.6,0-0.8s0,0.5-0.2,0.2l0.1-0.1c-0.1,0.1-0.5-0.4-0.7,0.2l0.2-0.5c0-0.1-0.1,0-0.2,0.1c0-0.2,0-0.3,0.1-0.4
	c-0.1-0.4-0.4,0-0.7,0l0.1,0.3c-0.4,0.2-0.6-0.2-1-0.1v-0.3l-0.2,0.2c0.1-0.3-0.1-0.5-0.2-0.2c0.2-0.2,0.4-0.4,0.6-0.7
	c0.2,0.2-0.2,0.3-0.1,0.6s0.4,0.2,0.5,0c-0.1,0-0.1,0-0.2,0.1c0-0.4,0.2-0.4,0.3-0.6c-0.1,0-0.2-0.1-0.2,0c0.1-0.2,0.3-0.2,0.5-0.2
	c-0.2,0.1,0,0.3,0,0.4c0.1-0.3,0.3-0.4,0.6-0.3c0.1,0.4,0.6-0.2,0.9,0c-0.2,0.3-0.4,0.5-0.7,0.6c0.2,0.2,0.2,0,0.4,0.3
	c0.2-0.2,0.3-0.6,0.6-0.7l-0.1,0.2c0.3,0,0.4-0.4,0.7-0.2c0.5,0.3,1,0.5,1.4,0.7l-0.1,0.2c0.5-0.4,0.8,0.2,1.2,0.1
	c0.3,0.5,1.1,0.4,1.1,1c0.9,0.3,1.6,0.9,2.2,1.6l-0.4,0.1c0.3-0.1-0.1,0.2,0.1,0.3c0.1-0.3,0.4-0.1,0.7-0.1c0.1,0.5,0.7,0.8,1.1,1
	l-0.2,0.2c0.6,0,0.6,0.7,0.7,1.2c-0.1,0.1-0.2,0.3-0.1,0.4c0.5,0,0.5,0.2,0.9,0.4c0.1,0.3,0.2,0.7,0.2,1.1c0.4,0.4,0.7,0.9,0.8,1.5
	c0.1,0.6,0.3,1.1,0.5,1.7l-0.3,0.1c0.8,1.1,0.2,2.5,0.4,3.5l-0.5-0.2c-0.1,0.2-0.1,0.5,0.2,0.6c0.1,0,0.2,0.1,0.3,0.1
	c-0.2,0.3,0.1,0.8-0.4,0.9c-0.2,0.3,0.1,0.4,0.1,0.7c-0.3,0.4-0.5,0.9-0.5,1.4l0.1-0.1c-0.1-0.1-0.3-0.2-0.4-0.1s-0.4,0.7,0.2,0.7
	c-0.3,0.3-0.5,0.6-0.5,1c-0.1,0.4-0.3,0.7-0.7,0.8c0.2,0,0.1,0.2,0.2,0.3c-0.3,0.5-0.9,0.8-1,1.3c-0.1,0-0.1-0.3-0.3-0.1
	s0.2,0.1,0.1,0.3c-0.2,0.4-0.5,0.8-0.9,1c-0.4,0.2-0.8,0.4-1.1,0.7c-0.5,0.6-1,1.1-1.7,1.5c-0.6,0.4-1.3,0.8-2,1.1v-0.1
	c-0.1,0.3-0.4,0.3-0.7,0.3s-0.5,0-0.6,0.4c-0.1-0.1-0.4,0.1-0.4-0.2c-0.1,0.2-0.4,0.2-0.7,0.2c-0.3,0-0.6,0.1-0.8,0.3
	c0.1,0,0.1,0,0.1-0.1c-0.6-0.2-1,0.3-1.6,0c0.1-0.1,0.2-0.1,0.2-0.2c-0.2-0.2-0.5,0.6-0.6,0c-0.1,0-0.1,0.3,0,0.3
	c-1.2-0.2-2.6,0.1-3.9,0c-0.4-0.3-0.4-0.5-0.3-0.7s0.1-0.2-0.3-0.1c0-0.1-0.1,0.2-0.1,0.1c-0.3,0.1-0.2-0.8-0.5-0.5
	c0,0.4-0.2,0.2-0.3,0.4c-0.5-0.4-0.4-0.8-1-0.7l0.1-0.2c-0.3,0-0.6-0.1-0.8-0.3c-0.3-0.1-0.6-0.1-0.9,0c-1.3-0.7-2.5-1.5-3.6-2.5
	c-1.1-1-2.1-2.1-2.8-3.4c-0.7-1.3-1.2-2.8-1.5-4.2c-0.1-0.7-0.2-1.5-0.2-2.2c0-0.2,0-0.4,0-0.6v-0.3v-0.2c0-0.2,0-0.4,0.1-0.6
	s0.1-0.4,0.1-0.6c0.6-0.6,0.6-0.7,0.5-1.5c0.1,0,0.1,0.1,0.2,0.1c-0.4-0.1,0.1-0.5-0.3-0.7c0.3-1.1,0.6-2.1,1-3.1
	c0,0.2,0.2,0.4,0.3,0.2l-0.1-0.3h0.1c0-0.2-0.1-0.4-0.3-0.3c0.6-1.4,1.5-2.5,2.6-3.4l0.4-0.3l0.1-0.1l0,0l0,0l0,0l0,0l0.2-0.1
	l0.4-0.3l0.4-0.3c0.6-0.4,1.1-0.8,1.7-1.2c0.7-0.3,1.4-0.7,2-1.2c1.1-0.2,2.1-0.2,3.1-0.3c1,0,2-0.2,3-0.3c0,0-0.3,1.1-1,1.4"/>
<path class="st0" d="M104.1,55.2c0.1,0.2,0.3,0.3,0.1,0.6C104.1,55.6,104.1,55.4,104.1,55.2"/>
<path class="st0" d="M108.8,58.6c0,0,0,0.1,0,0.1s-0.2,0.1-0.2,0S108.7,58.6,108.8,58.6"/>
<path class="st0" d="M109.8,59.3c-0.2,0.1-0.4,0.1-0.6,0.1L109.8,59.3"/>
<path class="st0" d="M110.2,60.6c0,0.2-0.1,0.2-0.2,0.2S110.1,60.7,110.2,60.6"/>
<path class="st0" d="M110.6,60.3c0.1,0.1,0,0.2,0,0.3C110.7,60.5,110.3,60.5,110.6,60.3"/>
<path class="st0" d="M111.9,62.5c0,0,0.2,0,0.1,0.2C112.1,62.5,111.6,62.6,111.9,62.5"/>
<path class="st0" d="M112.7,63.2C112.7,63.2,112.7,63.3,112.7,63.2c0,0.2-0.1,0.2-0.2,0.2"/>
<polyline class="st0" points="106.2,80.1 106.3,80 106.4,80.2 "/>
<path class="st0" d="M97.1,78.5c-0.2,0,0-0.2,0-0.2S96.9,78.4,97.1,78.5"/>
<polyline class="st0" points="92.7,75.2 92.7,75.3 92.4,75.5 "/>
<path class="st1" d="M75.6,72.3L75.6,72.3v-8.2H71v-5.8h4.6v-5.8l6.2-2.7v8.5h4.5V64h-4.5v11.5c0,1.4,0.5,2.8,1.6,3.7l0,0l1,0.9
	L80.4,85l-1.1-1c-0.1-0.1-0.3-0.3-0.4-0.4c-2.2-2.1-3.4-5.1-3.3-8.2"/>
<path class="st0" d="M113.1,68.9L113.1,68.9 M103.5,55.9c7.1,0,12.9,5.7,13,12.9c0,3.5-1.4,6.8-3.8,9.2c-5.1,5-13.4,5-18.4-0.2
	c-2.3-2.4-3.7-5.6-3.7-8.9c-0.1-3.5,1.3-6.8,3.8-9.2C96.8,57.3,100.1,55.9,103.5,55.9"/>
<path class="st2" d="M94,69.6c0-5.3,4.3-9.5,9.5-9.5s9.5,4.3,9.5,9.5s-4.3,9.5-9.5,9.5S94,74.8,94,69.6L94,69.6"/>
</svg>
