<svg width="197" height="107" viewBox="0 0 197 107" fill="none" xmlns="http://www.w3.org/2000/svg">
    <path d="M136.987 14.5389C136.904 14.1381 136.281 14.2442 135.81 14.2207C135.34 14.1971 135.352 13.6549 135.022 13.1716C134.693 12.6883 134.34 12.7826 133.717 12.5822C133.093 12.3818 132.882 13.0183 132.693 13.0537C132.505 13.0891 132.505 12.9476 132.164 12.9122C131.823 12.8769 132.011 13.0301 131.752 13.1834C131.494 13.3366 131.647 12.9594 131.835 12.6647C132.023 12.37 131.741 12.3111 131.647 11.651C131.552 10.9909 130.788 11.0734 130.282 11.1441C129.776 11.2148 128.965 11.7453 128.953 12.0518C128.941 12.3582 129.165 12.2875 129.223 12.4997C129.282 12.7119 129.106 12.4997 128.918 12.7826C128.729 13.0655 129.082 12.983 129.376 13.1716C129.67 13.3602 129.47 13.3366 129.376 13.478C129.282 13.6195 128.929 13.2187 128.706 13.0419C128.482 12.8651 128.577 12.4997 128.447 12.04C128.318 11.5803 128.8 11.427 129.118 11.2974C129.435 11.1677 130.141 11.2974 129.306 10.8141C128.471 10.3308 127.306 11.2148 126.953 11.592C126.787 11.7987 126.662 12.0362 126.588 12.2911C126.513 12.546 126.489 12.8132 126.518 13.0773C126.589 13.4309 127 13.4073 127.224 13.3602C127.447 13.313 127.612 13.537 127.471 13.6902C127.33 13.8435 127.247 13.5606 126.918 13.5606C126.589 13.5606 126.918 13.8199 127.047 14.1853C127.177 14.5507 128.153 14.2442 128.294 14.5389C128.396 14.6895 128.539 14.8082 128.705 14.8812C128.872 14.9542 129.056 14.9785 129.235 14.9515C129.641 14.9433 130.043 15.028 130.411 15.199C130.564 15.3287 130.647 15.199 130.753 15.199C130.858 15.199 131.094 15.4112 131.294 15.423C131.494 15.4348 131.129 15.1872 131.294 15.1754C131.618 15.2421 131.936 15.3327 132.246 15.4466C132.693 15.588 132.388 15.2108 132.529 14.9868C132.67 14.7629 133.164 15.3287 133.305 15.5998C133.446 15.8709 133.823 16.0124 134.14 16.1538C134.458 16.2953 134.234 16.3424 134.14 16.4013C134.046 16.4603 133.964 16.4013 133.693 16.4013C133.423 16.4013 133.611 16.6135 133.693 16.8021C133.776 16.9907 134.128 16.5664 134.305 16.5782C134.481 16.5899 134.552 16.5782 134.858 17.0143C135.188 17.3463 135.494 17.7008 135.775 18.0752C135.999 18.4524 135.963 18.4759 135.775 18.6056C135.419 18.8122 135.085 19.053 134.775 19.3246C134.481 19.6075 134.775 19.6429 134.928 19.9494C135.081 20.2558 134.47 20.0201 134.093 20.1144C133.717 20.2087 133.705 20.1144 133.293 19.9376C132.882 19.7608 132.729 19.9376 132.446 20.1851C132.164 20.4327 132.258 20.6448 132.576 20.8688C132.727 20.9591 132.903 21.0018 133.079 20.9913C133.255 20.9808 133.424 20.9176 133.564 20.8099C133.596 20.7849 133.633 20.7685 133.673 20.7623C133.713 20.7561 133.754 20.7603 133.792 20.7745C133.83 20.7888 133.863 20.8125 133.889 20.8434C133.915 20.8744 133.933 20.9115 133.94 20.9513C134.046 21.2696 134.481 20.6684 134.717 21.0692C134.902 21.3645 135.185 21.5855 135.516 21.6939C135.658 21.6939 135.775 21.6939 135.787 22.1536C135.799 22.6133 137.104 23.2263 137.422 23.3324C137.74 23.4385 138.21 23.5917 138.763 23.7449C139.316 23.8982 138.857 23.3206 138.528 23.0495C138.15 22.7837 137.826 22.4476 137.575 22.0593C137.387 21.6821 138.222 22.2951 138.539 22.6605C138.857 23.0259 138.904 22.6605 139.339 23.0377C139.774 23.4149 139.516 22.9316 139.669 22.6251C139.822 22.3187 139.739 22.024 139.422 21.576C139.104 21.1281 139.045 21.2342 138.892 20.8334C138.739 20.4327 138.645 20.5152 138.351 20.138C138.057 19.7608 138.598 19.9847 138.634 19.6429C138.669 19.3011 138.986 19.6429 139.163 19.8904C139.339 20.138 139.704 20.079 139.669 20.4091C139.633 20.7391 139.998 20.4091 140.445 21.081C140.892 21.7529 140.715 20.4091 141.221 20.4562C141.727 20.5034 141.786 20.1262 141.962 19.7018C142.139 19.2775 141.433 19.6193 141.186 19.2893C140.939 18.9592 141.021 19.5132 140.598 18.8296C140.174 18.1459 139.833 18.6174 139.422 18.0987C139.01 17.5801 139.116 17.6626 138.528 17.5094C137.94 17.3561 138.716 17.1322 139.022 16.8728C139.327 16.6135 138.516 16.6135 138.704 16.4131C138.892 16.2127 138.986 16.201 138.81 15.8591C138.634 15.5173 138.657 15.8591 138.363 15.8591C138.069 15.8591 138.175 15.7884 138.363 15.5291C138.551 15.2697 137.645 15.1519 137.187 15.0104C136.728 14.869 137.069 14.9161 136.987 14.5389ZM147.044 17.6508C147.585 17.6508 147.432 17.4976 147.573 17.2618C147.714 17.0261 147.032 16.8493 146.573 16.5664C146.115 16.2835 145.985 16.9082 145.985 16.9082C145.936 17.0412 145.936 17.1877 145.985 17.3208C146.056 17.5565 146.514 17.6508 147.044 17.6508ZM143.868 32.8567C143.962 32.5974 143.727 32.7388 143.35 32.7152C142.974 32.6917 142.456 33.7525 142.174 33.9529C141.892 34.1533 141.904 34.4008 141.774 34.4833C141.645 34.5659 141.668 34.5541 141.668 34.778C141.668 35.002 141.609 34.9313 141.609 34.9313C141.268 34.9313 141.386 35.1199 141.292 35.3203C141.198 35.5206 141.504 35.4735 141.809 35.391C142.115 35.3085 142.245 35.391 142.656 35.615C143.068 35.8389 143.139 35.556 143.28 35.7092C143.421 35.8625 143.421 35.7092 143.48 35.7092C143.538 35.7092 143.409 35.8271 143.233 36.0039C143.056 36.1807 143.386 36.1218 143.715 36.0039C144.044 35.8861 143.927 35.78 144.103 35.6267C144.28 35.4735 144.185 35.6975 144.185 35.8743C144.163 36.0044 144.188 36.1382 144.256 36.2515C144.362 36.4401 144.597 36.334 144.821 36.2515C145.044 36.169 144.938 35.8271 144.821 35.5796C144.703 35.332 144.609 35.5796 144.562 35.4499C144.515 35.3203 144.715 35.4499 144.809 35.2024C144.903 34.9548 144.609 35.0138 144.562 34.9195C144.515 34.8252 144.562 34.7073 144.562 34.4716C144.562 34.2358 144.103 34.3301 143.88 34.4008C143.656 34.4716 143.597 34.3183 143.503 34.0354C143.494 33.9857 143.474 33.9385 143.445 33.897C143.416 33.8556 143.379 33.8208 143.335 33.7951C143.292 33.7694 143.244 33.7534 143.193 33.7481C143.143 33.7428 143.092 33.7483 143.044 33.7643C142.856 33.7643 143.115 33.4932 143.374 33.3164C143.587 33.2315 143.762 33.0725 143.868 32.8685V32.8567ZM130.635 20.8099C130.4 20.6566 130.294 20.7391 130.223 20.468C130.153 20.1969 130.094 20.2676 129.788 20.079C129.529 19.9424 129.298 19.7585 129.106 19.5368C128.776 19.195 128.859 19.5368 128.624 19.36C128.388 19.1832 128.541 19.0889 128.177 18.8767C127.812 18.6645 128.106 18.9828 127.941 19.1125C127.777 19.2421 127.765 19.9494 127.577 20.0437C127.389 20.138 127.659 20.2794 127.671 20.4444C127.683 20.6095 127.553 20.5034 127.141 20.5977C126.73 20.692 127.047 20.7627 127.212 20.9277C127.377 21.0928 127.377 20.8452 127.565 20.7863C127.753 20.7273 127.859 20.7863 128.059 20.8806C128.259 20.9749 128.059 20.9631 127.988 21.1163C127.918 21.2696 127.988 21.2578 128.106 21.3874C128.224 21.5171 128.671 21.0574 128.953 21.0692C129.235 21.081 129.153 20.8099 129.176 20.6095C129.2 20.4091 129.518 20.6095 129.635 20.8688C129.753 21.1281 129.823 21.0102 130.047 21.0928C130.27 21.1753 130.247 21.2224 130.611 21.411C130.976 21.5996 130.858 20.9631 130.635 20.8099ZM123.872 8.22082C123.554 8.22082 123.577 8.35048 123.342 8.49193C123.107 8.63338 123.342 8.88092 123.342 8.88092C123.495 9.17561 123.789 9.16382 124.024 9.29348C124.232 9.37558 124.463 9.37558 124.671 9.29348C124.883 9.29348 124.848 9.14025 124.918 8.84556C124.989 8.55087 124.754 8.58623 124.483 8.27976C124.213 7.97328 124.189 8.22082 123.872 8.22082ZM129.647 21.635C129.459 21.6939 129.518 21.7764 129.365 21.7411C129.212 21.7057 129.035 21.5525 129.023 21.6703C129.012 21.7882 128.941 21.8472 128.835 21.9297C128.729 22.0122 128.577 22.0593 128.753 22.2008C128.853 22.2702 128.972 22.3074 129.094 22.3074C129.216 22.3074 129.335 22.2702 129.435 22.2008C129.518 22.1301 129.612 22.0122 129.741 22.0004C129.87 21.9886 130.047 21.9179 129.941 21.7764C129.835 21.635 129.835 21.5878 129.647 21.6468V21.635ZM133.846 18.193C134.046 18.1341 134.223 18.3581 134.281 17.9337C134.34 17.5094 134.528 17.3915 134.281 17.2618C134.081 17.1465 133.854 17.0855 133.623 17.085C133.623 17.085 133.176 17.1675 133.117 17.4386C133.058 17.7098 132.893 17.8041 133.058 17.9455C133.286 18.1137 133.563 18.2008 133.846 18.193ZM168.616 24.4286C169.004 24.1104 168.699 23.8628 168.393 23.5917C168.087 23.3206 168.24 23.2617 167.911 23.0259C167.73 22.8524 167.5 22.7409 167.252 22.7076C166.805 22.5662 166.934 22.7784 166.605 23.0023C166.276 23.2263 166.475 23.0731 165.97 22.9316C165.464 22.7902 165.593 23.0613 165.311 22.9316C165.029 22.8019 165.04 22.7902 164.899 23.1202C164.758 23.4503 164.793 23.3324 164.452 23.2263C164.111 23.1202 164.346 22.8019 164.017 22.4601C163.688 22.1183 162.841 22.8137 162.7 23.0731C162.559 23.3324 162.876 23.3206 163.088 23.2617C163.288 23.2076 163.499 23.2076 163.7 23.2617C163.899 23.2617 163.7 23.5799 163.535 23.5799C163.158 23.5799 163.253 23.5799 162.958 23.8275C162.664 24.075 163.582 24.0396 163.77 24.405C163.958 24.7705 163.511 24.5936 163.77 24.8412C164.029 25.0887 164.546 25.0769 165.252 25.3598C165.958 25.6427 166.428 25.2537 167.169 25.1359C167.734 25.0799 168.262 24.83 168.663 24.4286H168.616ZM126.106 9.57638C126.598 9.64202 127.093 9.66568 127.588 9.64711C127.765 9.64711 128.035 9.88286 128.388 10.0479C128.741 10.2129 128.953 10.1068 129.47 10.1775C129.808 10.2398 130.156 10.1858 130.459 10.0243C130.882 9.89465 130.717 10.0243 131.305 10.319C131.894 10.6137 131.952 10.4015 132.482 10.1893C133.011 9.97716 132.482 9.88286 132.482 9.47029C132.482 9.05773 132.141 9.21097 131.929 8.98701C131.717 8.76305 131.388 8.82198 130.929 8.75126C130.47 8.68053 130.529 8.75126 130.306 8.69232C129.898 8.70592 129.498 8.80216 129.129 8.97522C128.776 9.11667 128.965 9.06952 128.729 8.97522C128.494 8.88092 128.494 8.75126 128.083 8.78662C127.671 8.82198 127.659 8.5273 127.4 8.40942C127.141 8.29155 127.189 8.1501 127.4 7.9615C127.612 7.7729 127.4 7.79647 127.189 7.65502C126.977 7.51357 126.871 7.65502 126.718 7.46642C126.565 7.27782 126.471 7.18352 125.953 7.14816C125.436 7.1128 125.789 7.24246 125.436 7.3014C125.083 7.36033 125.259 7.3014 124.965 6.91241C124.671 6.52342 124.695 6.91241 124.342 6.74738C124.148 6.65163 123.942 6.58036 123.73 6.53521C123.225 6.40555 123.495 6.6413 123.377 6.85347C123.26 7.06565 123.495 7.00671 123.754 7.17173C124.013 7.33676 123.895 7.36033 123.895 7.36033C124.001 7.5843 124.554 7.49 124.954 7.54893C125.354 7.60787 125.601 7.99686 125.765 8.38585C125.93 8.77483 125.659 8.59802 125.636 9.02237C125.612 9.44672 125.918 9.47029 126.153 9.57638H126.106ZM100.911 26.6918C100.735 26.5268 100.911 26.4207 100.911 26.1142C100.911 25.8078 100.746 25.7724 100.429 25.7488C100.111 25.7252 100.217 25.9728 100.205 26.1614C100.193 26.35 100.511 26.4914 100.523 26.7272C100.535 26.9629 100.805 26.9865 100.852 27.1751C100.899 27.3637 100.958 27.3873 101.005 27.3991C101.358 27.3991 101.005 27.1869 101.005 27.0337C101.005 26.8804 101.029 26.8568 100.911 26.6918ZM150.42 68.8792C149.69 68.4667 149.243 67.2761 148.314 67.3587C147.385 67.4412 147.208 66.8282 146.691 67.064C146.173 67.2997 146.032 67.2172 146.197 66.9343C146.362 66.6514 145.973 66.1092 145.021 65.7556C144.068 65.4019 144.303 66.0267 143.844 66.0031C143.386 65.9795 144.221 65.6377 143.938 65.3784C143.656 65.119 142.103 65.5905 142.621 65.0719C143.139 64.5532 143.468 64.3882 143.092 63.8931C142.715 63.3981 143.092 62.8205 142.562 62.4786C142.003 61.9562 141.304 61.6081 140.551 61.4767C139.375 61.2763 139.269 61.0759 138.857 60.298C138.445 59.52 138.163 59.7557 137.881 59.5436C137.598 59.3314 137.881 58.8835 136.987 58.5652C136.093 58.2469 136.305 58.1998 135.81 58.3177C135.653 58.3841 135.477 58.3946 135.312 58.3475C135.147 58.3004 135.004 58.1983 134.905 58.0583C134.775 57.8344 134.128 58.188 133.881 57.9051C133.634 57.6222 133.717 57.3747 133.387 57.3629C133.058 57.3511 132.999 57.1035 132.882 56.9503C132.764 56.7971 132.564 56.9503 132.611 57.1743C132.658 57.3982 132.388 57.6693 132.176 57.4807C131.964 57.2921 131.752 57.1861 131.952 57.0092C132.152 56.8324 132.27 56.5731 131.952 56.6085C131.819 56.5994 131.685 56.6263 131.565 56.6864C131.445 56.7465 131.343 56.8376 131.27 56.9503C130.953 57.3039 130.459 56.8678 130.094 57.1978C129.729 57.5279 129.506 57.4807 129.459 57.8226C129.412 58.1644 128.812 58.8127 128.459 58.4355C128.106 58.0583 127.565 57.5633 127.177 57.799C126.789 58.0348 126.424 58.2587 126.001 57.9051C125.577 57.5515 125.659 57.799 125.412 57.41C125.165 57.021 125.001 56.8914 125.024 56.5849C125.048 56.2784 125.354 55.9012 125.154 55.5004C124.954 55.0997 125.718 54.5457 125.295 54.192C124.871 53.8384 124.565 53.6144 124.119 53.7323C123.672 53.8502 122.284 53.6734 122.448 53.3905C122.69 53.0014 122.854 52.5691 122.93 52.1174C122.93 51.8345 123.272 51.8581 123.307 51.4927C123.342 51.1273 124.013 50.644 123.813 50.4554C123.676 50.3124 123.498 50.2161 123.304 50.1802C123.11 50.1442 122.909 50.1704 122.731 50.255C122.237 50.479 121.978 50.255 121.625 51.1155C121.272 51.976 121.025 51.9878 120.731 51.8463C120.402 51.718 120.037 51.718 119.708 51.8463C119.413 51.9524 119.272 51.6459 118.802 51.4573C118.331 51.2687 118.402 50.8208 118.178 50.5261C117.955 50.2314 117.978 49.5713 117.79 49.0055C117.717 48.7155 117.711 48.4122 117.775 48.1197C117.838 47.8272 117.968 47.5534 118.155 47.3199C118.425 47.1549 118.32 46.6362 118.237 46.1412C118.155 45.6461 118.52 45.5636 119.002 45.4929C119.429 45.4288 119.833 45.2586 120.178 44.9978C120.282 44.8956 120.421 44.8383 120.566 44.8383C120.712 44.8383 120.851 44.8956 120.954 44.9978C121.213 45.1628 121.307 44.9978 121.554 44.9978C121.801 44.9978 121.695 45.3043 121.966 45.375C122.236 45.4457 122.284 45.5164 122.531 45.375C122.778 45.2335 122.754 45.6697 122.872 45.2571C122.989 44.8446 122.989 44.7856 123.307 44.821C123.624 44.8563 123.613 44.9153 123.848 44.7385C124.083 44.5617 124.177 45.1628 124.66 44.9978C125.142 44.8328 124.942 45.7168 125.612 45.3278C126.283 44.9389 126.612 46.0233 126.565 46.3887C126.524 46.8007 126.619 47.215 126.836 47.5675C127.059 47.9565 127.33 48.7462 127.659 48.428C127.797 48.2688 127.894 48.078 127.941 47.8725C127.989 47.6669 127.985 47.4528 127.93 47.2492C127.871 46.6785 127.72 46.1212 127.483 45.599C127.294 44.9978 127.483 44.9624 127.706 44.5381C127.93 44.1137 128.33 43.9016 128.882 43.4654C129.435 43.0293 129.423 43.4654 129.882 42.9821C130.341 42.4988 130.8 42.6521 130.953 42.0391C131.105 41.4262 130.953 40.8604 131.047 40.8014C131.141 40.7425 131.153 41.1197 131.364 40.8014C131.576 40.4832 131.623 40.4007 131.541 40.1885C131.458 39.9763 131.482 39.882 131.694 39.9881C131.905 40.0942 131.917 40.1178 132.07 39.9881C132.444 39.4771 132.888 39.0209 133.387 38.6325C133.969 38.2745 134.486 37.8202 134.917 37.2888C135.222 36.8526 135.516 37.0412 135.963 36.8762C136.41 36.7112 136.646 36.7819 136.751 36.5462C136.857 36.3104 137.798 36.4283 138.069 36.2043C138.339 35.9804 138.234 36.4283 137.928 36.5462C137.622 36.664 137.116 37.0412 137.21 37.277C137.304 37.5127 137.493 37.7603 137.775 37.5599C138.057 37.3595 138.128 37.0766 138.398 37.0294C138.837 37.0354 139.272 36.9553 139.68 36.7937C139.974 36.5815 139.951 36.4636 140.186 36.4636C140.421 36.4636 140.868 36.6051 140.774 36.2279C140.68 35.8507 140.774 35.4735 140.563 35.5206C140.351 35.5678 140.386 35.6503 140.139 35.9332C139.892 36.2161 140.033 36.4401 139.704 36.334C139.513 36.2449 139.303 36.2044 139.092 36.2161C138.975 36.2126 138.861 36.1846 138.755 36.1338C138.65 36.0831 138.556 36.0107 138.481 35.9214C138.292 35.7092 138.21 35.6503 138.069 35.4853C137.928 35.3203 138.069 35.4853 138.069 35.1081C138.069 34.7309 137.928 34.7191 137.716 34.5659C137.504 34.4126 137.387 34.3183 137.587 34.3419C137.787 34.3655 137.928 34.5659 138.269 34.3419C138.61 34.1179 138.622 33.9883 138.434 33.7172C138.285 33.5858 138.102 33.4995 137.906 33.4682C137.711 33.4369 137.51 33.4619 137.328 33.5403C136.661 33.7233 136.032 34.0226 135.469 34.4244C134.869 34.9548 134.54 35.0609 134.693 34.8488C135.068 34.4107 135.49 34.0154 135.952 33.67C136.36 33.5091 136.735 33.2733 137.057 32.9746C137.41 32.5856 137.563 32.6799 137.798 32.7152C138.034 32.7506 139.422 32.8685 139.904 32.9628C140.386 33.0571 140.915 33.281 141.386 32.9628C141.71 32.6715 142.127 32.5045 142.562 32.4913C142.771 32.5113 142.982 32.4749 143.172 32.3857C143.363 32.2966 143.526 32.158 143.644 31.9844C143.692 31.8689 143.714 31.7446 143.71 31.6197C143.706 31.4948 143.674 31.3723 143.619 31.2605C143.563 31.1488 143.484 31.0503 143.387 30.9718C143.29 30.8933 143.177 30.8367 143.056 30.8057C142.609 30.7467 143.056 30.2516 142.609 29.9805C142.162 29.7094 141.527 29.4972 141.433 29.1908C141.339 28.8843 140.445 28.5307 140.739 28.0827C141.033 27.6348 140.657 27.3755 140.492 26.9747C140.327 26.5739 139.833 26.1378 139.763 25.796C139.692 25.4541 139.586 24.7822 139.269 25.0769C138.951 25.3716 138.904 25.7017 138.622 25.9256C138.339 26.1496 137.822 26.5857 137.516 26.4089C137.21 26.2321 136.634 25.9846 136.669 25.6663C136.704 25.348 136.399 24.8294 136.575 24.4876C136.752 24.1457 136.787 23.9689 136.575 24.0396C136.44 24.0954 136.29 24.106 136.148 24.0699C136.006 24.0339 135.879 23.953 135.787 23.8392C135.489 23.4866 135.171 23.152 134.834 22.8373C134.705 22.6723 134.67 22.5662 134.199 22.6133C133.994 22.66 133.782 22.6587 133.578 22.6097C133.374 22.5606 133.184 22.465 133.023 22.3304C132.635 22.0122 132.046 22.0593 132.046 22.2715C131.99 22.5759 132.018 22.8901 132.129 23.1791C132.305 23.6506 131.799 23.4149 132.035 23.7685C132.129 23.9033 132.179 24.0638 132.179 24.2282C132.179 24.3927 132.129 24.5532 132.035 24.6879C131.894 24.8765 131.435 25.3363 131.835 25.7252C132.028 25.8666 132.181 26.0565 132.278 26.2758C132.375 26.4951 132.413 26.7362 132.388 26.9747C132.382 27.1734 132.333 27.3684 132.244 27.5457C132.154 27.723 132.027 27.8783 131.87 28.0002C131.588 28.1653 130.517 28.3185 130.611 28.6957C130.706 29.0729 130.611 29.1083 130.764 29.568C130.849 29.7684 130.882 29.9871 130.859 30.2036C130.837 30.42 130.759 30.6272 130.635 30.8057C130.435 30.9589 130 31.3832 129.694 30.8057C129.388 30.2281 128.871 29.9452 128.929 29.4501C128.988 28.955 129.141 28.0945 128.835 27.9767C128.529 27.8588 127.506 27.7645 127.165 27.4934C126.599 26.9632 125.961 26.5149 125.271 26.1614C124.737 25.9093 124.156 25.7689 123.566 25.7488C123.236 25.7488 123.483 25.6781 123.413 25.3363C123.342 24.9944 123.283 24.3461 122.825 24.299C122.366 24.2518 122.284 24.1339 122.319 23.8275C122.312 23.3453 122.469 22.8752 122.766 22.4955C123.246 22.1427 123.695 21.7483 124.107 21.3167C124.307 21.0102 124.213 21.1045 124.389 21.0574C124.565 21.0102 125.048 20.7981 124.824 20.5741C124.601 20.3501 124.683 20.3266 124.907 20.3737C125.271 20.3955 125.632 20.2915 125.93 20.079C126.189 19.8551 126.918 19.8315 127.106 19.5368C127.294 19.2421 127.353 19.195 127.106 19.1007C126.859 19.0064 126.918 19.0064 127.177 18.9592C127.476 18.873 127.747 18.7105 127.965 18.4877C128.165 18.2873 127.494 18.1577 127.73 18.0752C127.818 18.0197 127.92 17.9903 128.024 17.9903C128.128 17.9903 128.23 18.0197 128.318 18.0752C128.471 18.193 128.318 18.3109 128.529 18.3109C128.741 18.3109 129.388 18.4524 129.412 18.3109C129.435 18.1695 129.741 18.3109 130.035 18.1105C130.329 17.9101 130.941 17.6626 130.788 17.3208C130.635 16.9789 130.012 16.4485 130.341 16.4013C130.67 16.3542 130.988 16.2835 130.847 15.9534C130.706 15.6234 130.694 15.4112 130.459 15.258C130.154 15.053 129.789 14.9574 129.423 14.9868C129.059 14.9868 128.424 15.0694 128.753 15.5291C129.082 15.9888 128.518 15.6352 128.388 16.4839C128.235 16.9553 127.965 16.696 127.459 17.3443C127.165 17.5212 127.247 17.144 127.141 16.9318C127.141 16.9318 126.706 16.4013 127.012 16.201C127.318 16.0006 127.306 15.8473 127.094 15.6234C126.883 15.3994 126.33 14.8218 126.2 15.4583C126.071 16.0949 125.683 16.2835 125.765 15.9534C125.848 15.6234 125.942 14.9633 125.601 14.7747C125.259 14.5861 125.001 14.8336 124.954 14.6096C124.907 14.3857 124.824 14.3621 125.06 14.2089C125.295 14.0556 125.189 13.9613 124.989 13.6313C124.789 13.3012 124.989 13.1008 124.589 12.8415C124.189 12.5822 123.824 12.2757 124.107 12.0046C124.389 11.7335 124.518 11.592 124.377 11.3799C124.236 11.1677 124.377 11.0145 124.648 11.1795C124.918 11.3445 125.471 11.3681 125.565 11.038C125.659 10.708 126.647 10.4369 126.389 10.2483C126.008 10.0067 125.569 9.87609 125.118 9.87107C124.73 9.87107 124.401 9.62353 124.048 9.80034C123.695 9.97716 123.425 9.80034 123.472 10.2483C123.519 10.6962 123.213 10.9909 123.472 11.427C123.522 11.504 123.556 11.5912 123.569 11.6824C123.583 11.7736 123.577 11.8667 123.551 11.9553C123.525 12.0439 123.481 12.1258 123.42 12.1954C123.36 12.2649 123.285 12.3205 123.201 12.3582C122.895 12.5468 122.484 13.0183 122.789 13.537C123.095 14.0556 122.436 13.9731 123.06 14.4564C123.13 14.5204 123.211 14.5701 123.3 14.6024C123.389 14.6348 123.483 14.6493 123.577 14.645C123.942 14.645 123.719 14.8454 123.86 15.0811C124.001 15.3169 123.554 15.3287 123.73 15.4701C123.907 15.6116 123.73 15.9534 123.46 16.0124C123.189 16.0713 122.719 16.0124 122.86 16.4013C123.001 16.7903 122.86 17.0732 122.742 16.8964C122.625 16.7196 122.331 16.7314 122.436 16.4485C122.542 16.1656 122.872 15.8709 122.672 15.7884C122.472 15.7059 122.048 15.7884 122.142 15.6587C122.237 15.5291 122.331 15.588 122.554 15.4937C122.778 15.3994 122.836 15.3169 122.754 15.0694C122.672 14.8218 122.248 14.5861 122.06 14.3621C121.872 14.1381 121.637 14.1499 121.413 14.4564C121.19 14.7629 120.907 14.7982 121.413 15.1165C121.919 15.4348 121.707 15.5055 121.484 15.5762C121.26 15.6469 121.19 15.7295 121.248 15.9298C121.307 16.1302 121.131 16.1302 120.919 16.0831C120.707 16.0359 119.743 16.0831 119.437 15.9652C119.131 15.8473 118.884 15.6352 118.437 15.5173C117.99 15.3994 117.579 15.3523 117.484 15.1754C117.39 14.9986 116.99 15.0576 116.52 15.258C116.049 15.4583 115.673 15.258 116.014 15.7295C116.355 16.201 116.096 16.7432 115.861 16.4131C115.626 16.0831 115.708 15.9181 115.285 15.6234C114.861 15.3287 114.697 15.1401 114.309 15.258C113.974 15.3062 113.635 15.3259 113.297 15.3169C112.697 15.3758 111.438 14.8454 111.838 14.6804C112.238 14.5153 112.568 14.6804 112.203 14.2442C111.838 13.8081 111.78 13.8081 111.368 13.8788C111.162 13.9148 110.951 13.9072 110.749 13.8564C110.546 13.8057 110.356 13.7129 110.192 13.5841C109.909 13.3602 109.227 13.2659 108.933 13.0419C108.605 12.8047 108.233 12.6363 107.839 12.5468C107.794 12.5206 107.743 12.5063 107.691 12.5055C107.638 12.5047 107.587 12.5173 107.541 12.5421C107.495 12.5669 107.456 12.6032 107.428 12.6473C107.4 12.6915 107.383 12.7421 107.38 12.7944C107.38 12.7944 107.38 13.2187 107.063 12.9712C106.745 12.7236 106.886 12.0164 106.486 12.1225C106.087 12.2286 106.122 13.2187 105.828 12.7236L105.71 12.4997C103.006 15.4756 100.701 18.7923 98.8525 22.3658C98.8525 22.6133 98.9584 22.8491 99.4289 22.4837C99.4289 22.4837 99.6877 22.1183 99.8524 22.3422C100.017 22.5662 100.476 23.851 101.029 23.91C101.581 23.9689 100.923 24.6408 100.77 24.4758C100.617 24.3107 100.393 23.8275 100.382 24.1221C100.37 24.4168 100.546 25.3009 100.758 25.1712C100.97 25.0416 100.887 25.0298 101.005 24.8412C101.123 24.6526 101.287 24.2518 101.452 24.464C101.617 24.6762 101.381 24.464 101.558 24.9119C101.734 25.3598 101.946 25.3245 102.052 25.0298C102.052 25.0298 102.287 25.0887 101.911 25.3598C101.534 25.6309 101.581 25.7842 102.123 26.1024C102.664 26.4207 102.511 26.2793 102.758 26.185C103.005 26.0907 102.664 26.3736 102.675 26.5857C102.687 26.7979 102.887 27.6112 103.111 27.458C103.334 27.3048 103.393 27.5405 103.205 27.7173C103.156 27.801 103.128 27.895 103.123 27.9916C103.117 28.0882 103.135 28.1848 103.174 28.2733C103.213 28.3619 103.272 28.4399 103.347 28.501C103.422 28.5621 103.51 28.6046 103.605 28.625C104.099 28.6957 103.758 29.0611 103.428 28.8489C103.099 28.6368 102.617 28.6368 102.946 28.955C103.186 29.2218 103.473 29.4416 103.793 29.6033C104.146 29.7801 105.122 30.6406 104.887 30.6878C104.651 30.7349 104.522 30.9235 104.746 31.3243C104.82 31.4426 104.859 31.5795 104.859 31.7192C104.859 31.8589 104.82 31.9958 104.746 32.1141C104.432 33.0878 104.293 34.1094 104.334 35.1317C104.557 35.721 103.993 36.8173 104.651 37.4892C104.651 37.4892 104.157 37.8428 104.44 38.22C104.44 38.22 104.44 38.609 104.722 38.4557C105.004 38.3025 105.122 38.4557 105.11 38.774C105.098 39.0923 105.381 39.3044 105.592 39.5755C105.804 39.8467 105.687 40.1296 106.239 40.2592C106.792 40.3889 107.016 41.0372 106.875 41.214C106.733 41.3908 107.051 41.9566 107.404 41.8034C107.757 41.6501 107.804 42.3338 107.804 42.3338C107.973 42.8319 108.211 43.304 108.51 43.7365C108.815 44.043 109.027 44.5499 108.757 44.7503C108.486 44.9506 109.239 45.3868 109.239 45.3868C109.418 45.4846 109.568 45.6273 109.675 45.8009C109.782 45.9744 109.843 46.1729 109.851 46.3769C109.851 47.0135 110.145 47.1077 110.45 47.3199C110.756 47.5321 110.909 48.0154 111.074 47.815C111.239 47.6146 110.78 47.2728 110.662 47.0135C110.567 46.6629 110.445 46.3201 110.298 45.9879C110.163 45.5532 109.938 45.1516 109.639 44.8092C109.192 44.3023 109.639 44.2788 109.051 43.6304C108.463 42.9821 108.698 42.2749 108.921 42.3456C109.099 42.3756 109.265 42.4575 109.397 42.5813C109.528 42.705 109.621 42.8649 109.662 43.0411C109.876 43.7925 110.281 44.475 110.839 45.0214C111.008 45.5253 111.294 45.9818 111.674 46.3534C112.229 46.9195 112.683 47.5775 113.015 48.2983C113.097 48.5458 113.709 49.2766 113.273 49.8896C112.838 50.5025 113.615 50.5379 114.167 50.9858C114.761 51.4372 115.395 51.8318 116.061 52.1646C116.579 52.4121 117.802 53.3433 118.414 53.0958C118.83 52.9821 119.273 53.024 119.661 53.2137C119.661 53.2137 120.296 54.3924 121.213 54.5103C122.131 54.6282 121.884 55.0525 122.966 55.3944C124.048 55.7362 123.836 56.3963 123.813 56.5731C123.789 56.7499 123.719 57.0918 124.248 57.3039C124.777 57.5161 124.518 58.023 125.307 58.1644C126.095 58.3059 126.483 59.1899 126.659 58.907C126.836 58.6241 126.53 58.4827 126.789 58.3648C126.789 58.3648 127.377 57.7636 127.694 58.3648C128.012 58.966 127.694 58.8127 128.177 59.3314C128.321 59.6739 128.382 60.0457 128.355 60.4165C128.329 60.7873 128.215 61.1466 128.024 61.4649C127.661 61.6812 127.355 61.98 127.13 62.3372C126.894 62.7851 126.53 62.5022 126.2 63.1505C125.871 63.7988 125.577 64.8479 126.13 64.5179C126.683 64.1878 126.13 64.9658 126.13 65.0719C126.13 65.178 125.212 65.4019 125.471 65.897C125.73 66.3921 125.271 66.3449 125.918 66.8872C126.565 67.4294 126.412 68.4549 126.824 69.0561C127.265 69.7419 127.543 70.5203 127.636 71.331C127.636 71.9676 128.118 72.0854 128.4 72.333C128.682 72.5805 130.564 73.4292 130.623 74.5608C130.544 75.5953 130.395 76.6232 130.176 77.6374C130.176 78.0381 129.776 79.1461 129.812 79.5351C129.847 79.9241 129.223 80.5253 129.271 81.3033C129.129 82.2039 128.913 83.091 128.624 83.9555C128.471 84.9456 127.353 85.2756 127.553 86.1243C127.706 86.7373 127.294 87.4328 127.13 87.975C128.749 88.461 130.394 88.8545 132.058 89.1537C132.058 88.8708 132.058 88.6351 132.27 88.7058C132.67 88.8237 133.105 89.1419 133.364 88.8708C133.623 88.5997 133.47 87.5506 133.823 87.586C134.175 87.6214 135.622 87.7392 135.881 87.4681C136.14 87.197 137.057 86.8905 136.822 86.1833C136.587 85.476 136.822 85.0753 137.198 85.1224C137.575 85.1696 138.586 85.5703 139.057 84.8395C139.527 84.1087 139.986 84.038 140.033 83.59C140.08 83.1421 140.645 82.7296 140.727 82.8356C140.81 82.9417 140.386 83.3896 140.457 83.5193C140.527 83.649 140.998 83.1421 141.162 82.7885C141.34 82.478 141.585 82.2119 141.88 82.0105C142.173 81.5774 142.313 81.0591 142.28 80.5371C142.28 79.9241 142.703 79.7591 142.997 79.6177C143.635 79.4329 144.241 79.1548 144.797 78.7925C145.244 78.4625 145.362 78.6982 145.632 78.7925C145.89 78.8059 146.148 78.7534 146.38 78.64C146.613 78.5266 146.813 78.3561 146.961 78.1442C147.22 77.602 147.891 77.1659 147.949 76.6354C148.008 76.105 148.479 75.3506 148.514 74.997C148.549 74.6433 148.702 73.3703 149.255 73.0874C149.808 72.8045 149.549 72.6041 150.078 72.1326C150.502 71.8703 150.839 71.4892 151.048 71.0366C151.257 70.5839 151.329 70.0797 151.255 69.5865C150.89 68.6553 151.102 69.2682 150.384 68.8675L150.42 68.8792ZM185.013 50.8562C184.425 51.2098 185.013 51.4102 184.766 51.7874C184.519 52.1646 184.19 51.8699 183.59 51.4338C182.99 50.9976 182.649 51.7285 182.414 50.9623C182.331 50.6463 182.136 50.3715 181.865 50.1892C181.594 50.007 181.267 49.9298 180.943 49.9721C180.332 50.0782 180.391 49.6185 179.897 49.3945C179.403 49.1706 179.332 49.2059 179.897 48.7344C180.461 48.2629 180.002 48.1568 179.897 47.9447C179.791 47.7325 180.061 47.7207 179.955 47.2728C179.85 46.8249 178.885 47.3435 178.579 47.1313C178.377 46.998 178.147 46.9119 177.907 46.8793C177.666 46.8466 177.422 46.8683 177.191 46.9427C176.603 47.1195 176.932 46.9427 175.192 46.7659C173.451 46.5891 172.839 47.8268 172.568 47.5439C172.41 47.4304 172.23 47.3518 172.04 47.3132C171.849 47.2746 171.652 47.2769 171.463 47.3199C170.992 47.3199 171.122 47.037 170.804 46.8838C170.487 46.7306 170.287 48.1804 169.463 48.1215C168.64 48.0625 168.075 49.4299 168.063 50.0311C168.052 50.6322 167.122 51.1391 166.464 51.2098C165.805 51.2805 166.099 51.587 165.499 51.9642C164.837 52.6294 164.263 53.3783 163.794 54.192C163.615 54.3704 163.494 54.5975 163.443 54.8449C163.393 55.0923 163.417 55.349 163.511 55.583C163.634 55.8738 163.698 56.1865 163.698 56.5024C163.698 56.8183 163.634 57.1309 163.511 57.4218C163.264 57.7283 163.405 58.0819 163.111 58.4709C162.9 58.9484 162.807 59.4701 162.841 59.9915C162.782 60.5337 163.253 60.2744 163.535 60.9698C163.817 61.6653 164.441 61.2999 164.617 62.3608C164.793 63.4216 164.958 63.3627 165.323 63.6338C165.687 63.9049 165.864 63.6338 166.393 64.5415C166.521 64.845 166.756 65.0907 167.053 65.232C167.35 65.3732 167.689 65.4002 168.005 65.3076C168.351 65.1637 168.723 65.0896 169.099 65.0896C169.474 65.0896 169.846 65.1637 170.192 65.3076C171.204 65.7791 170.628 65.3076 171.51 65.2369C172.392 65.1662 172.133 65.0483 172.921 64.8833C174.333 64.8833 174.897 65.3784 174.933 65.7791C174.968 66.1799 175.121 66.4392 175.639 66.3096C175.902 66.2596 176.173 66.2765 176.428 66.3589C176.683 66.4413 176.913 66.5864 177.097 66.7811C177.462 67.1465 177.521 67.6062 177.097 67.9009C176.674 68.1956 177.097 69.0207 176.556 69.3743C176.015 69.7279 176.874 70.1169 177.215 70.7181C181.527 64.7593 184.35 57.8512 185.448 50.5733L185.013 50.8562ZM164.135 18.9003C164.441 18.641 163.405 18.4759 162.641 18.3109C161.876 18.1459 161.712 18.3109 161.018 18.087C160.324 17.863 161.194 17.7569 161.653 17.6272C162.112 17.4976 162.394 17.5683 162.829 17.3561C163.264 17.144 163.158 17.4386 163.37 17.7923C163.47 17.9595 163.604 18.1031 163.765 18.213C163.925 18.3229 164.108 18.3965 164.299 18.4288C164.77 18.5467 164.793 18.252 164.911 17.7333C165.029 17.2147 164.593 17.5801 164.546 17.2029C164.499 16.8257 163.888 16.4485 163.37 16.0949C162.853 15.7412 163.076 15.7177 162.876 15.4466C162.676 15.1754 163.335 15.1047 163.629 14.9397C163.923 14.7747 164.264 15.1754 164.582 15.4583C164.899 15.7412 165.534 15.3876 165.84 15.2462C166.146 15.1047 165.687 14.8218 165.252 14.7039C164.817 14.5861 165.111 14.4682 165.252 14.2207C165.393 13.9731 165.676 14.1499 165.852 14.3503C166.029 14.5507 166.123 14.5036 166.593 14.4918C167.064 14.48 166.193 14.0321 165.911 13.867C165.629 13.702 165.77 13.5134 165.829 13.2777C165.887 13.0419 166.158 13.478 166.64 13.3837C167.122 13.2894 166.452 12.8651 166.193 12.7001C165.934 12.535 166.264 12.6058 166.534 12.5233C166.805 12.4407 166.005 12.3111 165.617 12.1225C165.229 11.9339 165.617 11.7806 166.04 11.592C166.464 11.4034 166.84 11.6863 167.499 11.7571C168.158 11.8278 167.616 11.3563 167.369 11.0498C167.122 10.7433 166.875 10.9437 166.464 10.708C166.052 10.4722 166.464 10.6137 167.017 10.708C167.569 10.8023 166.887 10.484 166.534 10.2954C166.181 10.1068 166.146 10.2954 165.805 10.2954C165.464 10.2954 165.958 9.9418 166.158 9.52923C166.358 9.11667 166.499 9.16382 166.875 9.14025C167.252 9.11667 167.028 8.89271 167.393 8.83377C167.758 8.77483 167.193 8.60981 167.052 8.3387C166.911 8.06758 167.205 8.12652 167.616 8.1501C167.758 8.18098 167.905 8.16692 168.038 8.10986C168.171 8.05281 168.282 7.95561 168.357 7.83183C168.546 7.5843 167.758 7.60787 167.181 7.64323C166.605 7.6786 166.758 7.80826 166.77 7.5843C166.781 7.36033 167.075 7.28961 167.416 7.43106C167.795 7.55858 168.194 7.61063 168.593 7.5843C167.816 6.95956 167.017 6.40555 166.24 5.7926C165.699 6.05192 165.064 6.49985 164.735 6.65308C164.405 6.80632 165.064 6.1698 165.723 5.53327V5.47434L164.735 4.81424H164.652C164.041 4.88496 163.405 5.3211 162.829 5.26216C162.253 5.20322 163.641 5.07356 163.782 4.81424C163.923 4.55491 161.429 4.48419 160.771 4.46061C160.112 4.43704 159.594 4.64921 159.465 4.46061C159.336 4.27201 162.711 4.31916 163.417 4.46061C163.656 4.48136 163.896 4.48136 164.135 4.46061C162.684 3.55949 161.184 2.74093 159.641 2.00881C158.83 1.86736 158.065 1.74949 157.759 1.71413C157.124 1.6434 157.677 1.90273 157.336 1.90273C156.976 1.83182 156.608 1.81199 156.242 1.84379C155.842 1.96166 156.348 1.97345 156.548 2.25635C156.748 2.53925 156.289 2.18563 155.936 2.43316C155.583 2.6807 154.678 2.12669 154.113 1.74949C153.548 1.37229 153.254 1.74949 152.831 1.90273C152.407 2.05596 152.984 2.1149 152.643 2.26814C152.302 2.42138 153.701 3.10505 153.36 3.06969C153.019 3.03432 152.725 3.27008 152.819 3.44689C152.913 3.6237 153.172 4.02447 152.643 3.70621C151.727 2.97584 150.636 2.50015 149.479 2.32708C149.008 2.3978 149.973 3.0579 150.173 3.31722C150.373 3.57655 149.984 3.39974 149.631 3.19935C149.153 2.99621 148.625 2.93882 148.114 3.03433C147.726 3.11684 147.902 3.31722 147.608 3.28186C147.314 3.2465 147.691 3.14041 147.808 2.8693C147.926 2.59819 147.432 2.40959 147.032 2.35065C146.245 2.29882 145.455 2.34634 144.679 2.4921C144.585 2.62176 144.785 2.5864 144.75 2.72785C144.715 2.8693 144.432 2.62176 143.95 2.64534C143.468 2.66891 144.033 2.9636 143.891 3.03433C143.75 3.10505 143.609 3.03433 143.75 3.41152C143.891 3.78872 143.75 3.69443 143.444 3.74158C143.139 3.78873 142.645 3.48225 142.362 3.41152C142.226 3.38917 142.087 3.39999 141.956 3.44308C141.825 3.48617 141.706 3.56025 141.609 3.65906C141.328 3.87097 141.008 4.027 140.668 4.11877C140.245 4.27201 140.292 4.3781 140.504 4.61385C140.715 4.8496 141.468 4.67279 141.739 4.70815C142.009 4.74351 142.033 4.88496 141.739 5.0382C141.445 5.19143 141.551 5.33288 141.551 5.33288C141.21 5.96941 140.304 5.76902 140.304 5.76902C139.033 5.55685 138.833 5.96941 137.669 6.18159C136.504 6.39376 137.128 6.7356 137.551 7.10101C137.975 7.46642 138.386 7.3957 139.022 7.63145C139.205 7.72103 139.406 7.76759 139.61 7.76759C139.814 7.76759 140.015 7.72103 140.198 7.63145C140.657 7.50178 140.516 7.7729 140.327 8.03222C140.139 8.29155 139.151 7.90256 138.728 7.85541C138.564 7.80846 138.391 7.79784 138.223 7.8243C138.054 7.85076 137.893 7.91367 137.751 8.00865C137.316 8.26797 138.634 8.48015 139.116 8.55087C139.598 8.6216 138.986 8.76305 138.669 9.01058C138.351 9.25812 139.28 9.31706 139.916 9.47029C140.551 9.62353 140.363 9.47029 141.609 9.47029C142.142 9.46468 142.671 9.5661 143.164 9.76855C143.656 9.97101 144.104 10.2704 144.479 10.649C144.632 11.0498 144.585 11.0027 145.044 11.4742C145.503 11.9457 145.526 11.9103 145.373 12.2875C145.221 12.6647 145.656 12.3936 145.926 12.9948C146.197 13.5959 146.42 14.1735 145.926 14.5861C145.432 14.9986 145.82 15.0929 146.056 15.5173C146.291 15.9416 146.573 15.4583 146.997 15.1519C147.42 14.8454 147.726 15.8709 148.173 16.2599C148.62 16.6489 148.079 16.6253 147.585 16.4131C147.091 16.201 147.091 16.1066 146.491 16.1892C145.891 16.2717 147.032 16.6371 147.667 17.0968C148.302 17.5565 147.797 17.0968 148.396 17.1557C148.996 17.2147 148.643 17.4269 148.185 17.7215C147.726 18.0162 147.879 18.5349 147.585 18.4641C147.291 18.3934 146.985 18.582 146.597 19.0064C146.209 19.4307 146.303 19.7372 146.785 20.0672C147.267 20.3973 146.95 20.2087 146.503 20.468C146.056 20.7273 146.597 21.2931 146.891 21.4935C147.185 21.6939 146.985 21.9179 147.079 22.4837C147.173 23.0495 147.314 22.3422 147.691 22.2361C148.067 22.1301 147.691 22.5544 147.361 22.8845C147.032 23.2145 148.538 25.1712 148.914 25.6309C149.29 26.0907 149.514 25.9021 149.914 25.9374C150.314 25.9728 150.255 26.1732 150.561 26.4796C150.867 26.7861 150.949 26.5386 151.466 26.5622C151.984 26.5857 152.396 25.3834 152.325 24.8765C152.255 24.3697 152.419 24.3697 152.831 24.3225C153.243 24.2754 153.337 23.6742 153.196 23.3206C153.054 22.967 153.713 23.0259 153.396 22.743C153.078 22.4601 153.619 22.743 153.995 22.3658C154.372 21.9886 154.819 22.2008 154.983 22.0004C155.148 21.8 155.325 21.5525 155.372 21.8707C155.419 22.189 157.195 21.5996 157.724 21.1281C158.253 20.6566 158.43 20.1733 159.077 20.2441C159.724 20.3148 160.03 19.9965 160.935 20.0672C161.841 20.138 162.5 19.6547 163.053 19.6311C163.487 19.52 163.869 19.2618 164.135 18.9003ZM175.097 37.7603C174.78 37.9017 174.627 37.7603 174.286 37.666C173.945 37.5717 174.145 37.666 174.039 37.9489C173.933 38.2318 173.804 38.2318 173.368 38.0903C173.151 38.0074 172.917 37.9791 172.686 38.0078C172.369 38.0078 172.286 38.3261 172.345 38.6208C172.404 38.9154 172.721 38.8565 173.027 38.9272C173.333 38.998 173.462 39.0569 173.568 39.328C173.674 39.5991 173.886 39.717 173.98 40.1296C174.083 40.7669 173.931 41.4192 173.557 41.9448C173.168 42.2277 172.78 41.9448 172.38 41.8387C171.985 41.6949 171.562 41.6464 171.145 41.6973C170.592 41.6973 170.604 41.5087 170.145 41.4262C169.687 41.3437 169.804 41.5794 169.451 41.9802C169.099 42.381 169.557 42.8171 169.451 43.2532C169.375 43.6346 169.205 43.9909 168.957 44.2905C168.652 44.6442 169.31 44.8446 169.11 45.3161C168.91 45.7876 169.11 45.8229 169.404 45.8819C169.698 45.9408 170.004 45.8819 170.275 45.9997C170.545 46.1176 170.463 46.4241 170.663 46.6598C170.863 46.8956 170.992 46.6598 171.157 46.4594C171.322 46.2591 171.91 46.2944 172.333 46.4005C172.757 46.5066 172.757 46.4712 172.945 46.2826C173.201 46.0494 173.472 45.8328 173.756 45.6343C174.051 45.4104 174.262 45.3278 174.098 44.9506C173.933 44.5734 174.568 43.8662 174.909 43.7719C175.25 43.6776 176.085 42.77 176.391 42.4517C176.697 42.1334 177.568 42.5696 178.05 42.6757C178.532 42.7817 179.108 42.2277 179.461 42.0391C179.814 41.8505 180.261 42.2867 180.461 42.77C180.722 43.4724 181.216 44.0634 181.861 44.4438C182.338 44.6825 182.762 45.0153 183.108 45.4221C183.319 45.599 183.272 45.6579 183.225 45.9997C183.178 46.3416 183.225 46.3062 183.049 46.483C182.872 46.6598 182.884 46.6009 182.696 46.6009C182.508 46.6009 182.543 46.6009 182.367 46.6009C182.19 46.6009 181.99 46.6009 181.72 46.4948C181.449 46.3887 181.296 46.3651 181.096 46.5537C180.896 46.7423 181.285 46.8013 181.426 46.9074C181.55 47.0013 181.689 47.073 181.837 47.1195C182.014 47.1195 182.026 47.2492 182.202 47.4024C182.378 47.5557 182.508 47.485 182.637 47.2846C182.767 47.0842 182.637 46.9663 182.72 46.8013C182.802 46.6363 182.884 46.8013 182.99 46.8013C183.096 46.8013 183.096 46.8013 183.214 46.6127C183.296 46.4788 183.426 46.3817 183.578 46.3416C183.731 46.3416 183.79 46.2355 183.919 46.0822C184.049 45.929 183.837 45.9054 183.649 45.6579C183.461 45.4104 183.578 45.4457 183.719 45.1864C183.861 44.9271 183.919 45.1864 184.119 45.2571C184.319 45.3278 184.39 45.4929 184.543 45.6225C184.696 45.7522 184.684 45.6225 184.637 45.3986C184.59 45.1746 183.684 44.5734 183.461 44.4438C183.237 44.3141 183.461 44.3023 183.461 44.1845C183.461 44.0666 182.908 43.9251 182.684 43.7601C182.453 43.5776 182.295 43.3185 182.237 43.0293C182.143 42.711 182.049 42.6403 181.637 42.2395C181.226 41.8387 181.567 41.8034 181.637 41.5087C181.708 41.214 181.908 41.379 182.096 41.2494C182.284 41.1197 182.284 41.4969 182.343 41.8034C182.402 42.1099 182.473 41.9566 182.649 41.8034C182.825 41.6501 182.825 41.8034 183.037 42.1216C183.249 42.4399 183.119 42.5696 183.39 42.8643C183.641 43.1165 183.922 43.3381 184.225 43.5244L185.401 44.3966C185.613 44.5617 185.401 44.5263 185.307 45.0685C185.213 45.6107 185.531 45.5282 185.59 45.8465C185.656 46.0852 185.759 46.3119 185.895 46.5184C186.146 42.6088 185.897 38.6832 185.154 34.837C185.039 34.8502 184.927 34.8863 184.825 34.9431C184.178 35.2613 184.143 35.7682 183.649 35.5914C183.155 35.4146 183.355 34.7427 182.696 34.9195C182.037 35.0963 182.084 35.3321 181.849 35.002C181.614 34.672 181.579 34.4362 181.202 34.389C181.202 34.389 180.814 34.1061 181.108 34.0001C181.402 33.894 181.402 34.0826 181.673 33.894C181.943 33.7054 181.743 32.9392 182.249 33.1749C182.755 33.4107 182.343 34.1061 183.119 34.0826C183.896 34.059 184.237 34.0826 184.555 33.6347C184.649 33.5286 184.743 33.3871 184.849 33.2457C184.311 30.8725 183.584 28.5467 182.673 26.291C182.115 26.677 181.52 27.0048 180.896 27.2694C180.355 27.5052 180.438 27.5405 179.791 27.7998C179.144 28.0592 179.426 28.0356 179.085 28.5778C178.744 29.12 179.085 29.1672 179.297 29.3204C179.508 29.4737 179.226 29.5208 179.014 29.6623C178.803 29.8037 179.179 29.8862 179.167 30.0866C179.156 30.287 179.014 30.0866 178.956 30.3342C178.897 30.5817 179.179 30.3342 179.308 30.511C179.438 30.6878 179.308 30.6288 179.014 30.8882C178.72 31.1475 179.414 31.1946 179.814 31.5718C180.214 31.949 180.332 31.6308 180.614 31.5129C180.896 31.395 181.132 31.0886 181.379 30.9943C181.626 30.9 181.684 30.9943 181.896 30.5935C182.108 30.1927 182.061 30.7349 182.284 31.0768C182.508 31.4186 182.284 31.3715 182.037 31.6544C181.79 31.9373 182.308 32.2555 182.261 32.5502C182.214 32.8449 182.108 32.4323 181.908 32.1612C181.708 31.8901 181.484 32.1023 180.932 32.3262C180.379 32.5502 180.402 32.3262 180.214 33.1632C180.026 34.0001 180.685 34.1769 180.532 34.3419C180.379 34.5069 180.532 34.5776 180.308 35.0138C180.085 35.4499 180.12 35.2142 179.85 35.1434C179.579 35.0727 179.638 35.1434 179.391 35.2024C179.144 35.2613 179.273 35.2024 178.838 35.2024C178.403 35.2024 178.203 35.5678 177.768 36.0157C177.332 36.4636 177.768 36.2161 177.415 36.4283C177.184 36.6011 176.92 36.7217 176.638 36.7819C176.285 36.8762 176.344 36.7819 176.062 37.1827C175.812 37.4863 175.469 37.6979 175.086 37.7838L175.097 37.7603ZM172.416 32.1023C172.51 32.173 172.416 32.2084 172.274 32.4559C172.133 32.7034 172.274 32.6563 172.369 32.7624C172.463 32.8685 172.557 32.5974 172.733 32.7624C172.91 32.9274 172.733 33.0335 172.639 33.3282C172.545 33.6229 172.71 33.5993 173.121 33.6464C173.533 33.6936 173.474 34.224 173.474 34.224C173.474 34.5187 173.215 34.5541 172.898 34.7545C172.58 34.9548 172.898 34.9195 172.804 35.167C172.71 35.4146 172.486 35.4617 172.298 35.7682C172.11 36.0747 172.557 36.0511 172.851 36.1572C173.145 36.2633 173.18 36.2397 173.251 36.5226C173.321 36.8055 173.145 36.7583 173.251 37.0294C173.357 37.3006 173.733 36.9587 174.098 36.8644C174.347 36.7921 174.612 36.7921 174.862 36.8644C175.125 36.8618 175.38 36.776 175.591 36.6194C175.803 36.4627 175.959 36.2432 176.038 35.9921C176.121 35.5324 175.733 35.5324 175.497 35.2377C175.262 34.9431 175.497 34.8016 175.239 34.1769C174.98 33.5521 174.792 33.9411 174.674 33.6229C174.556 33.3046 174.203 32.7977 174.121 32.4441C174.039 32.0905 174.439 31.843 174.509 31.4893C174.58 31.1357 173.733 31.4893 173.568 31.1475C173.404 30.8057 173.709 30.9353 173.956 30.6053C174.203 30.2752 173.756 30.5228 173.133 30.4874C172.51 30.452 172.874 30.6524 172.545 30.9943C172.216 31.3361 172.545 31.3832 172.298 31.6426C172.266 31.6776 172.243 31.7198 172.231 31.7657C172.219 31.8116 172.218 31.8597 172.228 31.906C172.239 31.9523 172.26 31.9954 172.291 32.0316C172.321 32.0678 172.36 32.0961 172.404 32.1141L172.416 32.1023ZM178.967 44.5852C178.626 44.7149 178.967 44.8681 178.967 45.2335C178.954 45.3357 178.973 45.4395 179.022 45.5303C179.07 45.6212 179.146 45.6946 179.238 45.7404C179.555 45.7404 179.532 45.5872 179.661 45.4339C179.798 45.2448 179.876 45.0191 179.885 44.7856C179.885 44.4674 179.708 44.432 179.638 44.0784C179.567 43.7247 179.779 43.8426 179.955 43.4183C180.132 42.9939 179.955 42.9939 179.591 43.1707C179.226 43.3475 179.367 43.3947 179.261 43.7247C179.156 44.0548 179.403 44.0548 179.403 44.3023C179.403 44.5499 179.297 44.4674 178.956 44.597L178.967 44.5852ZM170.157 35.6857C170.391 35.5728 170.641 35.4973 170.898 35.4617C171.251 35.4617 171.71 35.3792 171.757 35.0491C171.803 34.6866 171.923 34.3375 172.11 34.0236C172.298 33.7997 172.404 33.6818 172.227 33.4343C172.051 33.1867 172.227 32.951 171.78 33.0453C171.333 33.1396 171.475 32.8331 171.016 33.1042C170.557 33.3753 170.686 33.0217 170.381 33.5875C170.269 33.8803 170.127 34.1607 169.957 34.4244C169.675 34.8252 169.157 34.8841 169.381 35.2613C169.604 35.6385 169.581 35.8153 170.145 35.6975L170.157 35.6857ZM140.069 34.0001C139.998 33.8586 139.645 33.7525 139.469 33.6229C139.227 33.4568 138.948 33.3516 138.657 33.3164C138.363 33.3164 138.657 33.4696 138.657 33.4696L139.01 33.729C139.329 33.9405 139.678 34.1033 140.045 34.2122C140.351 34.283 140.127 34.1533 140.057 34.0119L140.069 34.0001ZM122.683 11.3091C122.448 11.1677 122.484 11.1205 122.248 10.9673C122.013 10.8141 121.895 10.6608 122.248 10.5076C122.601 10.3544 122.86 10.5076 122.683 10.2247C122.507 9.9418 122.519 9.87107 122.237 9.94179C121.954 10.0125 122.107 10.0243 121.919 10.0007C121.731 9.97716 121.637 10.154 121.39 10.0007C121.143 9.8475 121.096 9.57638 120.872 9.70605C120.649 9.83571 120.484 9.70605 120.296 9.89464C120.107 10.0832 119.825 10.1422 120.213 10.4251C120.602 10.708 120.801 10.8023 120.649 10.9319C120.496 11.0616 120.554 11.3445 120.166 10.9319C119.778 10.5194 119.696 10.2836 119.519 10.4722C119.343 10.6608 118.955 10.7669 119.343 11.0498C119.731 11.3327 119.766 11.1205 120.096 11.4977C120.425 11.8749 120.472 11.7689 120.719 11.9221C120.898 12.0616 121.033 12.2499 121.107 12.4643C121.201 12.6293 121.319 12.6176 121.448 12.6058C121.563 12.5203 121.69 12.4527 121.825 12.4054C121.989 12.4054 121.989 12.5822 122.237 12.4054C122.484 12.2286 122.648 12.4054 122.66 12.1225C122.615 11.9605 122.615 11.7894 122.66 11.6274C122.801 11.4624 122.919 11.4388 122.683 11.3091ZM107.933 11.3091C108.178 11.2209 108.437 11.177 108.698 11.1795C109.004 11.1795 109.192 11.0734 109.309 10.6608C109.427 10.2483 109.521 10.2247 109.827 10.0479C110.059 9.93825 110.304 9.85902 110.556 9.81213C110.933 9.68247 111.133 9.51745 111.486 9.41136C111.838 9.30527 112.344 9.63532 112.203 9.31706C112.119 9.06564 111.968 8.84166 111.768 8.66875C111.474 8.37406 111.321 8.06758 110.874 8.19725C110.427 8.32691 110.462 8.66875 110.168 8.39763C109.227 9.18347 108.314 10.0164 107.427 10.8966H107.533C107.651 10.9555 107.486 11.2502 107.969 11.262L107.933 11.3091ZM115.155 5.07356C115.438 5.07356 115.638 5.07356 115.885 4.99105C116.132 4.90854 115.767 4.67279 116.002 4.59027C116.238 4.50776 115.92 4.48419 115.591 4.41346L114.532 5.07356C114.708 5.14429 114.861 5.07356 115.155 5.02641V5.07356ZM112.085 7.51357C112.438 7.65502 112.297 7.51357 112.474 7.59608C112.65 7.6786 112.626 7.65502 112.897 7.6786C113.168 7.70217 113.109 7.51357 113.262 7.27782C113.415 7.04207 113.415 7.27782 113.403 7.41927C113.393 7.46523 113.397 7.51289 113.414 7.55672C113.431 7.60054 113.459 7.63872 113.497 7.66681C113.591 7.73753 113.744 7.74932 114.203 7.66681C114.661 7.5843 114.403 7.66681 114.638 7.76111C114.873 7.85541 114.638 7.84362 114.403 7.93792C114.167 8.03222 114.167 7.99686 113.838 7.93792C113.576 7.91105 113.312 7.91105 113.05 7.93792C112.709 7.93792 113.05 8.23261 113.05 8.23261C113.273 8.44478 113.65 8.3387 113.944 8.44478C114.166 8.51232 114.404 8.51232 114.626 8.44478C114.908 8.44478 114.756 8.35048 115.073 8.19725C115.391 8.04401 115.426 8.19725 115.708 8.11473C115.862 8.05342 116.025 8.01759 116.191 8.00865C116.473 8.00865 116.567 8.11473 116.837 8.1501C117.041 8.20356 117.251 8.22738 117.461 8.22082C117.731 8.22082 117.743 7.97328 117.884 7.70217C118.025 7.43106 117.884 7.41927 117.79 7.18352C117.696 6.94777 117.614 7.03028 117.332 7.1128C117.049 7.19531 117.167 7.1128 116.99 7.1128C116.814 7.1128 116.755 6.99492 116.638 6.8299C116.52 6.66487 116.532 6.48806 116.52 6.2641C116.508 6.04014 116.52 6.0755 116.073 6.00477C115.626 5.93405 115.673 6.19337 115.391 6.22873C115.108 6.2641 115.285 6.33482 115.308 6.52342C115.332 6.71202 115.649 6.52342 115.873 6.59415C116.096 6.66487 115.873 6.66487 115.873 6.8299C115.873 6.99492 115.708 6.98313 115.955 7.14816C116.202 7.31318 116.038 7.28961 115.955 7.34855C115.722 7.38926 115.483 7.38926 115.25 7.34855C114.955 7.34855 114.955 7.2071 114.732 7.18352C114.509 7.15995 114.45 7.04207 114.32 6.81811C114.191 6.59415 114.32 6.67666 113.791 6.3584C113.262 6.04014 113.591 6.3584 113.238 6.18159L113.026 6.06371C112.474 6.46448 111.909 6.87705 111.38 7.3014C111.497 7.47821 111.721 7.32497 112.085 7.46642V7.51357ZM138.645 35.5324C138.504 35.391 138.528 35.6149 138.457 35.7092C138.386 35.8035 138.457 35.8389 138.598 35.9804C138.721 36.1036 138.884 36.1788 139.057 36.1925C139.166 36.2225 139.272 36.2619 139.375 36.3104C139.657 36.4754 139.375 36.11 139.375 36.0393C139.375 35.9686 139.069 35.9332 138.928 35.8271C138.786 35.721 138.786 35.6267 138.645 35.4853V35.5324ZM131.023 52.919C130.564 52.7422 130.847 53.249 130.847 53.249C130.929 53.4494 130.976 53.249 131.223 53.249C131.47 53.249 131.964 53.1312 132.152 53.4494C132.341 53.7677 132.446 53.5673 132.705 53.4494C132.964 53.3316 133.199 53.3433 133.823 53.4494C134.446 53.5555 133.917 53.249 133.47 52.7657C133.023 52.2825 132.999 52.5064 132.67 52.4593C132.341 52.4121 132.058 52.2235 131.67 52.1882C131.282 52.1528 131.294 52.4121 131.494 52.4357C131.694 52.4593 131.752 52.5536 131.729 52.8129C131.705 53.0722 131.494 53.0958 131.023 52.919ZM128.588 52.8129C128.235 52.8718 128.941 53.2255 128.941 53.2255C129.247 53.3198 129.353 53.2255 129.565 53.1312C129.776 53.0369 129.4 52.9426 129.176 52.8247C128.953 52.7068 128.929 52.754 128.588 52.8129ZM130.153 52.0467C130.249 52.0896 130.353 52.1118 130.459 52.1118C130.564 52.1118 130.668 52.0896 130.764 52.0467C131.105 51.9288 130.329 51.4338 129.506 51.0448C128.682 50.6558 129.247 51.0448 128.247 50.2786C127.726 49.8728 127.084 49.6566 126.424 49.6656C125.989 49.6656 125.248 49.9367 125.248 50.255C125.248 50.5733 125.73 50.4082 125.895 50.255C126.059 50.1018 126.447 49.7481 126.671 50.0428C127 50.6912 127.177 50.1843 127.447 50.5143C127.718 50.8444 128.177 50.6558 128.388 50.9033C128.6 51.1509 128.318 51.3395 128.788 51.3984C129.259 51.4573 129.412 51.7049 129.012 51.8699C128.612 52.0349 129.188 52.1056 129.412 52.0349C129.525 51.9788 129.651 51.9506 129.778 51.9527C129.905 51.9547 130.029 51.9869 130.141 52.0467H130.153ZM135.022 53.5555C134.693 53.4848 134.74 53.7441 134.74 53.7441C134.74 53.7441 135.364 53.8738 135.575 53.862C135.787 53.8502 135.705 53.7441 135.669 53.6616C135.634 53.5791 135.328 53.6027 135.022 53.5555ZM127.753 1.14833C127.753 1.40765 126.965 1.47838 127.553 1.71413C128.141 1.94988 128.729 1.80843 128.529 1.97345C128.33 2.13848 128.529 2.60998 129.071 2.45674C129.612 2.3035 130.459 1.84379 130.023 2.16205C129.588 2.48031 129.153 2.55104 129.623 2.62176C130.8 3.01075 130.894 2.48031 131.317 2.62176C131.317 2.62176 131.729 2.71606 131.494 2.85751C131.258 2.99896 132.141 3.23471 132.764 2.94003C133.313 2.64439 133.893 2.41112 134.493 2.24456C134.364 2.62176 133.317 2.5864 133.658 2.83394C133.999 3.08148 134.834 3.2465 134.199 3.23471C133.734 3.29571 133.264 3.29571 132.799 3.23471C132.023 3.09326 131.164 3.11684 131.694 3.47046C132.223 3.82409 133.329 4.50776 132.682 4.31916C132.16 4.21882 131.69 3.93955 131.352 3.5294C131.082 3.14041 129.529 2.84572 129.423 3.16399C129.394 3.2424 129.383 3.32681 129.392 3.41025C129.401 3.4937 129.429 3.57381 129.475 3.644C129.521 3.71419 129.583 3.77246 129.656 3.81401C129.729 3.85556 129.81 3.87922 129.894 3.88302C130.341 3.96554 130.741 4.57849 130.541 4.62564C130.341 4.67279 130.282 4.81424 130.541 4.83781C130.8 4.86138 132.105 5.26216 131.599 5.19144C131.094 5.12071 130.423 4.95569 130 4.95569C129.576 4.95569 129.176 4.89675 128.976 5.16786C128.776 5.43897 128.424 5.82796 128.906 5.78081C129.388 5.73366 129.6 5.62757 129.682 5.78081C129.765 5.93405 129.859 5.86332 129.812 6.06371C129.765 6.2641 129.6 6.52342 130.035 6.59415C130.47 6.66487 131.023 6.77096 130.635 6.80632C130.247 6.84168 129.717 6.93598 129.459 6.53521C129.2 6.13443 128.282 5.73366 128.282 6.0755C128.282 6.41734 129.012 6.75917 128.694 6.90062C128.377 7.04207 127.988 6.79453 127.518 7.03028C127.047 7.26603 127.177 7.80826 127.765 7.73753C128.365 7.70103 128.965 7.806 129.518 8.04401C130.259 8.27976 130.117 8.20903 130.694 8.04401C131.27 7.87898 132.105 8.04401 132.058 8.20903C132.058 8.20903 131.811 8.5273 132.129 8.51551C132.446 8.50372 132.423 8.59802 132.74 8.51551C133.058 8.433 133.329 8.433 133.54 8.22082C133.752 8.00865 133.976 8.03222 133.752 7.8672C133.529 7.70217 133.634 7.8672 133.352 7.7729C133.07 7.6786 132.858 7.57251 133.023 7.45463C133.187 7.33676 133.199 7.45463 133.399 7.37212C133.599 7.28961 133.94 7.37212 133.858 7.1128C133.776 6.85347 133.458 6.7356 133.787 6.70023C134.117 6.66487 134.034 6.80632 134.446 6.75917C134.858 6.71202 135.622 6.53521 135.469 6.37019C135.316 6.20516 135.069 6.1698 135.293 6.13443C135.516 6.09907 136.081 6.06371 135.799 5.81617C135.516 5.56863 135.093 5.5097 135.434 5.47434C135.775 5.43897 136.246 5.68651 136.116 5.47434C135.987 5.26216 135.364 5.23859 135.658 5.10892C135.952 4.97926 136.74 5.33289 136.834 5.10892C136.928 4.88496 136.54 4.63742 136.834 4.76709C137.128 4.89675 137.316 5.10892 137.716 4.95569C137.987 4.87911 138.218 4.70207 138.363 4.46061C138.516 4.23665 138.575 4.46061 138.833 4.31916C139.631 3.87666 140.475 3.52478 141.351 3.27007C141.951 3.16399 142.292 2.91645 141.751 2.92824C141.356 2.91707 140.962 2.94869 140.574 3.02254C140.033 3.10505 139.575 3.02254 140.174 2.85751C140.662 2.74741 141.158 2.68036 141.656 2.65713C142.201 2.66996 142.745 2.59839 143.268 2.44495C143.597 2.26814 144.385 2.26814 143.786 1.98524C143.186 1.70234 142.433 0.983301 141.621 1.12475C140.81 1.2662 139.669 1.24263 140.233 1.12475C140.798 1.00688 141.033 0.771127 140.057 0.665039C139.08 0.558952 138.528 0.217114 137.704 0.146389C136.733 -0.0736258 135.721 -0.0452519 134.764 0.228901C133.752 0.464651 133.987 0.228903 133.246 0.111028C132.505 -0.00684671 131.611 0.228903 131.988 0.582527C132.364 0.936152 132.246 0.983301 131.858 0.830064C131.47 0.676826 129.941 0.158177 129.635 0.535376C129.635 0.794701 130.317 0.782914 129.717 0.853639C129.118 0.924364 128.835 0.594314 128.412 0.759339C127.988 0.924364 126.4 0.759339 126.718 1.12475C127.036 1.49016 127.765 0.900789 127.753 1.14833ZM118.919 3.50582C118.849 3.61191 118.99 3.64728 119.214 3.63549C119.437 3.6237 119.355 3.57655 119.59 3.83588C119.825 4.0952 119.59 4.13056 119.59 4.13056C119.284 4.13056 119.225 4.04805 119.343 4.33095C119.461 4.61385 119.778 4.43704 120.166 4.49597C120.385 4.51572 120.602 4.55518 120.813 4.61385C121.166 4.70815 120.99 4.87317 121.237 5.15607C121.484 5.43897 121.66 5.28573 122.037 5.2268C122.413 5.16786 122.131 5.02641 122.037 4.8496C121.942 4.67279 121.46 4.27201 121.26 4.01269C121.06 3.75336 121.084 3.80051 120.637 3.61191C120.19 3.42331 120.472 3.72979 120.107 3.51761C119.743 3.30544 119.778 3.19935 119.555 2.97539C119.331 2.75142 119.084 2.97539 118.696 2.97539C118.308 2.97539 118.543 3.14041 118.696 3.28186C118.849 3.42331 118.99 3.50582 118.919 3.56476V3.50582ZM116.743 14.5153C116.273 14.645 115.567 14.645 115.438 14.8454C115.438 14.8454 115.367 15.3287 115.979 15.1047C116.59 14.8808 116.685 14.8218 116.908 14.869C117.132 14.9161 117.496 15.0222 117.296 14.7982C117.096 14.5743 117.214 14.4564 116.743 14.5743V14.5153ZM119.096 13.9495C119.39 14.0674 119.402 14.1735 119.637 14.0438C119.872 13.9142 120.143 13.9024 119.79 13.6902C119.443 13.437 119.082 13.2048 118.708 12.9948C118.472 12.9005 118.155 12.8769 118.178 12.6176C118.202 12.3582 118.308 12.2639 118.178 12.0753C118.061 11.8751 117.959 11.6663 117.873 11.4506C117.851 11.2415 117.774 11.0421 117.649 10.873C117.473 10.6608 117.52 10.4133 117.237 10.2247C116.955 10.0361 116.979 9.91822 116.685 9.93001C116.391 9.9418 116.202 9.93001 116.273 10.1775C116.343 10.4251 116.191 10.5665 116.332 10.8376C116.473 11.1088 116.567 11.2738 116.496 11.3799C116.426 11.486 116.355 11.7217 116.202 11.5567C116.049 11.3917 116.073 11.4624 116.014 11.1205C115.955 10.7787 116.014 10.7551 115.826 10.543C115.638 10.3308 115.708 10.1893 115.414 10.1422C115.12 10.095 115.038 9.91822 114.955 10.1422C114.873 10.3661 115.132 10.484 114.955 10.5312C114.779 10.5783 114.697 10.9084 114.52 10.6373C114.367 10.3665 114.114 10.1673 113.815 10.0832C113.462 9.96537 113.485 9.88286 113.273 10.0832C113.062 10.2836 112.885 10.4722 112.885 10.2247C112.885 9.97716 113.097 10.1068 112.968 9.82392C112.838 9.54102 112.521 9.49387 112.074 9.63532C111.627 9.77677 111.521 9.63532 111.156 9.85928C110.936 9.96871 110.74 10.121 110.58 10.3072C110.45 10.4722 110.074 10.5547 110.18 10.7787C110.218 10.8858 110.282 10.9818 110.366 11.058C110.45 11.1341 110.552 11.1881 110.662 11.2148H111.18C111.568 11.2148 112.038 11.2148 111.803 11.3917C111.588 11.511 111.336 11.5447 111.097 11.486C110.862 11.486 110.568 11.3091 110.486 11.486C110.403 11.6628 110.274 11.8278 110.592 11.9103C110.845 12.0022 111.111 12.0539 111.38 12.0635C111.744 12.0635 112.085 12.2168 112.474 12.2639C112.862 12.3111 112.921 12.205 113.25 12.4054C113.579 12.6058 114.273 12.5822 113.944 12.7354C113.615 12.8887 113.662 12.9594 113.191 12.8415C112.831 12.7381 112.46 12.6749 112.085 12.6529C111.521 12.6529 110.909 12.4172 110.909 12.6529C110.886 12.7723 110.899 12.8958 110.948 13.0074C110.996 13.1189 111.077 13.2132 111.18 13.2777C111.391 13.372 111.286 13.6077 111.862 13.5488C112.438 13.4898 112.544 13.5488 112.638 13.7492C112.732 13.9495 112.521 14.2324 112.968 14.3385C113.415 14.4446 113.615 14.645 113.897 14.5743C114.179 14.5036 114.897 14.6332 115.297 14.5153C115.697 14.3975 115.861 14.3739 116.038 14.315C116.178 14.2309 116.334 14.1771 116.496 14.1568C116.658 14.1365 116.822 14.1502 116.979 14.1971C117.085 14.1971 117.143 14.3975 117.414 14.4446C117.684 14.4918 117.637 14.6686 118.002 14.7393C118.266 14.8218 118.549 14.8218 118.814 14.7393C119.108 14.645 119.449 14.7393 119.296 14.5507C119.143 14.3621 119.225 14.4682 118.99 14.3032C118.755 14.1381 118.378 14.0438 118.637 13.9731C118.896 13.9024 118.814 13.8906 119.096 14.0085V13.9495ZM124.177 3.3408C124.554 3.3408 124.46 3.718 124.93 3.68264C125.401 3.64727 127.094 4.0009 126.459 3.98911C125.824 3.97732 125.001 3.63549 125.06 3.98911C125.05 4.1332 125.083 4.27683 125.154 4.40245C125.225 4.52806 125.331 4.63019 125.459 4.69636C125.812 4.96747 125.93 5.16786 126.236 5.21501C126.236 5.21501 127.212 5.54506 127.6 5.28574C127.988 5.02641 128.247 4.51955 128.447 4.68457C128.647 4.8496 128.659 4.76709 129.035 4.60206C129.412 4.43704 130.212 4.44882 130.129 4.26022C130.047 4.07162 129.717 3.8123 129.435 3.68264C129.153 3.55297 129.012 3.68264 129.023 3.44689C129.035 3.21114 128.565 2.37423 128.412 2.60998C128.259 2.84572 128.494 3.03432 128.235 2.90466C127.977 2.775 128.377 2.48031 127.941 2.37423C127.506 2.26814 127.483 2.45674 127.189 2.24456C126.894 2.03239 127.059 2.10311 126.765 1.71413C126.471 1.32514 125.295 0.723978 125.259 0.99509C125.224 1.2662 125.883 1.19548 125.636 1.28978C125.389 1.38408 124.977 1.13654 124.73 1.28978C124.483 1.44301 124.213 1.56089 124.518 1.70234C124.824 1.84379 125.259 1.90273 125.024 1.9263C124.789 1.94988 124.401 1.70234 124.201 1.9263C124.001 2.15026 123.801 2.25635 123.93 2.37423C124.06 2.4921 123.436 2.23278 123.672 2.63355C123.907 3.03433 123.813 3.41153 124.189 3.4351L124.177 3.3408ZM131.941 11.1441C131.895 11.1557 131.853 11.1785 131.819 11.2104C131.784 11.2422 131.759 11.2822 131.743 11.3267C131.728 11.3711 131.724 11.4186 131.732 11.465C131.74 11.5113 131.759 11.555 131.788 11.592C131.988 11.9221 131.976 12.2875 132.341 12.2639C132.705 12.2404 132.611 12.1814 132.905 12.2639C133.199 12.3464 133.646 12.4172 133.905 12.3936C134.164 12.37 134.528 12.5822 134.27 12.2404C134.011 11.8985 133.987 11.6038 133.646 11.4742C133.305 11.3445 133.376 11.4034 133.093 11.4152C132.811 11.427 132.199 11.1205 131.941 11.2384V11.1441ZM120.178 7.40748C119.966 7.32497 119.872 7.40748 119.766 7.63145C119.661 7.85541 120.119 7.76111 120.284 7.7729C120.449 7.78468 120.507 7.7729 120.566 7.7729C120.625 7.7729 120.896 7.7729 121.107 7.63145C121.319 7.49 121.307 7.63145 121.343 7.80826C121.378 7.98507 121.107 7.91435 120.954 8.12652C120.801 8.3387 121.072 8.38585 121.272 8.46836C121.504 8.52265 121.746 8.52265 121.978 8.46836C122.237 8.46836 122.295 8.23261 122.366 8.06758C122.428 7.86917 122.552 7.69576 122.719 7.57251C122.989 7.32497 122.719 7.27782 122.719 6.98314C122.719 6.68845 122.519 6.81811 122.06 6.68845C121.601 6.55879 121.813 6.81811 121.331 6.59415C120.849 6.37019 121.096 6.59415 120.978 6.80632C120.86 7.0185 121.119 6.94777 121.319 7.12458C121.519 7.3014 121.319 7.27782 121.237 7.36033C121.154 7.44285 121.072 7.36033 120.837 7.13637C120.602 6.91241 120.743 6.88883 120.519 6.66487C120.296 6.44091 120.319 6.66487 120.155 6.87705C119.99 7.08922 120.225 7.04207 120.449 7.21888C120.672 7.3957 120.578 7.3957 120.543 7.47821C120.507 7.56072 120.378 7.5843 120.166 7.50178L120.178 7.40748ZM122.919 5.04999C122.944 5.1229 122.988 5.18814 123.046 5.23965C123.103 5.29116 123.173 5.32728 123.248 5.34467C123.577 5.41357 123.918 5.37643 124.224 5.23858C124.554 5.09714 124.377 5.08535 124.342 4.82602C124.307 4.5667 124.166 4.68457 123.836 4.63742C123.507 4.59027 123.695 4.63742 123.401 4.3781C123.107 4.11877 123.025 4.24844 122.731 4.24844C122.436 4.24844 122.601 4.42525 122.66 4.62564C122.719 4.82602 122.801 4.8496 122.919 5.10892V5.04999Z" fill="url(#paint0_radial)"/>
    <path d="M79.3383 16.0595C87.031 22.908 105.992 32.6209 129.317 41.1433C161.629 52.9308 190.071 57.9522 192.835 52.365C194.011 50.0075 190.483 46.2237 183.707 41.7562C183.896 41.3201 184.072 40.8839 184.237 40.436C193.423 46.3298 198.258 51.3984 196.717 54.5103C193.447 61.0877 162.747 56.1841 128.118 43.5479C102.769 34.2947 82.3495 23.5092 74.5156 15.7294C76.2094 15.8827 77.7856 16.0005 79.3383 16.0595Z" fill="url(#paint1_radial)"/>
    <path d="M61.9068 18.6528C62.4949 18.9003 65.6826 20.3619 68.0233 21.1399C68.0233 21.1399 67.2117 23.1909 68.5174 23.8746C69.823 24.5583 71.2816 25.8313 71.9756 25.6663C72.6696 25.5013 72.2931 25.7724 72.7519 25.4188C73.1753 25.4188 73.9281 25.961 74.5516 25.6663C74.739 25.5693 74.8884 25.4119 74.9759 25.2195C75.0633 25.0271 75.0837 24.8109 75.0338 24.6054C75.2528 24.6318 75.4748 24.614 75.6869 24.5533C75.899 24.4926 76.0968 24.3901 76.2689 24.2518C76.9808 24.4501 77.7034 24.6075 78.4332 24.7233V24.4522C78.4332 24.4522 79.0566 25.4777 79.3036 25.572C79.3036 25.572 79.0449 26.291 79.3036 26.68C79.0566 27.7409 79.3036 27.6584 79.3036 27.6584L79.1978 28.4717C79.0529 28.5832 78.9327 28.7237 78.8449 28.8843C78.7976 28.7998 78.7318 28.7271 78.6523 28.672C78.5728 28.6168 78.4817 28.5806 78.3862 28.566C77.998 28.566 77.6216 28.8961 77.5628 29.4029C77.508 29.6185 77.5387 29.8469 77.6483 30.0403C77.758 30.2337 77.9381 30.377 78.1509 30.4402C78.2913 30.4478 78.4308 30.4138 78.5521 30.3425C78.6734 30.2713 78.7711 30.1659 78.8331 30.0395C78.8662 30.185 78.9403 30.318 79.0466 30.4225C79.153 30.527 79.2871 30.5986 79.433 30.6288C79.6037 30.6364 79.7723 30.5889 79.9141 30.4935C80.0559 30.398 80.1635 30.2596 80.2211 30.0984C80.2577 30.2257 80.3287 30.3405 80.4263 30.4299C80.5238 30.5193 80.6441 30.58 80.774 30.6053C81.1739 30.6053 81.5503 30.2634 81.6209 29.733C81.6754 29.5112 81.6422 29.2769 81.5282 29.0792C81.4141 28.8814 81.2282 28.7355 81.0092 28.6721C80.9243 28.6507 80.8354 28.6507 80.7504 28.6721C80.6563 28.3656 80.0917 28.1063 80.0917 28.1063V27.7173C80.1567 27.7115 80.219 27.6889 80.2726 27.6517C80.3262 27.6146 80.3693 27.564 80.3975 27.5052C80.4909 27.3138 80.6343 27.1514 80.8124 27.0352C80.9905 26.9189 81.1967 26.8532 81.4091 26.8451C82.5854 27.1751 82.8677 26.35 82.8677 26.35C84.3857 27.4192 86.0771 28.2168 87.8668 28.7075C88.4902 29.014 89.4665 29.4029 90.3604 29.8862C90.3221 29.9578 90.2906 30.0328 90.2663 30.1102C90.1148 30.1918 89.986 30.31 89.8915 30.4541C89.7971 30.5982 89.7399 30.7636 89.7253 30.9353C89.673 31.1523 89.7046 31.381 89.8137 31.5756C89.9228 31.7702 90.1013 31.9162 90.3134 31.9844C90.4743 31.9874 90.632 31.9387 90.7632 31.8454C90.8945 31.752 90.9924 31.619 91.0427 31.4658C91.0733 31.6319 91.1521 31.7854 91.2693 31.907C91.3864 32.0286 91.5367 32.1129 91.7014 32.1494C91.862 32.1602 92.0223 32.1235 92.1624 32.0439C92.3025 31.9642 92.4162 31.8452 92.4895 31.7015C92.5338 31.8018 92.6021 31.8898 92.6882 31.9576C92.7743 32.0254 92.8757 32.071 92.9835 32.0905C93.1239 32.098 93.2634 32.064 93.3847 31.9928C93.506 31.9215 93.6037 31.8162 93.6657 31.6897C93.9368 31.9323 94.2645 32.1025 94.6185 32.1848C94.6185 32.3852 94.6185 32.3734 94.889 32.4559C95.1596 32.5384 95.1125 32.338 95.1125 32.338C97.2524 32.9048 99.4515 33.2173 101.664 33.2692C101.664 33.505 101.453 34.1887 101.876 34.2358C102.299 34.283 101.958 33.6347 102.217 33.6582C102.476 33.6818 102.652 33.3753 102.652 33.3753C104.605 33.6229 106.934 33.9883 107.428 33.3164C107.922 32.6445 106.04 30.3931 106.04 30.3931L107.369 27.5759H111.345C111.874 28.012 112.133 28.0002 112.321 27.9531C112.509 27.9059 112.321 27.5523 112.321 27.5523C116.026 27.7763 115.65 27.1633 115.65 27.1633C116.826 27.2458 120.802 26.8569 123.049 26.8804C125.295 26.904 125.225 26.6918 125.225 26.6918C125.295 26.3618 124.425 26.3264 124.425 26.3264L108.592 25.2184C108.592 25.2184 111.757 18.5113 111.98 17.9927C112.204 17.474 112.062 17.3679 112.062 17.3679L110.58 16.6017C110.497 16.5657 110.405 16.5566 110.316 16.5756C110.228 16.5946 110.147 16.6408 110.086 16.7078C109.898 16.92 103.487 23.4267 102.147 24.794L97.3592 24.2047L95.5007 23.2145L96.1594 23.4385L96.2299 22.8727L95.9712 22.7666L95.5007 23.2145C91.125 20.857 84.538 17.3208 79.5154 14.6922L79.5859 14.1971L79.3036 14.0556L78.8919 14.3739C76.7512 13.2659 74.9397 12.3582 73.787 11.8396C68.2468 9.36421 67.247 12.3818 66.9059 12.8062C66.9059 12.8062 65.412 15.2815 68.0821 17.8394C67.9724 18.0821 67.9536 18.3563 68.0292 18.6118C68.1049 18.8673 68.2698 19.0868 68.4938 19.2303C68.4938 19.2303 68.388 19.8669 68.7761 19.914C69.1643 19.9612 69.1408 20.1616 69.2466 20.1498C69.0835 20.1955 68.9257 20.2587 68.7761 20.3384C67.2338 19.9897 65.72 19.5248 64.2476 18.9474C61.4598 17.7215 61.6363 18.4877 61.9068 18.6528ZM79.9741 28.7193C79.9992 28.6061 80.0517 28.5009 80.127 28.4128C80.3035 28.4128 80.4799 28.6485 80.5858 28.79C80.4498 28.8837 80.3436 29.0146 80.2799 29.1672C80.2214 28.9893 80.1108 28.8332 79.9623 28.7193H79.9741ZM72.9166 21.0456C71.879 20.3448 70.6352 20.0166 69.3878 20.1144C69.4429 20.0748 69.4873 20.0221 69.5172 19.9612C69.7289 19.5722 70.023 19.0889 70.023 19.0889C70.023 19.0889 72.893 20.7981 73.3753 21.022C73.3753 21.0692 73.2106 21.081 72.8578 21.0456H72.9166Z" fill="url(#paint2_radial)"/>
    <path d="M0 96.3087H7.19869V98.1712H4.63445V104.065H2.69363V98.1712H0V96.3087Z" fill="#A2C037"/>
    <path d="M7.61035 96.3087H9.58646L11.5979 101.212L13.8092 96.3087H15.7853L10.9509 106.917H8.95128L10.5392 103.476L7.61035 96.3087Z" fill="#A2C037"/>
    <path d="M18.8197 96.3087V97.181C19.1534 96.8366 19.5536 96.5638 19.9959 96.3794C20.4084 96.2029 20.8531 96.1146 21.3016 96.1201C21.7888 96.1181 22.2706 96.2224 22.7135 96.426C23.1563 96.6296 23.5496 96.9275 23.8658 97.2989C24.5879 98.1104 24.9674 99.1711 24.9245 100.258C24.9554 101.334 24.5625 102.38 23.8305 103.169C23.5086 103.54 23.111 103.837 22.6645 104.04C22.2181 104.244 21.7332 104.349 21.2428 104.348C20.8189 104.347 20.3993 104.263 20.0077 104.1C19.5679 103.917 19.1683 103.648 18.8314 103.31V107H16.8906V96.3912L18.8197 96.3087ZM20.8546 97.9118C20.5713 97.9055 20.2898 97.9589 20.0285 98.0686C19.7671 98.1782 19.5316 98.3417 19.3372 98.5483C18.9326 99.0005 18.7177 99.5916 18.7373 100.199C18.7085 100.818 18.924 101.423 19.3372 101.884C19.5316 102.088 19.7653 102.251 20.0241 102.361C20.2828 102.472 20.5614 102.53 20.8428 102.53C21.1243 102.53 21.4028 102.472 21.6616 102.361C21.9204 102.251 22.1541 102.088 22.3485 101.884C22.7361 101.42 22.9485 100.834 22.9485 100.228C22.9485 99.6226 22.7361 99.0364 22.3485 98.5719C22.1597 98.3637 21.9288 98.1982 21.6712 98.0865C21.4137 97.9747 21.1353 97.9191 20.8546 97.9236V97.9118Z" fill="#A2C037"/>
    <path d="M27.5009 104.124H26.4658V96.3205H28.3596V100.906L32.3118 96.3205H33.2411V104.136H31.359V99.6446L27.5009 104.124Z" fill="#A2C037"/>
    <path d="M42.757 97.8883L41.1455 98.7841C40.8972 98.5005 40.5928 98.2717 40.2515 98.1122C39.9189 97.979 39.5628 97.9148 39.2047 97.9236C38.883 97.9076 38.5615 97.9579 38.26 98.0714C37.9585 98.185 37.6835 98.3593 37.4521 98.5837C37.2291 98.8023 37.0543 99.0651 36.9388 99.3554C36.8234 99.6457 36.7698 99.957 36.7816 100.269C36.7707 100.571 36.8226 100.871 36.934 101.151C37.0453 101.431 37.2138 101.685 37.4285 101.896C37.6559 102.107 37.9226 102.27 38.2133 102.378C38.5039 102.485 38.8129 102.533 39.1223 102.521C39.5061 102.541 39.8892 102.471 40.2407 102.315C40.5922 102.159 40.9022 101.923 41.1455 101.625L42.6746 102.686C42.2649 103.157 41.7657 103.543 41.206 103.819C40.6463 104.096 40.0372 104.258 39.4144 104.296C38.7915 104.335 38.1673 104.249 37.5779 104.043C36.9886 103.837 36.446 103.516 35.9817 103.098C35.3582 102.45 34.9632 101.616 34.857 100.722C34.7508 99.8282 34.9393 98.9241 35.3936 98.1476C35.7599 97.5058 36.2976 96.9792 36.9463 96.627C37.6092 96.2826 38.3425 96.096 39.0892 96.0816C39.8358 96.0673 40.5757 96.2257 41.2514 96.5445C41.8598 96.8558 42.3782 97.3185 42.757 97.8883Z" fill="#A2C037"/>
    <path d="M43.8154 96.3087H51.0024V98.1712H48.4381V104.065H46.4973V98.1712H43.8154V96.3087Z" fill="#A2C037"/>
    <path d="M53.2968 104.124H52.2617V96.3205H54.1437V100.906L58.0959 96.3205H59.0252V104.136H57.1549V99.6446L53.2968 104.124Z" fill="#A2C037"/>
    <path d="M65.1756 101.024H63.623C62.7715 101.075 61.925 100.861 61.1999 100.411C60.9067 100.168 60.6766 99.8583 60.5291 99.5073C60.3816 99.1563 60.3212 98.7746 60.353 98.3951V96.3205H62.2821V98.2419C62.2821 98.9255 62.7408 99.2674 63.6465 99.2674H65.1756V96.3205H67.1165V104.136H65.1756V101.024Z" fill="#A2C037"/>
    <path d="M76.7976 100.788H70.5752C70.6424 101.302 70.8982 101.773 71.2927 102.108C71.7143 102.449 72.2452 102.625 72.7866 102.603C73.1319 102.608 73.4745 102.542 73.7938 102.41C74.1132 102.279 74.4027 102.084 74.6451 101.837L76.2801 102.615C75.9107 103.164 75.409 103.61 74.8215 103.912C74.1884 104.206 73.4962 104.351 72.7983 104.336C72.2581 104.357 71.7193 104.267 71.2154 104.071C70.7115 103.874 70.2533 103.576 69.8693 103.195C69.4854 102.813 69.1839 102.357 68.9836 101.853C68.7832 101.35 68.6884 100.811 68.705 100.269C68.6921 99.7204 68.7895 99.1745 68.9916 98.6642C69.1937 98.1539 69.4963 97.6895 69.8812 97.2989C70.2477 96.9147 70.6902 96.6115 71.1804 96.4085C71.6705 96.2055 72.1976 96.1073 72.7278 96.1201C73.2764 96.0995 73.8234 96.1937 74.3338 96.3966C74.8441 96.5996 75.3067 96.9068 75.6919 97.2989C76.0863 97.7144 76.3936 98.2048 76.5957 98.7414C76.7977 99.2779 76.8904 99.8495 76.8682 100.423L76.7976 100.788ZM74.8568 99.2438C74.7349 98.814 74.4691 98.4394 74.104 98.1829C73.7205 97.92 73.2627 97.7878 72.7983 97.8057C72.2866 97.7998 71.787 97.9612 71.3751 98.2654C71.061 98.5408 70.8188 98.8888 70.6693 99.2792L74.8568 99.2438Z" fill="#A2C037"/>
    <path d="M85.9137 97.8883L84.3022 98.7841C84.0544 98.5 83.7498 98.2711 83.4083 98.1122C83.0757 97.9787 82.7195 97.9145 82.3614 97.9236C82.0401 97.911 81.7195 97.9629 81.4185 98.0762C81.1175 98.1896 80.8422 98.3622 80.6088 98.5837C80.3858 98.8023 80.211 99.0651 80.0955 99.3554C79.9801 99.6457 79.9265 99.957 79.9383 100.269C79.9281 100.571 79.9803 100.871 80.0917 101.151C80.203 101.431 80.3711 101.684 80.5852 101.896C80.8126 102.107 81.0793 102.27 81.37 102.378C81.6606 102.485 81.9696 102.533 82.279 102.521C82.6628 102.541 83.0459 102.471 83.3974 102.315C83.7489 102.159 84.0589 101.923 84.3022 101.625L85.8313 102.686C85.4216 103.158 84.9224 103.543 84.3627 103.819C83.803 104.096 83.194 104.258 82.5711 104.296C81.9482 104.335 81.324 104.249 80.7346 104.043C80.1453 103.837 79.6027 103.516 79.1384 103.098C78.6935 102.649 78.3596 102.101 78.1631 101.499C77.9666 100.898 77.9131 100.258 78.0068 99.632C78.1004 99.0058 78.3387 98.4102 78.7026 97.8926C79.0666 97.375 79.5461 96.9497 80.103 96.6506C80.7753 96.3106 81.5173 96.1315 82.2704 96.1274C83.0235 96.1233 83.7673 96.2943 84.4434 96.627C85.0299 96.9192 85.5351 97.3526 85.9137 97.8883Z" fill="#A2C037"/>
    <path d="M87.666 96.3087H89.5951V99.232L92.2652 96.3087H94.6177L91.1948 100.163L94.7235 104.159H92.1476L89.795 101.401L89.5951 101.648V104.159H87.666V96.3087Z" fill="#A2C037"/>
    <path d="M96.4882 104.124H95.4648V96.3205H97.3821V100.906L101.323 96.3205H102.252V104.136H100.37V99.6446L96.4882 104.124Z" fill="#A2C037"/>
    <path d="M105.204 104.124H104.169V96.3205H106.051V100.906L110.003 96.3205H110.932V104.136H109.05V99.6446L105.204 104.124ZM104.722 92.8786H106.286C106.411 93.076 106.591 93.2319 106.804 93.3265C107.058 93.4274 107.33 93.4755 107.604 93.468C107.903 93.4713 108.2 93.4111 108.474 93.2911C108.66 93.2003 108.815 93.0569 108.921 92.8786H110.485C110.449 93.1679 110.354 93.4467 110.206 93.6981C110.059 93.9494 109.862 94.1679 109.627 94.3402C109.027 94.7418 108.312 94.9363 107.592 94.8942C107.09 94.9074 106.591 94.8234 106.122 94.6467C105.749 94.4963 105.421 94.2529 105.169 93.9395C104.928 93.6278 104.773 93.2577 104.722 92.8668V92.8786Z" fill="#A2C037"/>
    <path d="M120.589 96.1084C121.312 96.1065 122.023 96.2977 122.648 96.6624C123.274 97.0174 123.794 97.5344 124.153 98.1594C124.509 98.7863 124.696 99.4951 124.696 100.216C124.696 100.937 124.509 101.646 124.153 102.273C123.805 102.899 123.293 103.417 122.671 103.77C122.042 104.133 121.327 104.32 120.601 104.312C120.073 104.321 119.549 104.22 119.062 104.018C118.574 103.815 118.133 103.514 117.766 103.134C117.008 102.331 116.598 101.26 116.626 100.155C116.655 99.0502 117.12 98.0017 117.919 97.2399C118.627 96.5271 119.586 96.1209 120.589 96.1084ZM120.589 97.959C120.309 97.9506 120.029 98.002 119.77 98.1096C119.51 98.2173 119.276 98.3789 119.084 98.5837C118.714 99.0242 118.525 99.5886 118.554 100.163C118.535 100.77 118.75 101.361 119.154 101.814C119.345 102.022 119.578 102.187 119.838 102.297C120.097 102.407 120.378 102.459 120.66 102.45C120.944 102.459 121.226 102.407 121.488 102.298C121.75 102.188 121.985 102.023 122.177 101.814C122.562 101.355 122.773 100.774 122.773 100.175C122.773 99.5756 122.562 98.9954 122.177 98.5366C121.974 98.3354 121.731 98.1798 121.463 98.0802C121.195 97.9806 120.91 97.9393 120.625 97.959H120.589Z" fill="#A2C037"/>
    <path d="M128.189 104.124H126.248V96.3205H133.012V104.136H131.071V98.2419H128.177L128.189 104.124Z" fill="#A2C037"/>
    <path d="M142.703 100.788H136.492C136.563 101.301 136.818 101.771 137.21 102.108C137.632 102.448 138.162 102.624 138.704 102.603C139.051 102.608 139.395 102.543 139.717 102.412C140.038 102.28 140.33 102.084 140.574 101.837L142.209 102.615C141.84 103.164 141.338 103.61 140.75 103.912C140.117 104.207 139.425 104.352 138.727 104.336C138.186 104.359 137.646 104.27 137.14 104.074C136.635 103.879 136.176 103.581 135.79 103.199C135.405 102.817 135.103 102.36 134.902 101.856C134.7 101.352 134.605 100.812 134.622 100.269C134.61 99.7205 134.708 99.1748 134.91 98.6646C135.112 98.1544 135.414 97.6899 135.798 97.2989C136.167 96.9138 136.611 96.6101 137.103 96.4071C137.595 96.2041 138.124 96.1064 138.657 96.1201C139.205 96.0995 139.752 96.1937 140.263 96.3966C140.773 96.5996 141.235 96.9068 141.621 97.2989C142.015 97.7144 142.322 98.2048 142.524 98.7414C142.726 99.2779 142.819 99.8495 142.797 100.423L142.703 100.788ZM140.762 99.2438C140.642 98.8132 140.376 98.438 140.009 98.1829C139.63 97.9075 139.172 97.7627 138.704 97.7704C138.192 97.7644 137.692 97.9258 137.28 98.2301C136.968 98.507 136.726 98.8545 136.575 99.2438H140.762Z" fill="#A2C037"/>
    <path d="M146.196 96.3088V97.181C146.53 96.8366 146.93 96.5639 147.373 96.3795C147.785 96.2036 148.23 96.1153 148.678 96.1202C149.165 96.1181 149.647 96.2225 150.09 96.4261C150.533 96.6296 150.926 96.9275 151.243 97.2989C151.963 98.1111 152.343 99.1713 152.301 100.258C152.331 101.334 151.938 102.379 151.207 103.169C150.886 103.54 150.488 103.838 150.042 104.041C149.595 104.245 149.11 104.349 148.619 104.348C148.215 104.341 147.816 104.257 147.443 104.1C147.005 103.914 146.605 103.646 146.267 103.311V107H144.338V96.3913L146.196 96.3088ZM148.231 97.9118C147.948 97.9063 147.667 97.96 147.406 98.0696C147.144 98.1792 146.909 98.3423 146.714 98.5484C146.309 99.0005 146.094 99.5916 146.114 100.199C146.085 100.818 146.301 101.423 146.714 101.884C146.907 102.092 147.143 102.256 147.404 102.366C147.666 102.476 147.948 102.529 148.231 102.521C148.512 102.526 148.791 102.471 149.048 102.359C149.306 102.247 149.537 102.081 149.725 101.872C150.115 101.409 150.329 100.822 150.329 100.216C150.329 99.6102 150.115 99.0236 149.725 98.5602C149.535 98.3547 149.303 98.1918 149.046 98.0821C148.789 97.9724 148.511 97.9184 148.231 97.9236V97.9118Z" fill="#A2C037"/>
    <path d="M159.57 96.3087H161.511V104.124H159.57V103.287C159.233 103.624 158.834 103.892 158.394 104.077C158.021 104.232 157.622 104.316 157.218 104.324C156.727 104.326 156.242 104.221 155.796 104.018C155.349 103.814 154.952 103.517 154.63 103.145C153.899 102.356 153.507 101.311 153.536 100.234C153.495 99.1477 153.874 98.0875 154.595 97.2753C154.911 96.9039 155.304 96.606 155.747 96.4025C156.19 96.1989 156.672 96.0945 157.159 96.0966C157.608 96.0903 158.053 96.1787 158.465 96.3559C158.908 96.5385 159.309 96.8115 159.641 97.1574L159.57 96.3087ZM157.536 97.9118C157.256 97.9051 156.978 97.9584 156.72 98.0682C156.462 98.178 156.231 98.3417 156.042 98.5484C155.641 99.0023 155.431 99.5932 155.454 100.199C155.431 100.81 155.646 101.406 156.053 101.861C156.241 102.07 156.472 102.236 156.73 102.348C156.988 102.46 157.266 102.515 157.547 102.509C157.831 102.518 158.113 102.466 158.375 102.356C158.637 102.247 158.872 102.082 159.065 101.872C159.478 101.411 159.693 100.806 159.665 100.187C159.684 99.5798 159.469 98.9887 159.065 98.5366C158.866 98.3311 158.625 98.1703 158.36 98.0647C158.094 97.959 157.809 97.9109 157.524 97.9236L157.536 97.9118Z" fill="#A2C037"/>
    <path d="M162.771 96.3087H169.969V98.1712H167.405V104.065H165.464V98.1712H162.782L162.771 96.3087Z" fill="#A2C037"/>
    <path d="M174.85 96.1084C175.565 96.1135 176.267 96.3054 176.886 96.6651C177.504 97.0247 178.019 97.5398 178.379 98.1594C178.731 98.7874 178.916 99.4958 178.916 100.216C178.916 100.937 178.731 101.645 178.379 102.273C178.031 102.899 177.518 103.417 176.897 103.77C176.272 104.133 175.56 104.32 174.838 104.312C174.31 104.321 173.786 104.22 173.299 104.018C172.811 103.815 172.37 103.514 172.003 103.134C171.623 102.755 171.322 102.302 171.12 101.804C170.918 101.306 170.818 100.772 170.827 100.234C170.814 99.6606 170.927 99.0914 171.156 98.5661C171.386 98.0408 171.727 97.5721 172.156 97.1928C172.877 96.4905 173.845 96.1009 174.85 96.1084ZM174.85 97.959C174.569 97.9506 174.29 98.002 174.03 98.1096C173.771 98.2173 173.537 98.3789 173.344 98.5837C172.939 99.026 172.724 99.6103 172.744 100.21C172.722 100.816 172.932 101.407 173.333 101.861C173.523 102.069 173.756 102.234 174.016 102.344C174.276 102.454 174.556 102.506 174.838 102.497C175.122 102.505 175.404 102.452 175.665 102.343C175.927 102.233 176.162 102.069 176.356 101.861C176.757 101.412 176.972 100.825 176.955 100.222C176.968 99.923 176.921 99.6242 176.819 99.343C176.716 99.0618 176.558 98.8038 176.356 98.5837C176.166 98.384 175.938 98.2254 175.685 98.1179C175.432 98.0104 175.16 97.9563 174.885 97.959H174.85Z" fill="#A2C037"/>
    <path d="M182.449 96.3088V97.181C182.782 96.8366 183.182 96.5639 183.625 96.3795C184.037 96.2033 184.482 96.115 184.93 96.1202C185.418 96.1181 185.899 96.2225 186.342 96.4261C186.785 96.6296 187.178 96.9275 187.495 97.2989C188.216 98.1111 188.595 99.1713 188.553 100.258C188.582 101.334 188.189 102.379 187.459 103.169C187.138 103.54 186.74 103.838 186.294 104.041C185.847 104.245 185.362 104.349 184.872 104.348C184.448 104.347 184.028 104.263 183.637 104.1C183.196 103.918 182.796 103.649 182.46 103.311V107H180.531V96.3913L182.449 96.3088ZM184.483 97.9118C184.2 97.9063 183.919 97.96 183.658 98.0696C183.396 98.1792 183.161 98.3423 182.966 98.5484C182.561 99.0005 182.347 99.5916 182.366 100.199C182.337 100.818 182.553 101.423 182.966 101.884C183.16 102.092 183.395 102.256 183.656 102.366C183.918 102.476 184.2 102.529 184.483 102.521C184.764 102.526 185.043 102.471 185.301 102.359C185.558 102.247 185.789 102.081 185.977 101.872C186.363 101.407 186.574 100.821 186.574 100.216C186.574 99.6114 186.363 99.0256 185.977 98.5602C185.787 98.3553 185.555 98.1928 185.298 98.0832C185.04 97.9735 184.763 97.9192 184.483 97.9236V97.9118Z" fill="#A2C037"/>
    <path d="M17.8911 44.6795H26.8071L44.451 90.0731H35.335L31.7474 80.7139H13.0097L9.26917 90.0613H0.188477L17.8911 44.6795ZM22.3844 56.7145L16.2208 72.2976H28.5127L22.3844 56.7145Z" fill="url(#paint3_radial)"/>
    <path d="M51.1787 44.6795H59.9183V81.8337H72.6807V90.0849H51.1787V44.6795Z" fill="url(#paint4_radial)"/>
    <path d="M79.4326 44.6795H102.228V53.1076H88.1134V61.3588H102.228V69.6101H88.1134V90.0731H79.4326V44.6795Z" fill="url(#paint5_radial)"/>
    <path d="M179.285 84.368C179.285 83.0831 179.794 81.8509 180.701 80.9423C181.608 80.0338 182.837 79.5233 184.12 79.5233C184.755 79.5218 185.385 79.6459 185.973 79.8887C186.561 80.1315 187.095 80.4881 187.546 80.9381C187.996 81.3881 188.353 81.9227 188.597 82.5113C188.84 83.0998 188.966 83.7308 188.966 84.368C188.966 85.0052 188.84 85.6361 188.597 86.2247C188.353 86.8132 187.996 87.3478 187.546 87.7979C187.095 88.2479 186.561 88.6045 185.973 88.8473C185.385 89.09 184.755 89.2142 184.12 89.2126C182.837 89.2126 181.608 88.7022 180.701 87.7937C179.794 86.8851 179.285 85.6529 179.285 84.368ZM179.838 84.368C179.841 85.505 180.293 86.5945 181.095 87.3985C181.898 88.2025 182.985 88.6555 184.12 88.6586C185.254 88.6555 186.341 88.2025 187.144 87.3985C187.946 86.5945 188.398 85.505 188.401 84.368C188.386 83.2392 187.928 82.1617 187.127 81.3679C186.326 80.574 185.246 80.1275 184.12 80.1245C182.985 80.1276 181.898 80.5807 181.095 81.3846C180.293 82.1886 179.841 83.2781 179.838 84.4151V84.368Z" fill="#2C4381"/>
    <path d="M182.002 86.9966V81.4801H184.425C184.823 81.4581 185.222 81.51 185.601 81.6333C185.859 81.7291 186.076 81.9127 186.213 82.152C186.365 82.4041 186.443 82.6943 186.436 82.9889C186.443 83.1707 186.412 83.352 186.348 83.522C186.283 83.692 186.185 83.8474 186.06 83.979C185.739 84.2805 185.323 84.4599 184.884 84.4859C185.044 84.5569 185.194 84.648 185.331 84.757C185.562 84.9778 185.763 85.2274 185.931 85.4996L186.883 86.9966H185.966L185.237 85.8179C185.025 85.4878 184.848 85.2403 184.707 85.0635C184.604 84.9244 184.481 84.8013 184.343 84.6981C184.242 84.6316 184.131 84.5838 184.013 84.5566C183.88 84.5429 183.746 84.5429 183.613 84.5566H182.767V86.9966H182.002ZM182.731 83.9201H184.296C184.559 83.9298 184.821 83.894 185.072 83.814C185.246 83.7544 185.395 83.6383 185.495 83.484C185.589 83.336 185.638 83.1641 185.637 82.9889C185.64 82.8666 185.617 82.745 185.568 82.6329C185.519 82.5207 185.446 82.4209 185.354 82.3406C185.096 82.1532 184.778 82.0653 184.46 82.093H182.719L182.731 83.9201Z" fill="#2C4381"/>
    <defs>
        <radialGradient id="paint0_radial" cx="0" cy="0" r="1" gradientUnits="userSpaceOnUse" gradientTransform="translate(142.398 44.5027) rotate(180) scale(44.0743 44.1677)">
            <stop stop-color="#CBD664"/>
            <stop offset="0.36" stop-color="#C8D562"/>
            <stop offset="0.57" stop-color="#C0D05D"/>
            <stop offset="0.74" stop-color="#B2C954"/>
            <stop offset="0.89" stop-color="#9EBE48"/>
            <stop offset="1" stop-color="#8BB43C"/>
        </radialGradient>
        <radialGradient id="paint1_radial" cx="0" cy="0" r="1" gradientUnits="userSpaceOnUse" gradientTransform="translate(135.775 36.5461) scale(45.7328 45.8298)">
            <stop stop-color="#009DE0"/>
            <stop offset="0.27" stop-color="#0A89CA"/>
            <stop offset="0.83" stop-color="#245592"/>
            <stop offset="1" stop-color="#2C4480"/>
        </radialGradient>
        <radialGradient id="paint2_radial" cx="0" cy="0" r="1" gradientUnits="userSpaceOnUse" gradientTransform="translate(42945.7 9199.92) rotate(180) scale(1290.22 474.986)">
            <stop stop-color="#009DE0"/>
            <stop offset="0.27" stop-color="#0A89CA"/>
            <stop offset="0.83" stop-color="#245592"/>
            <stop offset="1" stop-color="#2C4480"/>
        </radialGradient>
        <radialGradient id="paint3_radial" cx="0" cy="0" r="1" gradientUnits="userSpaceOnUse" gradientTransform="translate(27087.2 20040.1) rotate(180) scale(842.315 863.841)">
            <stop stop-color="#009DE0"/>
            <stop offset="0.27" stop-color="#0A89CA"/>
            <stop offset="0.83" stop-color="#245592"/>
            <stop offset="1" stop-color="#2C4480"/>
        </radialGradient>
        <radialGradient id="paint4_radial" cx="0" cy="0" r="1" gradientUnits="userSpaceOnUse" gradientTransform="translate(13443.3 20045.4) rotate(180) scale(324.034 684.26)">
            <stop stop-color="#009DE0"/>
            <stop offset="0.27" stop-color="#0A89CA"/>
            <stop offset="0.83" stop-color="#245592"/>
            <stop offset="1" stop-color="#2C4480"/>
        </radialGradient>
        <radialGradient id="paint5_radial" cx="0" cy="0" r="1" gradientUnits="userSpaceOnUse" gradientTransform="translate(14832.7 20040.1) rotate(180) scale(347.409 691.799)">
            <stop stop-color="#009DE0"/>
            <stop offset="0.27" stop-color="#0A89CA"/>
            <stop offset="0.83" stop-color="#245592"/>
            <stop offset="1" stop-color="#2C4480"/>
        </radialGradient>
    </defs>
</svg>
