<svg width="168" height="49" viewBox="0 0 168 49" fill="none" xmlns="http://www.w3.org/2000/svg">
<g clip-path="url(#clip0)">
<path fill-rule="evenodd" clip-rule="evenodd" d="M30.6254 18.4383C31.8077 19.8027 32.6086 21.5179 32.8374 23.428L27.2311 22.8433L30.6254 18.4383ZM25.019 15.4368C26.8878 15.6706 28.6041 16.4893 29.9389 17.6977L25.553 21.206L25.019 15.4368ZM33.3332 23.467C33.1044 21.362 32.2272 19.4909 30.9305 18.0095L33.0281 15.2418L30.3203 17.3858C28.871 16.0215 27.0023 15.1249 24.9428 14.93L24.0656 5.65235C34.1723 5.69133 42.3339 14.0724 42.4102 24.4025L33.3332 23.467ZM28.3371 0H47.9403V18.7892C47.9403 21.5569 45.9952 23.8958 43.4018 24.4025C43.3637 13.4487 34.6681 4.59984 23.9512 4.59984V4.44391C23.9893 1.98807 25.9344 0 28.3371 0Z" fill="#077AB0"/>
<path fill-rule="evenodd" clip-rule="evenodd" d="M17.3149 18.4383C16.1326 19.8027 15.3317 21.5179 15.1028 23.428L20.6711 22.8433L17.3149 18.4383ZM22.9594 15.4368C21.0906 15.6706 19.3743 16.4503 18.0395 17.6977L22.3873 21.1671L22.9594 15.4368ZM14.607 23.467C14.8359 21.362 15.6749 19.4909 17.0098 18.0095L14.7596 15.0859L17.62 17.3858C19.0692 16.0605 20.938 15.1639 22.9594 14.93L23.8365 5.65235C13.7299 5.69133 5.56822 14.0724 5.49194 24.4025L14.607 23.467ZM19.2981 0H0.152554C0.076277 0 0 0.0779634 0 0.155927V18.8282C0 21.5959 1.94506 23.9348 4.53848 24.4415C4.57662 13.4877 13.2722 4.6778 23.9891 4.63882C23.8747 2.06603 21.8152 0 19.2981 0Z" fill="#077AB0"/>
<path fill-rule="evenodd" clip-rule="evenodd" d="M17.353 30.6008C16.1707 29.2365 15.3698 27.5213 15.141 25.6112L20.7473 26.1959L17.353 30.6008ZM22.9594 33.5634C21.0906 33.3296 19.3743 32.5109 18.0395 31.3025L22.4254 27.8331L22.9594 33.5634ZM14.607 25.5332C14.8359 27.6382 15.7131 29.5094 17.0098 30.9907L14.9121 33.7584L17.62 31.6144C19.0692 32.9787 20.938 33.8753 22.9975 34.0702L23.8747 43.3479C13.768 43.3089 5.60636 34.9278 5.53008 24.5977L14.607 25.5332ZM18.3827 49.0002H0V30.211C0 27.4433 1.94506 25.1044 4.53848 24.5977C4.57662 35.5125 13.2341 44.3224 23.8747 44.3614C23.3789 47.0121 21.0906 49.0002 18.3827 49.0002Z" fill="#077AB0"/>
<path fill-rule="evenodd" clip-rule="evenodd" d="M30.6243 30.5619C31.8066 29.1975 32.6075 27.4823 32.8363 25.5722L27.2681 26.1569L30.6243 30.5619ZM25.0179 33.5634C26.8867 33.3296 28.6029 32.5499 29.9378 31.3025L25.5519 27.8331L25.0179 33.5634ZM33.3321 25.5332C33.1033 27.6382 32.2642 29.5094 30.9294 30.9907L33.1796 33.9143L30.3192 31.6144C28.8699 32.9397 27.0011 33.8363 24.9798 34.0702L24.1026 43.3479C34.2093 43.3089 42.3709 34.9278 42.4472 24.5977L33.3321 25.5332ZM29.5564 49.0002H47.9391V30.211C47.9391 27.4433 45.9941 25.1044 43.4007 24.5977C43.3625 35.5125 34.7051 44.3224 24.0645 44.3614C24.5984 47.0121 26.8486 49.0002 29.5564 49.0002Z" fill="#077AB0"/>
<path d="M168 21.9085C168 22.6492 167.848 23.3898 167.466 24.1305C167.123 24.8711 166.627 25.5338 165.979 26.1185C165.331 26.7033 164.53 27.21 163.614 27.5609C162.699 27.9507 161.669 28.1456 160.525 28.1456C159.915 28.1456 159.343 28.1066 158.847 28.0286C158.313 27.9507 157.855 27.8727 157.398 27.7168C156.94 27.5998 156.521 27.4439 156.101 27.249C155.681 27.0541 155.262 26.8592 154.842 26.6643L155.796 23.6237C156.063 23.8186 156.444 24.0135 156.902 24.2474C157.36 24.4813 157.855 24.6762 158.389 24.8711C158.923 25.066 159.457 25.222 159.991 25.3389C160.525 25.4558 161.021 25.5338 161.479 25.5338C161.974 25.5338 162.394 25.4948 162.737 25.4169C163.08 25.3389 163.347 25.2609 163.614 25.144C163.919 25.027 164.148 24.7542 164.301 24.2474C164.453 23.7796 164.568 23.1559 164.568 22.4153C164.568 21.7136 164.339 21.1679 163.881 20.7391C163.424 20.3492 162.89 19.9594 162.203 19.6866C161.555 19.3747 160.792 19.1018 160.029 18.79C159.267 18.4781 158.542 18.0883 157.855 17.6205C157.169 17.1527 156.635 16.529 156.177 15.7884C155.72 15.0477 155.491 14.0342 155.491 12.8258C155.491 12.241 155.643 11.6173 155.948 10.9546C156.254 10.292 156.711 9.70724 157.283 9.16149C157.855 8.61575 158.58 8.14797 159.419 7.79713C160.258 7.4463 161.25 7.25139 162.318 7.25139C163.195 7.25139 164.034 7.29037 164.797 7.36833C165.597 7.4463 166.36 7.56324 167.123 7.71917L166.513 10.7597C166.17 10.6428 165.788 10.4869 165.331 10.3699C164.873 10.253 164.453 10.136 163.996 10.0581C163.538 9.98011 163.08 9.90214 162.661 9.86316C162.241 9.82418 161.86 9.7852 161.517 9.7852C161.135 9.7852 160.792 9.7852 160.487 9.82418C160.182 9.86316 159.877 9.94113 159.61 10.136C159.381 10.292 159.19 10.5259 159.076 10.9157C158.961 11.2665 158.923 11.6953 158.923 12.2021C158.923 12.7088 159.038 13.1376 159.305 13.4885C159.572 13.8393 159.915 14.1122 160.334 14.385C160.754 14.6579 161.25 14.8918 161.784 15.0867C162.318 15.2816 162.89 15.5155 163.462 15.7884C164.034 16.0223 164.568 16.2951 165.14 16.607C165.674 16.9188 166.17 17.3087 166.589 17.7764C167.009 18.2442 167.352 18.829 167.619 19.4527C167.886 20.1543 168 20.9729 168 21.9085ZM147.367 19.1018L144.507 10.292L141.532 19.1018H147.367ZM150.228 27.8727L147.978 21.0119L140.846 21.1289L138.557 27.8727H136.116L143.63 7.68019L147.367 6.97852L154.347 27.8337H150.228V27.8727ZM126.963 18.4002L127.497 18.2832C127.993 18.1663 128.489 18.0103 128.908 17.8154C129.366 17.6205 129.747 17.3476 130.052 16.9968C130.396 16.646 130.624 16.1782 130.815 15.5545C131.006 14.9698 131.082 14.2291 131.082 13.2936C131.082 11.9292 130.777 10.9157 130.167 10.292C129.557 9.66825 128.756 9.3564 127.764 9.3564C127.535 9.3564 127.268 9.3564 127.001 9.39538C126.734 9.39538 126.467 9.43436 126.2 9.47334V27.8337H122.348V7.60222C122.768 7.56324 123.187 7.52426 123.683 7.52426C124.141 7.48528 124.637 7.4463 125.171 7.4463C125.667 7.40731 126.2 7.40731 126.696 7.40731C127.23 7.40731 127.726 7.40731 128.184 7.40731C129.366 7.40731 130.358 7.52426 131.235 7.79713C132.112 8.07 132.798 8.45982 133.37 8.9276C133.943 9.43436 134.362 10.0191 134.629 10.7597C134.896 11.4614 135.049 12.28 135.049 13.1766C135.049 14.1122 134.896 15.0087 134.591 15.8274C134.286 16.646 133.828 17.3866 133.18 18.0103C132.57 18.634 131.731 19.1018 130.777 19.4527C129.785 19.8035 128.641 19.9984 127.306 19.9984H127.154L126.963 18.4002ZM114.721 27.8727L113.195 12.319L106.368 27.8727H105.186L98.0542 12.319L96.7575 27.8727H94.5455L96.4906 7.36833H100.114L106.75 21.7916L113.081 7.36833H116.59L118.687 27.8727H114.721ZM87.2611 17.6205C87.2611 16.3731 87.1466 15.2816 86.9559 14.3071C86.7271 13.3325 86.422 12.4749 85.9643 11.8122C85.5067 11.1106 84.9346 10.6038 84.2481 10.253C83.5616 9.90214 82.7226 9.70724 81.7691 9.70724C80.9301 9.70724 80.1673 9.7852 79.4427 9.98011C78.718 10.175 78.146 10.4089 77.7264 10.7597C77.3069 11.1106 77.0018 11.8512 76.8111 12.9817C76.6204 14.1122 76.506 15.6714 76.506 17.6205C76.506 18.829 76.5823 19.9594 76.773 20.934C76.9637 21.9085 77.2306 22.7661 77.6502 23.5068C78.0697 24.2084 78.6036 24.7932 79.252 25.183C79.9385 25.5728 80.7394 25.7677 81.731 25.7677C82.7607 25.7677 83.5998 25.6508 84.2481 25.4948C84.8965 25.2999 85.4685 25.066 85.9262 24.7152C86.155 24.5593 86.3457 24.2864 86.4983 23.8186C86.6508 23.3898 86.8034 22.8441 86.9178 22.1814C87.0322 21.5577 87.1085 20.817 87.1466 20.0374C87.2229 19.2578 87.2611 18.4781 87.2611 17.6205ZM91.3037 17.6205C91.3037 19.2188 91.113 20.6611 90.7317 21.9865C90.3503 23.2729 89.7401 24.4033 88.9391 25.2999C88.1382 26.2355 87.1466 26.9371 85.9262 27.4049C84.7439 27.9117 83.3328 28.1456 81.7691 28.1456C80.1292 28.1456 78.7562 27.9117 77.5739 27.4049C76.3916 26.8982 75.4381 26.1965 74.7135 25.2609C73.9889 24.3254 73.4168 23.2339 73.0735 21.9475C72.7303 20.6611 72.5396 19.2188 72.5396 17.6205C72.5396 16.0223 72.7303 14.5799 73.0735 13.3325C73.4168 12.0461 73.9889 10.9546 74.7516 10.0581C75.5144 9.16149 76.4679 8.45982 77.6502 7.99204C78.8325 7.52426 80.2054 7.29037 81.8073 7.29037C83.4091 7.29037 84.7821 7.52426 86.0025 7.99204C87.1848 8.45982 88.1764 9.16149 88.9773 10.0581C89.7782 10.9546 90.3503 12.0461 90.7698 13.3325C91.113 14.6189 91.3037 16.0223 91.3037 17.6205ZM69.7174 8.84964C69.3741 8.84964 69.0309 8.88862 68.7258 9.00556C68.4206 9.08353 68.0774 9.23945 67.7342 9.47334C67.3909 9.66825 67.0477 9.94113 66.7044 10.292C66.323 10.6428 65.9416 11.0326 65.484 11.5004C65.0263 12.0072 64.4924 12.5919 63.9966 13.2156C63.4626 13.8393 62.8906 14.502 62.2804 15.2426C63.0813 16.8799 63.844 18.4002 64.5687 19.7645C65.2933 21.1289 66.0179 22.3373 66.7044 23.3119C67.3909 24.3254 68.1155 25.066 68.802 25.6508C69.4885 26.1965 70.2132 26.4694 70.9759 26.4694H71.2048V27.7947C70.7852 27.9117 70.3657 27.9897 69.9462 28.0676C69.5267 28.1456 68.9927 28.1456 68.4206 28.1456C67.4672 28.1456 66.6663 27.9897 65.9798 27.6388C65.2933 27.327 64.6068 26.7812 63.9966 26.0016C63.3482 25.222 62.6999 24.2084 62.0515 22.922C61.365 21.6356 60.6023 20.0764 59.7632 18.1663C59.6488 18.2832 59.5344 18.4391 59.42 18.5951C59.2674 18.751 59.153 18.9459 59.0004 19.1018C58.8479 19.2967 58.6953 19.4527 58.5809 19.6086C58.4665 19.7645 58.3521 19.9204 58.2758 19.9984V27.8727H54.4238V7.52426H58.2758V17.0748C58.6572 16.607 59.1149 16.0613 59.6107 15.3596C60.1446 14.6969 60.6785 13.9952 61.2506 13.2936C61.8227 12.5919 62.3185 11.9292 62.8524 11.2665C63.3482 10.6428 63.8059 10.136 64.1491 9.74622C64.6068 9.23945 64.9882 8.84964 65.3696 8.53778C65.7128 8.22593 66.0942 7.99204 66.4374 7.83611C66.7807 7.68019 67.1621 7.60222 67.5435 7.52426C67.9249 7.48528 68.3444 7.4463 68.8402 7.4463C69.0309 7.4463 69.2597 7.4463 69.5267 7.48528C69.7936 7.52426 69.9843 7.56324 70.0987 7.60222V8.84964H69.7174Z" fill="#0089CA"/>
<path d="M167.847 34.9283C167.733 34.8893 167.618 34.8503 167.504 34.8503C167.389 34.8113 167.275 34.8113 167.16 34.8113C167.084 34.8113 167.008 34.8113 166.97 34.8113C166.893 34.8113 166.855 34.8503 166.779 34.8893C166.741 34.9283 166.665 34.9673 166.627 35.0062C166.588 35.0452 166.512 35.1232 166.436 35.2011V38.6705H165.139V33.8368H166.36L166.474 34.6164C166.512 34.5774 166.55 34.4995 166.588 34.4215C166.627 34.3436 166.703 34.2656 166.741 34.1876C166.817 34.1097 166.855 34.0317 166.932 33.9927C167.008 33.9148 167.046 33.8758 167.122 33.8758C167.237 33.8368 167.389 33.7978 167.504 33.7978C167.656 33.7978 167.809 33.7978 168 33.7978L167.847 34.9283ZM160.601 36.2537C160.601 36.8774 160.677 37.3451 160.829 37.657C160.982 37.9688 161.211 38.0858 161.592 38.0858C161.745 38.0858 161.859 38.0858 161.974 38.0468C162.088 38.0078 162.202 37.9688 162.279 37.9299C162.317 37.8909 162.355 37.8519 162.431 37.735C162.469 37.618 162.508 37.5011 162.546 37.3451C162.584 37.1892 162.584 37.0333 162.622 36.8384C162.622 36.6435 162.622 36.4486 162.622 36.2147C162.622 35.591 162.546 35.1232 162.393 34.8113C162.241 34.4995 162.012 34.3435 161.669 34.3435C161.554 34.3435 161.402 34.3435 161.287 34.3825C161.173 34.4215 161.058 34.4605 160.982 34.4995C160.944 34.5385 160.906 34.6164 160.829 34.6944C160.791 34.8113 160.753 34.9283 160.753 35.0842C160.715 35.2401 160.715 35.3961 160.715 35.591C160.601 35.8638 160.601 36.0587 160.601 36.2537ZM161.554 38.7875C160.791 38.7875 160.181 38.5926 159.8 38.1638C159.38 37.735 159.19 37.1113 159.19 36.2926C159.19 35.9028 159.228 35.552 159.342 35.2401C159.456 34.9283 159.609 34.6554 159.8 34.4605C159.99 34.2266 160.257 34.0707 160.563 33.9537C160.868 33.8368 161.211 33.7588 161.592 33.7588C162.393 33.7588 162.965 33.9927 163.385 34.4215C163.804 34.8503 163.995 35.474 163.995 36.2926C163.995 36.6825 163.957 37.0333 163.842 37.3451C163.728 37.657 163.575 37.9299 163.385 38.1248C163.194 38.3587 162.927 38.5146 162.622 38.6315C162.279 38.7485 161.936 38.7875 161.554 38.7875ZM155.795 34.4995L155.299 34.3435V34.0707L156.749 33.0182H157.13V33.8758H158.579L158.503 34.4215C158.389 34.4605 158.274 34.4605 158.122 34.4605C157.969 34.4605 157.817 34.4995 157.664 34.4995C157.511 34.4995 157.321 34.5385 157.13 34.5385V37.2672C157.13 37.4231 157.168 37.579 157.206 37.696C157.283 37.8129 157.397 37.8909 157.588 37.8909C157.626 37.8909 157.702 37.8909 157.778 37.8909C157.855 37.8909 157.969 37.8909 158.045 37.8519C158.122 37.8519 158.236 37.8129 158.312 37.8129C158.389 37.8129 158.465 37.7739 158.541 37.7739V38.1638C158.427 38.2417 158.312 38.3197 158.16 38.3976C158.007 38.4756 157.855 38.5536 157.702 38.5926C157.55 38.6705 157.359 38.7095 157.206 38.7485C157.054 38.7875 156.863 38.7875 156.711 38.7875C156.596 38.7875 156.482 38.7875 156.367 38.7485C156.253 38.7095 156.138 38.6705 156.062 38.5926C155.986 38.5146 155.91 38.4366 155.833 38.3197C155.795 38.2027 155.757 38.0468 155.757 37.8519V34.4995H155.795ZM152.859 37.7739C152.859 37.735 152.859 37.696 152.859 37.618C152.859 37.5401 152.859 37.4231 152.859 37.3062C152.859 37.1892 152.859 37.0333 152.859 36.8384C152.859 36.6825 152.859 36.4875 152.859 36.2926C152.515 36.2926 152.286 36.2926 152.134 36.3706C151.981 36.4096 151.867 36.4486 151.829 36.5265C151.791 36.5655 151.791 36.6045 151.791 36.6435C151.791 36.7214 151.753 36.7604 151.753 36.8384C151.753 36.9163 151.753 36.9943 151.753 37.0723C151.753 37.1502 151.753 37.2282 151.753 37.2672C151.753 37.5011 151.791 37.657 151.829 37.8129C151.905 37.9688 151.981 38.0078 152.134 38.0078C152.286 38.0078 152.401 38.0078 152.553 37.9688C152.592 37.8519 152.744 37.8129 152.859 37.7739ZM154.537 37.9688C154.651 37.9688 154.804 37.9299 154.994 37.8909V38.2027C154.918 38.2807 154.842 38.3197 154.727 38.3976C154.613 38.4756 154.537 38.5146 154.422 38.5536C154.308 38.5926 154.193 38.6315 154.079 38.6705C153.965 38.7095 153.85 38.7095 153.736 38.7095C153.621 38.7095 153.507 38.7095 153.431 38.6705C153.354 38.6315 153.278 38.5926 153.202 38.5146C153.126 38.4756 153.087 38.3976 153.049 38.3197C153.011 38.2417 152.973 38.1638 152.935 38.1248C152.82 38.2027 152.706 38.2807 152.592 38.3587C152.477 38.4366 152.363 38.5146 152.248 38.5536C152.134 38.6315 152.02 38.6705 151.867 38.7095C151.714 38.7485 151.6 38.7485 151.409 38.7485C151.028 38.7485 150.761 38.6315 150.532 38.3976C150.303 38.1638 150.227 37.8129 150.227 37.3451C150.227 37.1113 150.265 36.8774 150.341 36.6825C150.418 36.4875 150.494 36.3316 150.647 36.2147C150.799 36.0977 150.952 35.9808 151.18 35.9418C151.409 35.8638 151.676 35.8249 151.981 35.8249H152.782V35.1232C152.782 34.9283 152.744 34.7723 152.63 34.6944C152.515 34.6164 152.363 34.5385 152.134 34.5385C151.981 34.5385 151.753 34.5774 151.562 34.6164C151.333 34.6554 151.104 34.7334 150.875 34.8113L150.685 34.3046C150.837 34.2266 151.028 34.1486 151.18 34.1097C151.371 34.0317 151.524 33.9927 151.714 33.9148C151.905 33.8758 152.096 33.7978 152.248 33.7978C152.439 33.7588 152.63 33.7588 152.782 33.7588C153.011 33.7588 153.164 33.7588 153.354 33.8368C153.507 33.8758 153.659 33.9537 153.774 34.0317C153.888 34.1097 153.965 34.2656 154.041 34.4215C154.117 34.5774 154.117 34.7724 154.117 35.0062V37.2282C154.155 37.735 154.27 37.9688 154.537 37.9688ZM149.579 34.9283C149.464 34.8893 149.35 34.8503 149.235 34.8503C149.121 34.8113 149.007 34.8113 148.892 34.8113C148.816 34.8113 148.74 34.8113 148.701 34.8113C148.625 34.8113 148.587 34.8503 148.511 34.8893C148.473 34.9283 148.396 34.9673 148.358 35.0062C148.32 35.0452 148.244 35.1232 148.168 35.2011V38.6705H146.833V33.8368H148.053L148.168 34.6164C148.206 34.5774 148.244 34.4995 148.282 34.4215C148.32 34.3436 148.396 34.2656 148.434 34.1876C148.511 34.1097 148.549 34.0317 148.625 33.9927C148.701 33.9148 148.74 33.8758 148.816 33.8758C148.93 33.8368 149.083 33.7978 149.197 33.7978C149.35 33.7978 149.502 33.7978 149.693 33.7978L149.579 34.9283ZM143.019 34.5774C142.981 34.6164 142.943 34.6554 142.904 34.7723C142.866 34.8503 142.828 34.9673 142.828 35.0842C142.79 35.2011 142.79 35.3181 142.752 35.435C142.752 35.552 142.714 35.6689 142.714 35.8249L144.201 35.7469C144.201 35.591 144.163 35.474 144.125 35.3181C144.087 35.1622 144.049 35.0452 143.972 34.8893C143.896 34.7723 143.858 34.6554 143.743 34.5774C143.667 34.4995 143.553 34.4605 143.438 34.4605C143.362 34.4605 143.286 34.4605 143.21 34.4995C143.171 34.4995 143.095 34.5385 143.019 34.5774ZM143.667 33.7588C143.896 33.7588 144.125 33.7978 144.316 33.8758C144.544 33.9537 144.735 34.0317 144.888 34.1876C145.078 34.3435 145.231 34.5385 145.345 34.8113C145.46 35.0842 145.574 35.3961 145.65 35.7859V35.8638C145.612 35.9028 145.536 35.9808 145.498 36.0198C145.422 36.0587 145.345 36.0977 145.231 36.1367C145.116 36.1757 144.964 36.2147 144.811 36.2147C144.659 36.2537 144.468 36.2537 144.201 36.2926L142.714 36.4096V36.6045C142.714 36.9943 142.828 37.3062 143.019 37.5401C143.21 37.7739 143.515 37.8909 143.896 37.8909C144.049 37.8909 144.239 37.8909 144.392 37.8519C144.582 37.8129 144.735 37.7739 144.888 37.735C145.04 37.696 145.193 37.657 145.307 37.579C145.422 37.5401 145.536 37.5011 145.612 37.4621L145.727 37.8129C145.574 37.9299 145.422 38.0468 145.231 38.1638C145.04 38.2807 144.849 38.3976 144.659 38.4756C144.468 38.5536 144.239 38.6315 144.01 38.7095C143.782 38.7875 143.553 38.7875 143.324 38.7875C143.057 38.7875 142.79 38.7485 142.523 38.6705C142.294 38.5926 142.065 38.4366 141.913 38.2417C141.722 38.0468 141.608 37.8129 141.493 37.5011C141.379 37.1892 141.341 36.8384 141.341 36.4096C141.341 35.9418 141.417 35.513 141.531 35.1622C141.646 34.8113 141.798 34.5385 142.027 34.3435C142.218 34.1486 142.485 33.9927 142.752 33.8758C143.019 33.7978 143.324 33.7588 143.667 33.7588ZM139.091 36.1757C139.091 35.6299 139.014 35.2401 138.824 34.9673C138.671 34.6944 138.404 34.5774 138.137 34.5774C137.985 34.5774 137.832 34.5774 137.718 34.6164C137.565 34.6554 137.451 34.6944 137.298 34.7334V37.8909C137.412 37.9299 137.489 37.9299 137.603 37.9299C137.718 37.9299 137.794 37.9299 137.908 37.9299C138.061 37.9299 138.252 37.9299 138.404 37.8909C138.557 37.8519 138.671 37.8129 138.747 37.735C138.824 37.657 138.9 37.4621 138.976 37.1892C139.052 36.9943 139.091 36.6435 139.091 36.1757ZM137.298 34.2656C137.489 34.1097 137.679 33.9927 137.87 33.9148C138.061 33.7978 138.328 33.7588 138.595 33.7588C138.824 33.7588 139.091 33.7978 139.319 33.8758C139.548 33.9537 139.739 34.1097 139.93 34.3046C140.12 34.4995 140.235 34.7334 140.349 35.0452C140.464 35.3571 140.502 35.7079 140.502 36.1367C140.502 36.5655 140.425 36.9163 140.311 37.2672C140.197 37.579 140.044 37.8909 139.815 38.0858C139.586 38.3197 139.358 38.4756 139.052 38.5926C138.747 38.7095 138.404 38.7875 138.023 38.7875C137.908 38.7875 137.756 38.7875 137.641 38.7485C137.489 38.7485 137.412 38.7095 137.298 38.6705C137.298 38.7095 137.298 38.7875 137.298 38.9044C137.298 39.0214 137.298 39.1383 137.298 39.2552V41.7501L135.963 41.984V33.9927L137.145 33.7978L137.298 34.2656ZM131.425 36.2537C131.425 36.8774 131.501 37.3451 131.654 37.657C131.806 37.9688 132.035 38.0858 132.416 38.0858C132.569 38.0858 132.683 38.0858 132.798 38.0468C132.912 38.0078 133.027 37.9688 133.103 37.9299C133.141 37.8909 133.179 37.8519 133.255 37.735C133.293 37.618 133.332 37.5011 133.37 37.3451C133.408 37.1892 133.408 37.0333 133.446 36.8384C133.446 36.6435 133.446 36.4486 133.446 36.2147C133.446 35.591 133.37 35.1232 133.217 34.8113C133.065 34.4995 132.836 34.3435 132.493 34.3435C132.378 34.3435 132.226 34.3435 132.111 34.3825C131.997 34.4215 131.882 34.4605 131.806 34.4995C131.768 34.5385 131.73 34.6164 131.654 34.6944C131.615 34.8113 131.577 34.9283 131.577 35.0842C131.539 35.2401 131.539 35.3961 131.539 35.591C131.425 35.8638 131.425 36.0587 131.425 36.2537ZM132.416 38.7875C131.654 38.7875 131.043 38.5926 130.662 38.1638C130.242 37.735 130.052 37.1113 130.052 36.2926C130.052 35.9028 130.09 35.552 130.204 35.2401C130.319 34.9283 130.471 34.6554 130.662 34.4605C130.853 34.2266 131.12 34.0707 131.425 33.9537C131.73 33.8368 132.073 33.7588 132.454 33.7588C133.255 33.7588 133.827 33.9927 134.247 34.4215C134.666 34.8503 134.857 35.474 134.857 36.2926C134.857 36.6825 134.819 37.0333 134.705 37.3451C134.59 37.657 134.438 37.9299 134.247 38.1248C134.056 38.3587 133.789 38.5146 133.484 38.6315C133.141 38.7485 132.798 38.7875 132.416 38.7875ZM129.365 34.9283C129.251 34.8893 129.136 34.8503 129.022 34.8503C128.908 34.8113 128.793 34.8113 128.679 34.8113C128.602 34.8113 128.526 34.8113 128.488 34.8113C128.412 34.8113 128.374 34.8503 128.297 34.8893C128.259 34.9283 128.183 34.9673 128.145 35.0062C128.107 35.0452 128.03 35.1232 127.954 35.2011V38.6705H126.619V33.8368H127.84L127.954 34.6164C127.992 34.5774 128.03 34.4995 128.069 34.4215C128.107 34.3436 128.183 34.2656 128.221 34.1876C128.297 34.1097 128.336 34.0317 128.412 33.9927C128.488 33.9148 128.526 33.8758 128.602 33.8758C128.717 33.8368 128.869 33.7978 128.984 33.7978C129.136 33.7978 129.289 33.7978 129.48 33.7978L129.365 34.9283ZM122.081 33.8368V37.0723C122.081 37.3451 122.119 37.579 122.233 37.696C122.31 37.8519 122.462 37.8909 122.691 37.8909C122.767 37.8909 122.844 37.8909 122.958 37.8519C123.034 37.8129 123.149 37.8129 123.263 37.7739C123.378 37.735 123.454 37.696 123.53 37.657C123.606 37.618 123.721 37.54 123.797 37.5011V33.8368H125.132V38.6705H123.911L123.797 38.1248C123.721 38.2027 123.606 38.2417 123.454 38.3197C123.339 38.3976 123.187 38.4756 123.034 38.5536C122.882 38.6315 122.729 38.6705 122.538 38.7485C122.386 38.7875 122.195 38.8264 122.043 38.8264C121.852 38.8264 121.699 38.7875 121.547 38.7485C121.394 38.6705 121.242 38.5926 121.127 38.4756C121.013 38.3587 120.937 38.2027 120.86 38.0468C120.784 37.8519 120.746 37.657 120.746 37.4231V33.9148H122.081V33.8368ZM116.246 36.2537C116.246 36.8774 116.322 37.3451 116.474 37.657C116.627 37.9688 116.856 38.0858 117.237 38.0858C117.39 38.0858 117.504 38.0858 117.619 38.0468C117.733 38.0078 117.847 37.9688 117.924 37.9299C117.962 37.8909 118 37.8519 118.076 37.735C118.114 37.618 118.153 37.5011 118.191 37.3451C118.229 37.1892 118.229 37.0333 118.267 36.8384C118.267 36.6435 118.267 36.4486 118.267 36.2147C118.267 35.591 118.191 35.1232 118.038 34.8113C117.886 34.4995 117.657 34.3435 117.313 34.3435C117.199 34.3435 117.047 34.3435 116.932 34.3825C116.818 34.4215 116.703 34.4605 116.627 34.4995C116.589 34.5385 116.551 34.6164 116.474 34.6944C116.436 34.8113 116.398 34.9283 116.398 35.0842C116.36 35.2401 116.36 35.3961 116.36 35.591C116.246 35.8638 116.246 36.0587 116.246 36.2537ZM117.199 38.7875C116.436 38.7875 115.826 38.5926 115.445 38.1638C115.025 37.735 114.834 37.1113 114.834 36.2926C114.834 35.9028 114.873 35.552 114.987 35.2401C115.101 34.9283 115.254 34.6554 115.445 34.4605C115.635 34.2266 115.902 34.0707 116.207 33.9537C116.513 33.8368 116.856 33.7588 117.237 33.7588C118.038 33.7588 118.61 33.9927 119.03 34.4215C119.449 34.8503 119.64 35.474 119.64 36.2926C119.64 36.6825 119.602 37.0333 119.487 37.3451C119.373 37.657 119.22 37.9299 119.03 38.1248C118.839 38.3587 118.572 38.5146 118.267 38.6315C117.962 38.7485 117.619 38.7875 117.199 38.7875ZM110.868 38.7095V32.1996L108.809 32.1606L108.885 31.4199H114.339L114.262 32.1216L112.241 32.1606V38.6315H110.868V38.7095Z" fill="#0089CA"/>
</g>
<defs>
<clipPath id="clip0">
<rect width="168" height="49" fill="white"/>
</clipPath>
</defs>
</svg>
